<?xml version="1.0" standalone="no"?>
<!DOCTYPE svg PUBLIC "-//W3C//DTD SVG 1.1//EN" "http://www.w3.org/Graphics/SVG/1.1/DTD/svg11.dtd" >
<svg>
<metadata>
Created by FontForge 20090622 at Thu Nov  2 05:38:54 2017
 By deploy user
Copyright (C) 1996-2005, Hoefler &#38; Frere-Jones, Inc. www.typography.com
</metadata>
<defs>
<font id="MercuryTextG2-Italic" horiz-adv-x="500" >
  <font-face 
    font-family="Mercury Text G2"
    font-weight="400"
    font-style="italic"
    font-stretch="normal"
    units-per-em="1000"
    panose-1="2 0 5 3 8 0 0 9 0 3"
    ascent="800"
    descent="-200"
    x-height="464"
    cap-height="637"
    bbox="-146 -266 1032 923"
    underline-thickness="20"
    underline-position="-90"
    slope="-12"
    unicode-range="U+0020-U+FB02"
  />
<missing-glyph 
 />
    <glyph glyph-name=".notdef" 
 />
    <glyph glyph-name="NUL" horiz-adv-x="0" 
 />
    <glyph glyph-name="nonmarkingreturn" horiz-adv-x="220" 
 />
    <glyph glyph-name="space" unicode=" " horiz-adv-x="220" 
 />
    <glyph glyph-name="ring" unicode="&#x2da;" horiz-adv-x="267" 
d="M185 542q26 0 47 10t35.5 26t22.5 36.5t8 41.5q0 38 -23.5 62t-62.5 24q-26 0 -47 -10t-35.5 -26t-22.5 -36.5t-8 -41.5q0 -38 23.5 -62t62.5 -24zM190 564q-18 0 -32 15.5t-14 49.5q0 12 4 27.5t12 30t20 24t27 9.5q18 0 32 -15.5t14 -49.5q0 -12 -4 -27.5t-12 -30
t-20 -24t-27 -9.5z" />
    <glyph glyph-name="hungarumlaut" unicode="&#x2dd;" horiz-adv-x="328" 
d="M238 529l81.5 73t56.5 59q15 20 14 37.5t-18 28.5q-14 11 -31.5 4t-30.5 -24q-9 -12 -19.5 -30.5l-22 -40.5l-23.5 -46l-23 -47zM95 529l81.5 73t56.5 59q15 20 14 37.5t-18 28.5q-14 11 -31.5 4t-30.5 -24q-9 -12 -19.5 -30.5l-22 -40.5l-23.5 -46l-23 -47z" />
    <glyph glyph-name="ogonek" unicode="&#x2db;" horiz-adv-x="277" 
d="M49 -252q18 0 34.5 6t30.5 15.5t26.5 21.5t22.5 23l-15 15q-17 -11 -34 -23.5t-33 -12.5q-63 0 -63 66q0 21 7.5 40t25 39.5t44 43.5t64.5 53l-15 17q-98 -59 -145.5 -110t-47.5 -106q0 -42 26 -65t72 -23z" />
    <glyph glyph-name="caron" unicode="&#x2c7;" horiz-adv-x="307" 
d="M175 541h32l152 177l-19 19l-132 -112l-83 112l-25 -19z" />
    <glyph glyph-name="dotlessi" unicode="&#x131;" horiz-adv-x="284" 
d="M107 -11q26 0 61 12t65 30l-2 17q-32 0 -50.5 1.5t-28.5 5.5t-11.5 12t1.5 21l85 374l-8 8l-170 -52l-2 -24l82 -22l-70 -312q-6 -27 5 -49t43 -22z" />
    <glyph glyph-name="fi" unicode="&#xfb01;" horiz-adv-x="565" 
d="M-47 -219q57 0 107 48q23 22 39 44.5t28 51.5t21.5 68t19.5 94l53 305h194l-75 -332q-6 -27 5 -49t43 -22q26 0 61 12t65 30l-2 17q-32 0 -50.5 1.5t-28.5 5.5t-11.5 12t1.5 21l85 374l-8 8l-88 -27h-182l12 69q18 99 60 142.5t101 44.5q19 -85 80 -85q23 0 37.5 15
t14.5 37q0 27 -28.5 51t-83.5 24q-41 0 -76.5 -9.5t-64.5 -29.5q-28 -19 -48 -41t-35 -49.5t-25.5 -62t-17.5 -77.5l-4 -24l-110 -28l-6 -28h105l-71 -409q-11 -56 -23.5 -92.5t-32.5 -58.5q-15 22 -33.5 35.5t-42.5 13.5q-25 0 -40 -13t-15 -33t17.5 -37t52.5 -17z" />
    <glyph glyph-name="fl" unicode="&#xfb02;" horiz-adv-x="565" 
d="M-47 -219q57 0 107 48q23 22 39 44.5t28 51.5t21.5 68t19.5 94l53 305h192l-73 -332q-6 -28 5 -49.5t43 -21.5q26 0 61.5 12t64.5 30l-2 17q-32 0 -50.5 1.5t-28.5 5.5t-11.5 12t1.5 21l143 643l-7 9l-61 -18q-29 19 -75 19q-41 0 -76.5 -9.5t-64.5 -29.5
q-28 -19 -48 -41t-35 -49.5t-25.5 -62t-17.5 -77.5l-4 -24l-110 -28l-6 -28h105l-71 -409q-11 -56 -23.5 -92.5t-32.5 -58.5q-15 22 -33.5 35.5t-42.5 13.5q-25 0 -40 -13t-15 -33t17.5 -37t52.5 -17zM230 443l12 69q18 99 60 142.5t101 44.5q8 -34 22.5 -55t37.5 -27
l-39 -174h-194z" />
    <glyph glyph-name="exclam" unicode="!" horiz-adv-x="278" 
d="M133 190l42.5 124.5l39 116.5t28.5 95t13 59q3 34 -11.5 50.5t-40.5 16.5q-20 0 -36 -13.5t-22 -44.5q-4 -20 -8.5 -60.5t-9.5 -94.5t-10 -117.5t-11 -128.5zM91 -15q26 0 44 18t18 44t-18 44t-43 18q-26 0 -44.5 -18.5t-18.5 -43.5q0 -26 18 -44t44 -18z" />
    <glyph glyph-name="quotedbl" unicode="&#x22;" horiz-adv-x="399" 
d="M255 416l55 68l33 42.5t21 29.5l13 19t8 13q8 15 8 29t-11.5 24.5t-27.5 10.5q-29 0 -46 -31q-4 -6 -7.5 -14t-8.5 -21l-12.5 -33t-17.5 -50l-28 -77zM93 416l54 68l33.5 42.5t22 29.5t13 19t7.5 13q9 16 9 29q0 14 -12 24.5t-28 10.5q-28 0 -46 -31q-3 -6 -6.5 -14
l-9 -21t-12.5 -33l-18 -50l-27 -77z" />
    <glyph glyph-name="numbersign" unicode="#" horiz-adv-x="629" 
d="M167 24l42 150h140l-42 -139l51 -11l42 150h136v43h-125l22 84l25 86h118l1 43h-106l44 147l-50 12l-45 -159h-140l44 147l-50 12l-45 -159h-136l-1 -43h125l-19 -78l-28 -92h-118v-43h106l-42 -139zM220 217l21 84l26 86h142l-20 -78l-28 -92h-141z" />
    <glyph glyph-name="dollar" unicode="$" horiz-adv-x="520" 
d="M202 -119l22 104q46 0 85.5 13t68.5 36t45.5 55.5t16.5 72.5q0 30 -8.5 54.5t-26 45.5t-44.5 41t-65 42l49 241q35 -13 62 -47t37 -94l24 3l26 137q-32 15 -66 25t-72 15l19 89l-41 5l-18 -91q-42 1 -80 -10.5t-67 -34.5t-46 -55.5t-17 -72.5q0 -29 8 -52t24.5 -43
t43 -39.5t64.5 -40.5l-54 -260q-57 9 -89.5 50.5t-38.5 126.5l-22 -2l-34 -162q39 -17 85 -29t90 -17l-21 -102zM263 363q-46 29 -66 55t-20 60q0 26 9.5 48t26.5 38t42 23.5t56 5.5zM229 18l49 243q47 -29 68 -56t21 -64q0 -57 -37.5 -89.5t-100.5 -33.5z" />
    <glyph glyph-name="percent" unicode="%" horiz-adv-x="768" 
d="M186 302q39 0 71.5 19t56.5 48.5t37 65.5t13 70q0 59 -33 90.5t-83 31.5q-39 0 -71.5 -19t-56.5 -48.5t-37 -65.5t-13 -70q0 -59 33 -90.5t83 -31.5zM144 -32l256 328l262 322l-37 25l-256 -328l-261 -321zM521 -16q39 0 71.5 19t56.5 48.5t37 65.5t13 70q0 59 -33 90.5
t-83 31.5q-39 0 -71.5 -19t-56.5 -48.5t-37 -65.5t-13 -70q0 -59 33 -90.5t83 -31.5zM203 334q-35 0 -51 27t-16 70q0 30 6.5 59t18.5 52.5t29.5 38t40.5 14.5q35 0 51 -27t16 -70q0 -30 -6.5 -59t-18.5 -52.5t-30 -38t-40 -14.5zM538 16q-35 0 -51 27t-16 70q0 30 6.5 59
t18.5 52.5t29.5 38t40.5 14.5q35 0 51 -27t16 -70q0 -30 -6.5 -59t-18.5 -52.5t-30 -38t-40 -14.5z" />
    <glyph glyph-name="ampersand" unicode="&#x26;" horiz-adv-x="683" 
d="M187 -11q54 0 99 23.5t88 55.5l9 -2q-2 -35 18 -56t67 -21q33 0 65 13t68 33v20q-32 -3 -59 -3q-26 0 -41 3.5t-24 10.5q-21 16 -9 62l47 190h121l12 50h-122l29 114l-30 7l-58 -91l-127 -44q-62 10 -96.5 39t-34.5 72q0 23 7.5 43t20.5 36t29.5 27.5t33.5 17.5
q12 -29 32 -46.5t46 -18.5t42.5 13.5t16.5 35.5q0 23 -21 41t-66 18q-37 0 -76.5 -14t-72.5 -38.5t-54 -57.5t-21 -70q0 -45 24.5 -73.5t66.5 -46.5l-1 -9q-94 -26 -139.5 -75t-45.5 -117q0 -32 12 -58.5t33 -45t49.5 -28.5t61.5 -10zM234 52q-50 0 -80 27t-30 79
q0 61 49 103.5t149 56.5h119l-47 -199q-41 -32 -83 -49.5t-77 -17.5z" />
    <glyph glyph-name="quotesingle" unicode="'" horiz-adv-x="241" 
d="M95 416l54 68l33.5 42.5t22 29.5t13 19t7.5 13q8 18 8 29q0 14 -11.5 24.5t-27.5 10.5q-28 0 -46 -31q-3 -6 -6.5 -14l-9 -21t-12.5 -33l-18 -50l-28 -77z" />
    <glyph glyph-name="parenleft" unicode="(" horiz-adv-x="361" 
d="M309 -176l16 25q-91 72 -137 165t-46 214q0 75 20 147t60 135t100 115t140 88l-7 28q-97 -35 -170 -89.5t-122.5 -121t-74.5 -141t-25 -150.5q0 -137 61.5 -238.5t184.5 -176.5z" />
    <glyph glyph-name="parenright" unicode=")" horiz-adv-x="361" 
d="M-108 -176q97 35 170.5 89.5t122.5 121t74 141t25 150.5q0 138 -61.5 239t-183.5 176l-17 -25q91 -72 137 -164.5t46 -213.5q0 -76 -20 -147.5t-60 -134.5t-100 -115.5t-140 -88.5z" />
    <glyph glyph-name="asterisk" unicode="*" horiz-adv-x="424" 
d="M78 567l131 -92l-1 -10l-157 -29l13 -56l149 70l6 -5l-54 -153l58 -12l12 162l9 1l107 -124l35 45l-131 92l2 10l157 29l-14 56l-148 -70l-7 5l55 153l-59 12l-12 -162l-9 -1l-106 123z" />
    <glyph glyph-name="plus" unicode="+" horiz-adv-x="520" 
d="M471 280l11 53h-184l40 186h-58l-39 -186h-185l-11 -53h185l-41 -189h58l40 189h184z" />
    <glyph glyph-name="comma" unicode="," horiz-adv-x="231" 
d="M-8 -164q36 16 68 37t56.5 46t39 53.5t14.5 60.5q0 35 -20 54.5t-47 19.5q-26 0 -46 -19.5t-20 -45.5q0 -24 13.5 -36t32.5 -12q7 0 13 2l3 1l7 -4q-7 -29 -39 -65.5t-89 -70.5z" />
    <glyph glyph-name="hyphen" unicode="-" horiz-adv-x="366" 
d="M28 200h259l11 69h-259z" />
    <glyph glyph-name="period" unicode="." horiz-adv-x="231" 
d="M106 -16q26 0 44 18t18 44t-18 44t-44 18t-44.5 -18t-18.5 -44t18.5 -44t44.5 -18z" />
    <glyph glyph-name="slash" unicode="/" horiz-adv-x="416" 
d="M-75 -210l274 469l275 460l-44 22l-275 -469l-275 -459z" />
    <glyph glyph-name="zero" unicode="0" horiz-adv-x="555" 
d="M218 -14q59 0 114 33.5t98 91.5t68.5 135.5t25.5 165.5q0 45 -10.5 84.5t-33 68.5t-56.5 45.5t-80 16.5q-59 0 -114.5 -33.5t-98 -91.5t-68 -135.5t-25.5 -165.5q0 -45 10.5 -84.5t33 -68.5t56 -45.5t80.5 -16.5zM238 29q-51 0 -77.5 44.5t-26.5 126.5q0 90 18.5 161
t46.5 120.5t61.5 76t63.5 26.5q51 0 77.5 -44.5t26.5 -126.5q0 -90 -18.5 -161.5t-46.5 -121t-61.5 -75.5t-63.5 -26z" />
    <glyph glyph-name="one" unicode="1" horiz-adv-x="390" 
d="M-10 0h306l7 31l-104 33l116 548l-9 8l-193 -32l-5 -27l104 -41l-97 -456l-118 -33z" />
    <glyph glyph-name="two" unicode="2" horiz-adv-x="499" 
d="M-27 0h393l62 163l-19 8l-93 -100h-216l-3 7q110 83 179 142t108 104.5t53 82.5t14 77q0 67 -41.5 105.5t-113.5 38.5q-67 0 -116 -33t-89 -91l24 -22q42 41 74 59.5t69 18.5q47 0 73 -26.5t26 -72.5q0 -23 -6 -46t-22.5 -50t-46 -61t-75.5 -78q-47 -45 -106 -93
l-134 -105z" />
    <glyph glyph-name="three" unicode="3" horiz-adv-x="471" 
d="M164 -15q51 0 93 16t71 43t45 61.5t16 72.5q0 56 -30 91.5t-85 58.5v12q77 35 115 74.5t38 97.5q0 24 -9.5 45.5t-26.5 37t-41.5 24.5t-54.5 9q-58 0 -105.5 -27.5t-91.5 -78.5l22 -25q38 32 70.5 48t65.5 16q43 0 64.5 -19.5t21.5 -52.5q0 -44 -44 -87t-150 -86l-5 -27
q76 -10 119 -42.5t43 -89.5q0 -62 -37 -95.5t-94 -33.5q-29 0 -47.5 4.5t-36.5 14.5q16 43 4 74t-49 31q-25 0 -40.5 -17.5t-15.5 -46.5q0 -24 14.5 -43t39 -32.5t56 -20.5t65.5 -7z" />
    <glyph glyph-name="four" unicode="4" horiz-adv-x="543" 
d="M153 0h281l6 31l-97 32l27 126h116l10 56h-115l80 376l-70 6l-361 -405l8 -33h253l-28 -126l-104 -32zM111 245l240 276h10l-59 -276h-191z" />
    <glyph glyph-name="five" unicode="5" horiz-adv-x="464" 
d="M179 -15q44 0 84 15t70.5 42.5t48.5 67t18 88.5q0 94 -67.5 143t-182.5 59l39 130h235l32 128l-26 4l-48 -50h-223l-80 -282q115 -5 176 -42.5t61 -113.5q0 -32 -10.5 -59t-29 -46.5t-44.5 -30t-56 -10.5q-25 0 -42.5 5.5t-30.5 13.5q10 22 11.5 42t-4.5 35t-19 23.5
t-33 8.5q-24 0 -40 -18t-16 -46q0 -22 13.5 -41.5t37.5 -34t56 -23t70 -8.5z" />
    <glyph glyph-name="six" unicode="6" horiz-adv-x="496" 
d="M222 -15q44 0 83.5 20.5t69 55t47 79.5t17.5 95q0 80 -43.5 124.5t-117.5 44.5q-20 0 -44.5 -6t-47.5 -17l-8 6q24 35 53 65.5t66 57.5t82.5 50t103.5 44l-4 35q-105 -21 -186 -64.5t-137 -102.5t-85 -130t-29 -147q0 -50 13.5 -89t37.5 -66t57 -41t72 -14zM229 24
q-42 0 -69.5 40t-27.5 122q0 51 7.5 89t21.5 70q11 3 31 5.5t36 2.5q59 0 90.5 -34t31.5 -103q0 -90 -33.5 -141t-87.5 -51z" />
    <glyph glyph-name="seven" unicode="7" horiz-adv-x="453" 
d="M-2 -15h96l402 612l-7 15h-315l-19 41l-27 -5l-56 -189l28 -5l70 79h231l-215 -304z" />
    <glyph glyph-name="eight" unicode="8" horiz-adv-x="498" 
d="M320 316q69 26 111.5 65t42.5 98q0 32 -13.5 59t-38 46.5t-58.5 30.5t-74 11q-38 0 -72.5 -12.5t-61 -35t-42 -53.5t-15.5 -67q0 -48 22 -81t66 -65q-80 -28 -121.5 -71t-41.5 -102q0 -33 15 -61t42 -48.5t63.5 -32t79.5 -11.5q37 0 74 11t65.5 33t46.5 54t18 73
q0 51 -28 87.5t-80 71.5zM286 337q-53 34 -81.5 65t-28.5 79q0 22 9 41.5t24 34t35 22.5t42 8q49 0 79.5 -28t30.5 -73q0 -51 -28.5 -84t-81.5 -65zM221 289q33 -21 57.5 -39t40.5 -36t23.5 -37t7.5 -43q0 -26 -10 -46.5t-26 -34.5t-36.5 -21.5t-41.5 -7.5q-61 0 -95.5 30.5
t-34.5 82.5q0 49 29.5 87t85.5 65z" />
    <glyph glyph-name="nine" unicode="9" horiz-adv-x="496" 
d="M28 -26q105 21 186.5 64.5t137 102.5t84.5 129.5t29 147.5q0 49 -13.5 88t-37.5 66t-57 41.5t-72 14.5q-44 0 -83.5 -20t-69 -53.5t-47 -77.5t-17.5 -91q0 -81 45 -125t120 -44q20 0 45 6t49 17l8 -6q-23 -35 -51.5 -66t-66 -59t-85 -53t-108.5 -47zM283 268
q-59 0 -92.5 32t-33.5 104q0 41 9 75t25 58.5t38 38t49 13.5q42 0 69.5 -40t27.5 -122q0 -47 -6 -83t-18 -68q-11 -3 -31.5 -5.5t-36.5 -2.5z" />
    <glyph glyph-name="colon" unicode=":" horiz-adv-x="241" 
d="M169 277q26 0 44 18t18 44t-18 44t-44 18t-44.5 -18t-18.5 -44t18.5 -44t44.5 -18zM115 -16q26 0 44 18t18 44t-18 44t-44 18t-44.5 -18t-18.5 -44t18.5 -44t44.5 -18z" />
    <glyph glyph-name="semicolon" unicode=";" horiz-adv-x="241" 
d="M169 277q26 0 44 18t18 44t-18 44t-44 18t-44.5 -18t-18.5 -44t18.5 -44t44.5 -18zM2 -164q36 16 68 37t56.5 46t39 53.5t14.5 60.5q0 35 -20 54.5t-47 19.5q-26 0 -46 -19.5t-20 -45.5q0 -24 13.5 -36t32.5 -12q7 0 13 2l3 1l7 -4q-7 -29 -39 -65.5t-89 -70.5z" />
    <glyph glyph-name="less" unicode="&#x3c;" horiz-adv-x="520" 
d="M381 92l25 46l-282 165l352 166l-3 52l-401 -190l-10 -49z" />
    <glyph glyph-name="equal" unicode="=" horiz-adv-x="520" 
d="M65 374h418l11 54h-418zM24 184h419l11 54h-419z" />
    <glyph glyph-name="greater" unicode="&#x3e;" horiz-adv-x="520" 
d="M47 92l399 188l11 51l-319 190l-25 -47l281 -165l-350 -165z" />
    <glyph glyph-name="question" unicode="?" horiz-adv-x="414" 
d="M196 192q22 0 42.5 6t32.5 14l-8 23q-51 -8 -77 2.5t-26 36.5q0 10 3.5 18.5t14.5 17t31 17t52 19.5q77 25 116.5 61.5t39.5 98.5q0 31 -13 58t-37 46.5t-57.5 30.5t-74.5 11q-63 0 -99 -25t-36 -60q0 -29 15.5 -43t38.5 -14t40 18t17 51q0 8 -0.5 14.5t-4.5 16.5
q15 8 42 8q43 0 72 -23.5t29 -64.5q0 -42 -26 -67t-88 -45q-42 -14 -70 -28t-45 -30t-24 -34.5t-7 -41.5q0 -44 31 -68t76 -24zM131 -15q26 0 44 18t18 44t-18 44t-44 18t-44 -18t-18 -44t18 -44t44 -18z" />
    <glyph glyph-name="at" unicode="@" horiz-adv-x="924" 
d="M473 -178q87 0 157 25t125 67l-16 18q-60 -32 -117 -48t-126 -16q-87 0 -156 27.5t-117 77t-73.5 117.5t-25.5 149t29 150t79 119.5t117 79t143 28.5q71 0 130.5 -22.5t103 -62.5t67.5 -94.5t24 -117.5q0 -57 -14.5 -102.5t-38 -77.5t-54 -49t-61.5 -17q-36 0 -50.5 28.5
t-3.5 76.5l63 281l-19 5l-42 -46q-14 10 -29.5 16.5t-41.5 6.5q-40 0 -82 -26t-77 -66.5t-57.5 -90.5t-22.5 -98q0 -54 27.5 -83.5t72.5 -29.5q36 0 65 20t59 55l10 -2q6 -36 35 -58.5t82 -22.5q42 0 84.5 20t77 58.5t56 93.5t21.5 124t-27.5 127t-76.5 100.5t-115 66
t-143 23.5q-96 0 -179 -33t-144.5 -91t-96.5 -138t-35 -173q0 -92 31.5 -165.5t86.5 -124.5t130.5 -78t164.5 -27zM420 99q-26 0 -43 19.5t-17 64.5q0 40 11.5 78.5t31 68.5t45 48t53.5 18q21 0 37 -9t31 -26l-44 -192q-39 -40 -61 -55t-44 -15z" />
    <glyph glyph-name="A" unicode="A" horiz-adv-x="688" 
d="M-67 0h221l6 32l-71 29l89 160h227l23 -170l-108 -19l-7 -32h304l7 32l-96 25l-91 586h-67l-337 -582l-93 -29zM204 267l150 271h9l36 -271h-195z" />
    <glyph glyph-name="B" unicode="B" horiz-adv-x="608" 
d="M-32 0h289q55 0 105 14t88 39t60 60.5t22 79.5q0 61 -38.5 92.5t-107.5 45.5l1 11q37 9 68.5 24.5t54.5 36.5t36.5 48.5t13.5 61.5q0 60 -48.5 92t-144.5 32h-266l-8 -32l108 -20l-110 -533l-116 -20zM245 351l51 244q15 3 26 4.5t32 1.5q51 0 79.5 -22.5t28.5 -71.5
q0 -33 -10.5 -61.5t-31 -49.5t-51.5 -33t-71 -12h-53zM247 36q-21 0 -37 2t-30 5l57 270h53q63 0 101.5 -26.5t38.5 -85.5q0 -75 -48.5 -120t-134.5 -45z" />
    <glyph glyph-name="C" unicode="C" horiz-adv-x="661" 
d="M333 -15q27 0 51 2.5t47 7.5t46 13t48 19l39 145l-20 7l-121 -138q-20 -7 -38 -9.5t-40 -2.5q-43 0 -78.5 15t-61 44t-39.5 71t-14 96q0 78 21.5 143.5t57 113.5t81.5 75t94 27q67 0 110 -43t65 -135l30 1l42 214h-29l-47 -43q-31 18 -72.5 31t-94.5 13q-74 0 -140 -32
t-115.5 -86t-78.5 -125t-29 -150q0 -65 21 -116t59 -86t90.5 -53.5t115.5 -18.5z" />
    <glyph glyph-name="D" unicode="D" horiz-adv-x="710" 
d="M-32 0h283q100 0 178.5 30.5t133 83t83.5 121.5t29 146q0 63 -21.5 111t-60.5 80t-93.5 48.5t-121.5 16.5h-277l-7 -32l107 -20l-110 -533l-116 -20zM184 45l113 547h68q103 0 154.5 -54t51.5 -151q0 -71 -20.5 -133t-60 -108.5t-97.5 -73.5t-132 -27h-77z" />
    <glyph glyph-name="E" unicode="E" horiz-adv-x="628" 
d="M-32 0h530l59 195l-18 4l-92 -105q-12 -14 -22.5 -23t-22.5 -14t-27.5 -7t-37.5 -2h-153l51 252h48q22 0 37.5 -4t25 -14t14.5 -27t7 -43l3 -31h25l59 281h-25l-15 -33q-12 -27 -24 -44t-26 -26.5t-31.5 -13t-39.5 -3.5h-49l52 248h120q24 0 39.5 -2t26 -8t18.5 -16
t17 -26l43 -79l22 7l12 171h-493l-7 -32l107 -20l-110 -533l-116 -20z" />
    <glyph glyph-name="F" unicode="F" horiz-adv-x="595" 
d="M-32 0h324l7 32l-114 20l51 244h53q45 0 67 -17.5t24 -69.5l1 -31h26l59 281h-25l-15 -33q-13 -27 -26 -44t-28 -26.5t-33 -13.5t-41 -4h-54l52 252h122q24 0 39.5 -2t27 -8t19.5 -16t17 -26l43 -79l21 7l13 171h-497l-7 -32l107 -20l-110 -533l-116 -20z" />
    <glyph glyph-name="G" unicode="G" horiz-adv-x="686" 
d="M287 -15q48 0 86 14.5t76 39.5l45 -52l25 5l53 245l89 19l7 32h-278l-7 -32l95 -19l-37 -160q-35 -22 -64 -31.5t-58 -9.5q-37 0 -67.5 13t-53 40t-35 67.5t-12.5 95.5q0 78 21 144.5t56 114.5t80 75.5t93 27.5q69 0 107 -42t61 -133l34 2l38 214h-29l-46 -44
q-29 17 -68 29t-93 12q-80 0 -145.5 -35t-113 -91t-73.5 -126.5t-26 -141.5q0 -67 18 -118t50.5 -85.5t76.5 -52t95 -17.5z" />
    <glyph glyph-name="H" unicode="H" horiz-adv-x="812" 
d="M-32 0h314l7 32l-104 20l53 255h330l-53 -255l-113 -20l-7 -32h315l7 32l-106 20l110 533l115 20l7 32h-315l-7 -32l105 -20l-48 -231h-330l48 231l111 20l8 32h-314l-7 -32l107 -20l-110 -533l-116 -20z" />
    <glyph glyph-name="I" unicode="I" horiz-adv-x="416" 
d="M-22 0h324l7 32l-109 20l110 533l118 20l9 32h-325l-7 -32l110 -20l-111 -533l-119 -20z" />
    <glyph glyph-name="J" unicode="J" horiz-adv-x="505" 
d="M112 -17q54 0 91.5 17t65.5 40q35 30 56 75t34 106l77 364l110 20l8 32h-322l-7 -32l115 -20l-83 -399q-9 -41 -23 -73t-35 -53t-49.5 -30.5t-64.5 -4.5q11 26 12 48.5t-6 39t-20.5 26t-31.5 9.5q-31 0 -48 -21t-17 -51q0 -17 7 -33.5t23 -29.5t42.5 -21.5t65.5 -8.5z
" />
    <glyph glyph-name="K" unicode="K" horiz-adv-x="697" 
d="M-32 0h308l6 32l-97 20l50 243h75l133 -246l-83 -17l-7 -32h274l6 32l-85 23l-168 291l243 227l101 32l7 32h-236l-7 -32l73 -29l-239 -234h-77l51 243l105 20l7 32h-307l-7 -32l107 -20l-110 -533l-116 -20z" />
    <glyph glyph-name="L" unicode="L" horiz-adv-x="602" 
d="M-32 0h524l59 195l-19 4l-92 -105q-14 -15 -24.5 -24t-22.5 -13.5t-27 -6t-37 -1.5h-144l111 536l111 20l8 32h-314l-7 -32l107 -20l-110 -533l-116 -20z" />
    <glyph glyph-name="M" unicode="M" horiz-adv-x="947" 
d="M-10 0h229l7 32l-83 29l107 515h12l102 -576h46l339 576h11l-108 -524l-103 -20l-7 -32h301l7 32l-105 20l111 533l114 20l7 32h-247l-58 -103l-227 -393h-13l-63 393l-16 103h-230l-6 -32l83 -22l-108 -522l-95 -29z" />
    <glyph glyph-name="N" unicode="N" horiz-adv-x="759" 
d="M514 -6h49l119 582l95 29l7 32h-230l-7 -32l84 -29l-83 -402h-12l-175 361l-46 102h-197l-7 -32l83 -28l-106 -516l-95 -29l-7 -32h230l7 32l-83 29l97 472h11l220 -437z" />
    <glyph glyph-name="O" unicode="O" horiz-adv-x="704" 
d="M305 -14q77 0 141 34t110.5 88.5t72.5 124t26 141.5q0 62 -17.5 113t-51 87.5t-81 56.5t-107.5 20q-77 0 -141 -34t-110.5 -88.5t-72.5 -124t-26 -141.5q0 -62 17.5 -113t51 -87.5t81 -56.5t107.5 -20zM301 24q-39 0 -67 16.5t-46 45t-27 67t-9 82.5q0 79 21 148
t55.5 120t79.5 80.5t94 29.5q38 0 66 -16.5t46.5 -45t27.5 -67t9 -82.5q0 -80 -21 -149t-55.5 -120t-79.5 -80t-94 -29z" />
    <glyph glyph-name="P" unicode="P" horiz-adv-x="603" 
d="M-32 0h324l7 32l-114 20l47 227q20 -5 46 -8t52 -3q56 0 103 16t80.5 44t52.5 66.5t19 82.5q0 79 -56.5 119.5t-165.5 40.5h-262l-7 -32l107 -20l-110 -533l-116 -20zM307 312q-20 0 -36.5 1.5t-30.5 3.5l57 275l25 4t30 2q60 0 94.5 -30.5t34.5 -88.5q0 -36 -10 -66.5
t-31 -53t-54 -35t-79 -12.5z" />
    <glyph glyph-name="Q" unicode="Q" horiz-adv-x="704" 
d="M452 -209h67l9 32q-35 6 -62.5 12.5t-50.5 25.5q-26 20 -42 51t-36 79q70 7 128.5 42t100.5 88.5t65.5 119t23.5 133.5q0 62 -17.5 113t-51 87.5t-81 56.5t-107.5 20q-77 0 -141 -34t-110.5 -88.5t-72.5 -124t-26 -141.5q0 -107 50.5 -177.5t141.5 -90.5l28 -78
q16 -45 29 -65t26 -31q11 -9 22.5 -15t26 -9.5t34 -4.5t46.5 -1zM301 23q-39 0 -67 16.5t-46 45t-27 67.5t-9 83q0 79 21 148t55.5 120t79.5 80.5t94 29.5q38 0 66 -16.5t46.5 -45t27.5 -67t9 -82.5q0 -80 -21 -149t-55.5 -120t-79.5 -80.5t-94 -29.5z" />
    <glyph glyph-name="R" unicode="R" horiz-adv-x="657" 
d="M-32 0h314l7 32l-104 20l49 239h47q17 0 29 -3t21 -10.5t15.5 -21t12.5 -35.5l31 -115q9 -33 17.5 -54t20.5 -32.5t28.5 -15.5t41.5 -4h103l8 33q-20 2 -33 3.5t-23 4.5t-17.5 8t-15.5 13q-19 19 -30.5 55.5l-25.5 84.5q-12 43 -29.5 65.5t-50.5 34.5l1 11q46 9 84 25.5
t65 40.5t42 54.5t15 68.5q0 66 -53.5 100.5t-148.5 34.5h-288l-7 -32l107 -20l-110 -533l-116 -20zM243 333l54 259q11 2 28.5 4t35.5 2q59 0 92 -26.5t33 -77.5q0 -34 -11.5 -63.5t-34 -51t-55 -34t-74.5 -12.5h-68z" />
    <glyph glyph-name="S" unicode="S" horiz-adv-x="527" 
d="M-2 -7l31 -1l35 31q28 -14 70.5 -25t93.5 -11q39 0 78 12.5t69.5 37t49.5 61.5t19 85q0 30 -8 55t-24.5 47t-41.5 42.5t-59 41.5q-31 19 -52.5 34.5t-35 31.5t-20 33.5t-6.5 40.5q0 46 27.5 76.5t78.5 30.5q46 0 79.5 -37.5t51.5 -125.5l33 1l31 191l-31 1l-34 -31
q-20 14 -53.5 24t-71.5 10q-44 0 -80 -13.5t-62.5 -37.5t-41 -57t-14.5 -72q0 -58 34 -97.5t95 -77.5q32 -20 54 -37.5t36 -35.5t20.5 -37t6.5 -43q0 -52 -31 -87t-84 -35q-33 0 -60 10t-48 32.5t-36 59.5t-23 91l-33 -1z" />
    <glyph glyph-name="T" unicode="T" horiz-adv-x="632" 
d="M87 0h332l6 32l-115 20l112 542h67q39 0 60.5 -13t39.5 -53l33 -77l22 6l2 180h-523l-65 -180l19 -6l62 77q17 21 31.5 34t28.5 20t29 9.5t34 2.5h66l-112 -542l-124 -20z" />
    <glyph glyph-name="U" unicode="U" horiz-adv-x="733" 
d="M338 -16q109 0 173 56t86 161l80 375l94 29l7 32h-229l-8 -32l84 -29l-76 -359q-17 -81 -61.5 -124.5t-124.5 -43.5q-94 0 -127.5 54.5t-13.5 149.5l70 332l117 20l6 32h-320l-8 -32l108 -20l-70 -334q-27 -129 31 -198t182 -69z" />
    <glyph glyph-name="V" unicode="V" horiz-adv-x="678" 
d="M259 -6h43l343 582l93 29l6 32h-219l-7 -32l70 -29l-259 -458l-67 467l107 20l6 32h-305l-7 -32l98 -25z" />
    <glyph glyph-name="W" unicode="W" horiz-adv-x="973" 
d="M223 -6h39l265 469l61 -469h39l309 583l90 28l6 32h-219l-5 -32l73 -28l-226 -453l-53 463l101 18l5 32h-266l-6 -32l75 -23l7 -47l-225 -409l-32 461l90 18l6 32h-280l-5 -32l93 -23z" />
    <glyph glyph-name="X" unicode="X" horiz-adv-x="705" 
d="M-31 0h226l7 29l-70 25l200 225l104 -232l-96 -18l-6 -29h285l7 32l-88 24l-143 286l224 234l98 29l7 32h-225l-8 -30l69 -25l-183 -208l-94 215l96 18l6 30h-286l-7 -32l89 -25l134 -270l-240 -249l-99 -29z" />
    <glyph glyph-name="Y" unicode="Y" horiz-adv-x="659" 
d="M106 0h326l6 32l-111 20l51 240l247 284l94 29l7 32h-233l-7 -32l77 -26l-205 -250l-104 258l100 18l8 32h-294l-8 -32l89 -23l132 -299l-48 -231l-120 -20z" />
    <glyph glyph-name="Z" unicode="Z" horiz-adv-x="645" 
d="M-8 0h506l64 185l-20 4l-92 -102q-12 -14 -22 -22t-22 -13t-26.5 -6.5t-35.5 -1.5h-221l515 573l1 20h-477l-57 -163l20 -7l75 75q16 16 29.5 26t27 16t29 8t35.5 2h185l-514 -574v-20z" />
    <glyph glyph-name="bracketleft" unicode="[" horiz-adv-x="323" 
d="M-8 -179h254l8 40h-177l176 843h177l9 40h-254z" />
    <glyph glyph-name="backslash" unicode="\" horiz-adv-x="455" 
d="M378 -210l51 22l-164 460l-157 469l-51 -21l164 -461z" />
    <glyph glyph-name="bracketright" unicode="]" horiz-adv-x="291" 
d="M-121 -179h254l193 923h-254l-8 -40h177l-176 -843h-177z" />
    <glyph glyph-name="asciicircum" unicode="^" horiz-adv-x="307" 
d="M91 524l129 103l87 -103l24 19l-76 177h-30l-153 -177z" />
    <glyph glyph-name="underscore" unicode="_" horiz-adv-x="440" 
d="M-2 0h444v46h-444v-46z" />
    <glyph glyph-name="grave" unicode="`" horiz-adv-x="246" 
d="M220 530l23 10l-21 96.5t-21 68.5q-8 17 -22.5 23t-31.5 -2t-23.5 -24.5t1.5 -35.5q4 -11 14 -26.5l22.5 -33.5t28 -37.5z" />
    <glyph glyph-name="a" unicode="a" horiz-adv-x="509" 
d="M145 -10q45 0 78.5 26.5t74.5 70.5l10 -3q-10 -45 2 -70t47 -25q26 0 56 12t60 30l-2 17q-34 -1 -53.5 0.5t-28.5 6.5t-10 14t2 22l87 394l-22 8l-48 -58q-16 12 -35.5 20.5t-49.5 8.5q-49 0 -100 -31t-93 -79.5t-68.5 -109t-26.5 -119.5q0 -65 33 -100t87 -35zM185 56
q-31 0 -52.5 22.5t-21.5 73.5t14 97.5t38 82.5t55 57.5t65 21.5q25 0 45 -12.5t36 -31.5l-50 -228q-23 -23 -41 -39t-33 -25.5t-28 -14t-27 -4.5z" />
    <glyph glyph-name="b" unicode="b" horiz-adv-x="507" 
d="M180 -11q52 0 105 28.5t95.5 74.5t69 104t26.5 117q0 36 -10 64t-27 47.5t-40 29.5t-49 10q-41 0 -76 -22.5t-70 -57.5l-10 3l77 344l-7 9l-180 -52l-2 -24l91 -22l-134 -612q28 -17 62.5 -29t78.5 -12zM222 42q-28 0 -52 8.5t-43 20.5l55 255q36 37 65.5 56t57.5 19
q36 0 60.5 -29t24.5 -89q0 -50 -14.5 -93.5t-38 -76.5t-54 -52t-61.5 -19z" />
    <glyph glyph-name="c" unicode="c" horiz-adv-x="429" 
d="M200 -10q58 0 104 28.5t74 70.5l-21 16q-28 -24 -56.5 -38.5t-60.5 -14.5q-23 0 -44.5 7.5t-38 23.5t-26 41.5t-9.5 61.5q0 42 13 85.5t38 78t60 56.5t79 22q-8 -24 -8 -47q0 -29 14 -44.5t38 -15.5q22 0 37 18.5t15 42.5q0 30 -26 56t-77 26q-55 0 -104.5 -26.5
t-86.5 -69t-58.5 -96.5t-21.5 -108q0 -38 12.5 -70t35 -55t53 -36t65.5 -13z" />
    <glyph glyph-name="d" unicode="d" horiz-adv-x="519" 
d="M154 -11q22 0 42 7.5t38.5 21t36.5 31.5l37 38l10 -3q-10 -45 2 -70t47 -25q26 0 56 12t60 30l-2 17q-34 -1 -53.5 0.5t-28.5 6.5t-10 14t2 22l141 640l-7 9l-180 -52l-2 -24l91 -22l-40 -189q-14 4 -32 7.5t-38 3.5q-53 0 -105.5 -28.5t-95 -74.5t-69 -104t-26.5 -117
q0 -36 10 -64t27 -47.5t40 -29.5t49 -10zM193 55q-32 0 -55.5 27.5t-23.5 87.5q0 49 14.5 93t38 77t53.5 52t62 19q29 0 52.5 -9.5t42.5 -23.5l-53 -239q-44 -42 -74 -63t-57 -21z" />
    <glyph glyph-name="e" unicode="e" horiz-adv-x="438" 
d="M122 212q139 -6 216.5 33t77.5 119q0 44 -33.5 72t-91.5 28q-57 0 -104.5 -29.5t-82 -74.5t-54 -99.5t-19.5 -104.5q0 -78 46 -122.5t121 -44.5q64 0 110 29t72 70l-19 14q-28 -25 -57 -38.5t-64 -13.5t-59.5 12t-39 33.5t-19 51t-0.5 65.5zM126 245q8 40 23 74.5
t34.5 59.5t43 39t49.5 14q28 0 45 -17.5t17 -46.5q0 -68 -56 -101t-156 -22z" />
    <glyph glyph-name="f" unicode="f" horiz-adv-x="310" 
d="M-47 -219q57 0 107 48q23 22 39 44.5t28 51.5t21.5 68t19.5 94l53 305h112l10 51h-113l9 50q18 100 50 152.5t80 54.5q8 -39 27.5 -59t46.5 -20q25 0 39 14.5t14 34.5q0 13 -6 25.5t-18.5 22.5t-31 16.5t-43.5 6.5q-68 0 -123 -42q-25 -19 -44 -40.5t-32.5 -48t-23.5 -59
t-17 -72.5l-5 -31l-110 -28l-6 -28h105l-71 -409q-11 -56 -23.5 -92.5t-32.5 -58.5q-15 22 -33.5 35.5t-42.5 13.5q-25 0 -40 -13t-15 -33t17.5 -37t52.5 -17z" />
    <glyph glyph-name="g" unicode="g" horiz-adv-x="483" 
d="M183 -218q42 0 82 10.5t70.5 30.5t49 48.5t18.5 64.5q0 51 -45.5 85.5t-144.5 57.5q-25 5 -30 18t2 48q16 -3 32 -3q46 0 84 15t65.5 40t42.5 58.5t15 70.5q0 22 -7 41.5t-20 36.5l60 24q5 -20 15.5 -31.5t26.5 -11.5q23 0 33.5 15.5t10.5 35.5t-13 33t-37 13
q-26 0 -55 -20.5t-52 -45.5q-21 22 -52 35t-68 13q-43 0 -81 -15t-66 -41t-44 -60t-16 -71q0 -44 23.5 -74t58.5 -45l-28 -110q-75 -24 -114.5 -59.5t-39.5 -82.5q0 -27 18.5 -50t49.5 -39.5t71.5 -25.5t84.5 -9zM224 170q-38 0 -60.5 26.5t-22.5 77.5q0 37 12.5 72.5
t35.5 58.5q14 14 31 22t38 8q39 0 61.5 -24.5t22.5 -74.5q0 -42 -13.5 -77.5t-35.5 -57.5q-15 -14 -32.5 -22.5t-36.5 -8.5zM192 -183q-31 0 -58.5 6.5t-48.5 19t-33 31t-12 42.5q0 29 20 56.5t64 50.5q58 -11 97.5 -22.5t63.5 -25.5t34 -30t10 -35q0 -44 -38.5 -68.5
t-98.5 -24.5z" />
    <glyph glyph-name="h" unicode="h" horiz-adv-x="532" 
d="M380 -11q26 0 60 12t64 30l-2 17q-33 0 -52.5 1.5t-29 6t-11 12.5t1.5 20l53 221q17 74 -7 114.5t-85 40.5q-42 0 -83.5 -29.5t-89.5 -74.5l-9 2l81 369l-7 9l-180 -52l-2 -24l91 -22l-141 -642h79l69 314q53 42 86 60.5t61 18.5q37 0 52.5 -24.5t3.5 -76.5l-47 -200
q-3 -12 -5.5 -27t-3.5 -26q0 -20 11.5 -35t41.5 -15z" />
    <glyph glyph-name="i" unicode="i" horiz-adv-x="284" 
d="M212 580q15 0 27.5 7.5t22 19.5t14.5 27.5t5 31.5q0 25 -12.5 36.5t-32.5 11.5q-15 0 -28 -7.5t-22 -19.5t-14.5 -27t-5.5 -31q0 -25 13 -37t33 -12zM107 -11q26 0 61 12t65 30l-2 17q-32 0 -50.5 1.5t-28.5 5.5t-11.5 12t1.5 21l85 374l-8 8l-170 -52l-2 -24l82 -22
l-70 -312q-6 -27 5 -49t43 -22z" />
    <glyph glyph-name="j" unicode="j" horiz-adv-x="265" 
d="M202 580q15 0 27.5 7.5t22 19.5t14.5 27.5t5 31.5q0 25 -12.5 36.5t-32.5 11.5q-15 0 -28 -7.5t-22 -19.5t-14.5 -27t-5.5 -31q0 -25 13 -37t33 -12zM-68 -219q31 0 57.5 12.5t49.5 35.5q21 21 37.5 43t29.5 51.5t23.5 69t21.5 94.5l73 375l-8 8l-169 -52l-2 -24l85 -24
l-76 -390q-12 -57 -26 -92.5t-32 -54.5q-13 19 -32.5 30t-37.5 11q-26 0 -40 -13t-14 -31q0 -20 15 -34.5t45 -14.5z" />
    <glyph glyph-name="k" unicode="k" horiz-adv-x="487" 
d="M358 -11q26 0 54.5 12t57.5 30l-2 17q-33 -2 -52.5 0.5t-30 8t-15.5 14.5t-8 21q-8 29 -15 51.5t-18 47.5t-31 39.5t-65 17.5l1 9q52 16 92 31.5t67 33t41 39t14 49.5q0 23 -12.5 39.5t-37.5 16.5q-23 0 -41 -18.5t-18 -49.5q0 -14 2.5 -24t9.5 -25q-19 -20 -66 -45
t-117 -42l103 469l-7 9l-180 -52l-2 -24l91 -22l-141 -642h79l50 228q29 -2 47.5 -7t31 -21t22 -46t20.5 -82q11 -51 29 -67t47 -16z" />
    <glyph glyph-name="l" unicode="l" horiz-adv-x="274" 
d="M98 -11q26 0 61.5 12t64.5 30l-2 17q-32 0 -50.5 1.5t-28.5 5.5t-11.5 12t1.5 21l143 643l-7 9l-179 -52l-2 -24l90 -22l-128 -582q-6 -28 5 -49.5t43 -21.5z" />
    <glyph glyph-name="m" unicode="m" horiz-adv-x="817" 
d="M655 -11q26 0 60 12t64 30l-2 17q-33 0 -52.5 1.5t-29 6t-11 12.5t1.5 20l54 224q17 72 -6.5 112t-80.5 40q-38 0 -81 -30t-91 -76l-10 2q2 46 -20.5 75t-69.5 29q-42 0 -85 -31t-91 -76l-10 2l27 103l-8 8l-169 -52l-2 -24l82 -22l-83 -372h79l69 314q46 38 82 58.5
t62 20.5q35 0 49 -25t3 -73l-67 -295h79l70 317q45 36 80 56t59 20q35 0 48.5 -25t2.5 -73l-47 -203q-3 -12 -5.5 -27t-3.5 -26q0 -20 11.5 -35t41.5 -15z" />
    <glyph glyph-name="n" unicode="n" horiz-adv-x="542" 
d="M390 -11q26 0 60 12t64 30l-2 17q-33 0 -52.5 1.5t-29 6t-11 12.5t1.5 20l53 221q17 74 -7 114.5t-85 40.5q-39 0 -82.5 -29.5t-94.5 -77.5l-10 2l27 103l-8 8l-169 -52l-2 -24l82 -22l-83 -372h79l69 314q53 42 86 60.5t61 18.5q37 0 52.5 -24.5t3.5 -76.5l-47 -200
q-3 -12 -5.5 -27t-3.5 -26q0 -20 11.5 -35t41.5 -15z" />
    <glyph glyph-name="o" unicode="o" horiz-adv-x="492" 
d="M187 -11q59 0 109 27.5t86 71.5t56.5 99t20.5 109q0 41 -12.5 72.5t-33.5 52.5t-49 32t-59 11q-59 0 -109 -27.5t-86 -71.5t-56.5 -99t-20.5 -109q0 -41 12 -72.5t33 -52.5t49 -32t60 -11zM222 35q-47 0 -74 38.5t-27 104.5q0 40 10.5 83t29.5 77.5t46.5 57t62.5 22.5
q47 0 74 -38.5t27 -104.5q0 -41 -10.5 -83.5t-29.5 -77t-47 -57t-62 -22.5z" />
    <glyph glyph-name="p" unicode="p" horiz-adv-x="517" 
d="M-77 -210h238l6 27l-81 25l34 155q12 -4 32.5 -6t37.5 -2q52 0 105 28.5t95.5 74.5t69 104t26.5 117q0 36 -10 64t-27 47.5t-40 29.5t-49 10q-45 0 -80.5 -27.5t-73.5 -69.5l-10 3l26 92l-8 8l-169 -52l-2 -24l82 -22l-118 -530l-77 -22zM232 42q-28 0 -52 8.5t-43 20.5
l53 245q44 42 74 62t57 20q32 0 55.5 -27.5t23.5 -87.5q0 -50 -14.5 -93.5t-38 -76.5t-54 -52t-61.5 -19z" />
    <glyph glyph-name="q" unicode="q" horiz-adv-x="507" 
d="M162 -210h237l5 30l-66 21l140 644l-22 8l-46 -51q-17 10 -38.5 16t-47.5 6q-53 0 -105.5 -28.5t-95 -74.5t-69 -104t-26.5 -117q0 -36 10 -64t27 -47.5t40 -29.5t49 -10q45 0 81 28.5t68 66.5l10 -3l-54 -239l-92 -25zM193 55q-32 0 -55.5 27.5t-23.5 87.5q0 49 14.5 93
t38 77t53.5 52t62 19q30 0 53 -9.5t42 -24.5l-53 -238q-44 -42 -74 -63t-57 -21z" />
    <glyph glyph-name="r" unicode="r" horiz-adv-x="408" 
d="M42 0h79l65 300q31 36 55.5 56.5t49.5 33.5q14 -16 29 -25.5t32 -9.5q21 0 38 15.5t17 41.5q0 25 -15 39.5t-43 14.5q-38 0 -72.5 -31t-74.5 -84l-10 3l25 108l-8 8l-164 -52l-2 -24l82 -22z" />
    <glyph glyph-name="s" unicode="s" horiz-adv-x="398" 
d="M172 -10q33 0 63.5 10.5t54 30t37.5 46t14 58.5q0 41 -21 68t-72 56l-27 16q-38 22 -54 38.5t-16 41.5q0 28 24 48.5t59 20.5q8 0 16.5 -2l17.5 -4q5 -44 21.5 -61t38.5 -17q20 0 32 14t12 34q0 13 -7.5 26t-22.5 24t-38.5 18t-56.5 7q-34 0 -64 -11.5t-52.5 -31
t-36 -44.5t-13.5 -52q0 -45 24.5 -70.5t66.5 -48.5l27 -16q40 -23 55 -42t15 -45q0 -33 -27 -53t-65 -20q-25 0 -45 5.5t-35 14.5q17 43 7 70.5t-42 27.5q-20 0 -36 -17.5t-16 -46.5q0 -39 43.5 -66t118.5 -27z" />
    <glyph glyph-name="t" unicode="t" horiz-adv-x="346" 
d="M145 -8q38 0 73 13t73 33v20q-16 -2 -32 -2.5t-28 -0.5q-53 0 -68 12q-14 11 -14.5 29t5.5 44l56 252h127l11 51h-127l28 125l-45 9l-48 -104l-94 -57l-5 -24h74l-66 -295q-12 -54 9 -79.5t71 -25.5z" />
    <glyph glyph-name="u" unicode="u" horiz-adv-x="542" 
d="M156 -11q39 0 83 30t95 77l10 -2q-5 -20 -7 -39t2.5 -33.5t16.5 -23.5t34 -9q26 0 56.5 12t60.5 30l-2 17q-33 0 -52.5 1.5t-29 6t-11 12t1.5 19.5l82 375l-8 8l-170 -52l-2 -24l82 -23l-50 -232q-53 -42 -86 -60.5t-61 -18.5q-37 0 -52.5 24.5t-3.5 76.5l69 301l-8 8
l-170 -52l-1 -24l83 -23l-54 -227q-18 -74 6.5 -114.5t85.5 -40.5z" />
    <glyph glyph-name="v" unicode="v" horiz-adv-x="502" 
d="M175 -20q61 57 116 114.5t97 111t66.5 102t24.5 88.5q0 32 -14.5 50t-36.5 18q-25 0 -41.5 -19t-16.5 -53q0 -35 23 -84q-19 -48 -56 -101t-94 -116l-9 2q0 46 -2.5 92.5t-7.5 88.5t-11.5 77t-13.5 59q-8 26 -23 40t-41 14q-13 0 -28 -6.5t-30 -16.5t-29.5 -22.5
t-24.5 -24.5l7 -17q37 12 53 12q17 0 25.5 -9t13.5 -28q7 -24 13 -54.5t11 -69.5t8.5 -88.5t6.5 -110.5l-15 -32z" />
    <glyph glyph-name="w" unicode="w" horiz-adv-x="738" 
d="M179 -17q54 58 110 128t100 141q9 -59 18.5 -115.5l17.5 -107.5l-13 -34l29 -12q53 51 102.5 105t87.5 107.5t61 103.5t23 94q0 33 -14 52t-39 19q-21 0 -38 -17t-17 -52q0 -18 7 -40t18 -45q-13 -45 -44.5 -98.5t-82.5 -118.5l-9 2q-6 46 -13.5 95.5l-14.5 98.5
l-14 95.5t-11 85.5h-5l-74 -40q6 -52 15 -107q-29 -58 -63 -113.5t-73 -111.5l-9 2q0 44 -2.5 89t-7 86t-11 76t-13.5 59q-8 27 -23.5 40.5t-41.5 13.5q-13 0 -28 -6.5t-30 -16.5t-29.5 -22.5t-24.5 -24.5l7 -17q36 12 55 12q15 0 23.5 -8.5t13.5 -27.5q7 -24 13 -54.5
t11 -69.5t9 -89.5t7 -115.5l-12 -29z" />
    <glyph glyph-name="x" unicode="x" horiz-adv-x="499" 
d="M54 -13q17 0 33 7.5t34.5 27.5t42.5 56t56 92l11 -1q14 -56 25 -91t23 -55t27 -27t36 -7q22 0 47.5 15t49.5 38l-5 17q-26 -3 -42 -3.5t-26.5 3.5t-17 13t-13.5 25l-14.5 35t-12.5 32.5t-11.5 34t-11.5 40.5q32 53 63 94.5t52 58.5q11 -13 22.5 -20t26.5 -7q20 0 36 15
t16 38q0 21 -14 34.5t-40 13.5q-18 0 -34.5 -7t-35 -27t-42 -55t-55.5 -90l-8 1q-16 58 -28 92.5t-24 53t-26.5 24.5t-34.5 6t-47 -14.5t-53 -37.5l6 -18q25 4 41 4t26.5 -4.5t17.5 -14t15 -24.5l13.5 -30t12 -31l11.5 -34.5l14 -42.5l-34 -51.5l-32.5 -45t-29 -35.5
t-23.5 -22q-11 12 -22 18t-26 6q-22 0 -37 -15.5t-15 -37.5q0 -20 16 -33.5t41 -13.5z" />
    <glyph glyph-name="y" unicode="y" horiz-adv-x="482" 
d="M27 -219q29 0 53.5 15t50.5 38q45 38 90.5 108.5t89 154.5l85 171.5l79.5 161.5l-80 40h-4l-21.5 -74.5t-28.5 -93.5l-34.5 -103t-37.5 -102h-10q-8 89 -21 161.5t-31 135.5q-11 40 -28.5 55t-46.5 15q-13 0 -27.5 -5.5t-29 -15t-28 -22t-25.5 -27.5l8 -17q17 5 28.5 8
t20.5 3q19 0 30.5 -10t22.5 -43q9 -27 19 -67.5t19.5 -88t17.5 -99.5t13 -103q-29 -51 -64.5 -90t-78.5 -62q2 38 -11.5 63.5t-39.5 25.5q-23 0 -37.5 -17.5t-14.5 -43.5q0 -29 18.5 -50.5t53.5 -21.5z" />
    <glyph glyph-name="z" unicode="z" horiz-adv-x="462" 
d="M319 -11q12 0 23 6t21.5 21.5t22.5 42.5t27 68l-17 8q-23 -25 -38.5 -40t-29.5 -21.5t-30 -7t-40 3.5l-127 19l347 368l-26 20l-69 -48l-71 19q-28 7 -60 11.5t-59 4.5q-34 0 -52 -8t-36 -25q-29 -27 -39.5 -46t-10.5 -39q0 -22 14.5 -39.5t34.5 -17.5t32 12.5t12 31.5
q0 31 -38 52v6q5 3 15 5t27 2q37 0 83.5 -3.5t113.5 -11.5l-352 -373l26 -20l64 48l128 -33q32 -8 56.5 -12t47.5 -4z" />
    <glyph glyph-name="braceleft" unicode="{" horiz-adv-x="388" 
d="M309 -171l6 31q-44 8 -71.5 21.5t-41 36t-14.5 54.5t8 76l12 68q8 44 5 72.5t-16 46.5t-36.5 27.5t-55.5 16.5l2 10q35 7 62.5 17.5t48 28.5t34.5 46.5t23 72.5l20 97q9 44 21.5 72.5t33.5 46t52 26.5t78 14l6 31q-64 1 -110.5 -7t-79 -30t-53 -61t-32.5 -100l-21 -105
q-7 -34 -18.5 -57.5t-30 -39t-45.5 -24.5t-65 -13l-7 -38q36 -5 60 -13.5t36.5 -24t15 -39t-4.5 -57.5l-13 -70q-12 -61 -7.5 -103.5t28 -70.5t65.5 -42t105 -17z" />
    <glyph glyph-name="bar" unicode="|" horiz-adv-x="294" 
d="M118 -241h58l-5 471l5 471h-58l5 -471z" />
    <glyph glyph-name="braceright" unicode="}" horiz-adv-x="388" 
d="M-97 -171q64 -1 110 7t78.5 30t53.5 61t33 100l20 105q7 34 18.5 57.5t30 39t45.5 24t65 13.5l8 38q-36 4 -60 13t-37 24t-15.5 38.5t4.5 58.5l14 70q12 61 7.5 104t-28 70.5t-65.5 41.5t-105 17l-6 -31q43 -8 70.5 -21.5t41 -36t14.5 -54.5t-7 -76l-13 -68
q-8 -44 -5 -72.5t16.5 -46.5t37 -27.5t55.5 -16.5l-2 -10q-35 -8 -62.5 -18t-48 -28t-35 -46.5t-23.5 -72.5l-19 -97q-9 -44 -21.5 -72.5t-33.5 -46t-52.5 -26.5t-77.5 -14z" />
    <glyph glyph-name="asciitilde" unicode="~" horiz-adv-x="371" 
d="M78 249q19 34 29.5 47.5t24.5 13.5q12 0 27.5 -7.5l33 -16.5t36 -16.5t37.5 -7.5q36 0 60 29t44 92l-28 7q-20 -34 -30.5 -47.5t-24.5 -13.5q-12 0 -27.5 7.5l-33 16.5t-36 16.5t-37.5 7.5q-36 0 -60 -29t-44 -92z" />
    <glyph glyph-name="quotesinglbase" unicode="&#x201a;" horiz-adv-x="231" 
d="M-8 -164q36 16 68 37t56.5 46t39 53.5t14.5 60.5q0 35 -20 54.5t-47 19.5q-26 0 -46 -19.5t-20 -45.5q0 -24 13.5 -36t32.5 -12q7 0 13 2l3 1l7 -4q-7 -29 -39 -65.5t-89 -70.5z" />
    <glyph glyph-name="florin" unicode="&#x192;" horiz-adv-x="464" 
d="M-10 -185q29 0 59.5 12t53.5 35q23 22 38.5 44.5t27.5 51.5t22 68t21 94l36 175h110l11 51h-111l5 24q10 56 21 94t24 62.5t28.5 39t35.5 23.5q10 -38 33.5 -54t49.5 -16q23 0 38.5 14.5t16.5 34.5q0 28 -25 44t-63 16q-29 0 -62.5 -11t-59.5 -31q-24 -19 -42.5 -38.5
t-32 -44.5t-24 -57.5t-19.5 -76.5l-4 -17l-108 -29l-7 -28h104l-57 -285q-6 -32 -12.5 -55t-13.5 -40t-15.5 -29.5t-18.5 -22.5q-18 26 -37.5 39t-44.5 13t-40.5 -13.5t-16.5 -33.5q0 -23 20 -38t59 -15z" />
    <glyph glyph-name="quotedblbase" unicode="&#x201e;" horiz-adv-x="432" 
d="M193 -164q36 16 68 37t56.5 46t39 53.5t14.5 60.5q0 35 -20 54.5t-47 19.5q-26 0 -46 -19.5t-20 -45.5q0 -24 13.5 -36t32.5 -12q7 0 13 2l3 1l7 -4q-7 -29 -39 -65.5t-89 -70.5zM-8 -164q36 16 68 37t56.5 46t39 53.5t14.5 60.5q0 35 -20 54.5t-47 19.5q-26 0 -46 -19.5
t-20 -45.5q0 -24 13.5 -36t32.5 -12q7 0 13 2l3 1l7 -4q-7 -29 -39 -65.5t-89 -70.5z" />
    <glyph glyph-name="ellipsis" unicode="&#x2026;" horiz-adv-x="673" 
d="M548 -16q26 0 44 18t18 44t-18 44t-44 18t-44.5 -18t-18.5 -44t18.5 -44t44.5 -18zM327 -16q26 0 44 18t18 44t-18 44t-44 18t-44.5 -18t-18.5 -44t18.5 -44t44.5 -18zM106 -16q26 0 44 18t18 44t-18 44t-44 18t-44.5 -18t-18.5 -44t18.5 -44t44.5 -18z" />
    <glyph glyph-name="dagger" unicode="&#x2020;" horiz-adv-x="474" 
d="M144 -83h52l97 482l177 -6l10 49l-179 -6l54 234h-52l-43 -234l-177 6l-10 -49l179 6z" />
    <glyph glyph-name="daggerdbl" unicode="&#x2021;" horiz-adv-x="474" 
d="M144 -83h52l43 230l177 -6l10 49l-180 -6l47 219l178 -6l10 49l-180 -6l54 230h-52l-42 -230l-177 6l-10 -49l180 6l-47 -219l-178 6l-10 -49l179 6z" />
    <glyph glyph-name="circumflex" unicode="&#x2c6;" horiz-adv-x="307" 
d="M91 524l130 108l86 -108l24 19l-76 177h-30l-153 -177z" />
    <glyph glyph-name="perthousand" unicode="&#x2030;" horiz-adv-x="788" 
d="M394 -31q72 0 136 27.5t112 75t75.5 111.5t27.5 137q0 72 -27.5 136t-75.5 111.5t-112 75t-136 27.5t-136 -27.5t-112 -75t-75.5 -111.5t-27.5 -136q0 -73 27.5 -137t75.5 -111.5t112 -75t136 -27.5zM394 -2q-66 0 -124.5 25t-102 68.5t-68.5 102.5t-25 126
q0 66 25 124.5t68.5 102t102 68.5t124.5 25t124.5 -25t101.5 -68.5t68 -102t25 -124.5q0 -67 -25 -126t-68 -102.5t-101.5 -68.5t-124.5 -25zM230 146h170v21l-51 12v126h22q22 0 36 -6.5t25 -32.5l26 -57q8 -17 14.5 -28.5t14 -19.5t18 -11.5t27.5 -3.5h62v21
q-14 2 -23 5.5t-18 12.5q-11 11 -20.5 29t-20.5 44q-10 21 -26.5 36.5t-45.5 23.5v6q50 10 76 34t26 58q0 38 -31.5 64.5t-94.5 26.5h-186v-22l51 -12v-294l-51 -12v-21zM349 330v149q5 1 21 1h24q32 0 53.5 -18t21.5 -55q0 -38 -21.5 -57t-53.5 -20h-45z" />
    <glyph glyph-name="guilsinglleft" unicode="&#x2039;" horiz-adv-x="300" 
d="M181 27l31 17l-81 180l155 177l-24 20l-228 -187l-2 -18z" />
    <glyph glyph-name="OE" unicode="&#x152;" horiz-adv-x="965" 
d="M345 0h490l59 195l-18 4l-92 -105q-12 -14 -22.5 -23t-22.5 -14t-27.5 -7t-37.5 -2h-153l51 252h48q22 0 37.5 -4t25 -14t14.5 -27t7 -43l3 -31h25l59 281h-25l-15 -33q-12 -27 -24 -44t-26 -26.5t-31.5 -13t-39.5 -3.5h-49l52 248h120q24 0 39.5 -2t26 -8t18.5 -16
t17 -26l43 -79l22 7l12 171h-459q-100 0 -178.5 -30.5t-133 -83t-83.5 -121.5t-29 -146q0 -63 21.5 -111t60.5 -80t93.5 -48.5t121.5 -16.5zM358 45q-103 0 -154.5 54t-51.5 151q0 71 20.5 133t60 108.5t97.5 73.5t132 27h77l-113 -547h-68z" />
    <glyph glyph-name="quoteleft" unicode="&#x2018;" horiz-adv-x="231" 
d="M135 389q26 0 46 19t20 45q0 24 -13.5 36t-32.5 12q-7 0 -13 -2l-3 -1l-7 5q7 28 39 64.5t89 70.5l-14 21q-36 -16 -68 -37t-56.5 -46t-39 -53.5t-14.5 -59.5q0 -36 20 -55t47 -19z" />
    <glyph glyph-name="quoteright" unicode="&#x2019;" horiz-adv-x="231" 
d="M68 382q36 16 68 37t56.5 46t39 53.5t14.5 59.5q0 35 -20 54.5t-47 19.5q-26 0 -46 -19t-20 -45q0 -25 13.5 -37t32.5 -12q7 0 13 2l3 1l7 -4q-7 -28 -39 -64.5t-89 -70.5z" />
    <glyph glyph-name="quotedblleft" unicode="&#x201c;" horiz-adv-x="432" 
d="M336 389q26 0 46 19t20 45q0 24 -13.5 36t-32.5 12q-7 0 -13 -2l-3 -1l-7 5q7 28 39 64.5t89 70.5l-14 21q-36 -16 -68 -37t-56.5 -46t-39 -53.5t-14.5 -59.5q0 -36 20 -55t47 -19zM135 389q26 0 46 19t20 45q0 24 -13.5 36t-32.5 12q-7 0 -13 -2l-3 -1l-7 5
q7 28 39 64.5t89 70.5l-14 21q-36 -16 -68 -37t-56.5 -46t-39 -53.5t-14.5 -59.5q0 -36 20 -55t47 -19z" />
    <glyph glyph-name="quotedblright" unicode="&#x201d;" horiz-adv-x="432" 
d="M269 382q36 16 68 37t56.5 46t39 53.5t14.5 59.5q0 35 -20 54.5t-47 19.5q-26 0 -46 -19t-20 -45q0 -25 13.5 -37t32.5 -12q7 0 13 2l3 1l7 -4q-7 -28 -39 -64.5t-89 -70.5zM68 382q36 16 68 37t56.5 46t39 53.5t14.5 59.5q0 35 -20 54.5t-47 19.5q-26 0 -46 -19t-20 -45
q0 -25 13.5 -37t32.5 -12q7 0 13 2l3 1l7 -4q-7 -28 -39 -64.5t-89 -70.5z" />
    <glyph glyph-name="bullet" unicode="&#x2022;" horiz-adv-x="498" 
d="M248 181q28 0 53.5 10.5t44 29.5t29.5 44t11 54q0 28 -11 53t-29.5 44t-44 29.5t-53.5 10.5q-29 0 -53.5 -10.5t-43.5 -29.5t-29.5 -44t-10.5 -53q0 -29 10.5 -54t29.5 -44t43.5 -29.5t53.5 -10.5z" />
    <glyph glyph-name="endash" unicode="&#x2013;" horiz-adv-x="546" 
d="M41 220h418l11 53h-419z" />
    <glyph glyph-name="emdash" unicode="&#x2014;" horiz-adv-x="796" 
d="M41 220h668l11 53h-669z" />
    <glyph glyph-name="tilde" unicode="&#x2dc;" horiz-adv-x="339" 
d="M94 533q20 34 30.5 47.5t24.5 13.5q12 0 27 -7.5l32.5 -16.5t36 -16.5t37.5 -7.5q37 0 61 29t44 92l-28 7q-20 -34 -31 -47.5t-25 -13.5q-12 0 -27.5 7.5l-32.5 16.5t-35.5 16.5t-37.5 7.5q-37 0 -61 -29t-44 -92z" />
    <glyph glyph-name="trademark" unicode="&#x2122;" horiz-adv-x="820" 
d="M420 350h104v15l-34 17v220h11l99 -252h27l97 252h9v-223l-36 -14v-15h138v15l-44 14v229l44 13v16h-129l-15 -47l-60 -160h-6l-61 157l-17 50h-127v-16l38 -15v-224l-38 -17v-15zM167 350h149v15l-46 14v234h26q16 0 24 -6.5t22 -25.5l32 -41l12 2l-13 95h-267l-13 -95
l12 -2l33 41q14 19 22 25.5t24 6.5h29v-234l-46 -14v-15z" />
    <glyph glyph-name="guilsinglright" unicode="&#x203a;" horiz-adv-x="300" 
d="M36 27l230 189l2 18l-152 187l-30 -16l81 -179l-155 -177z" />
    <glyph glyph-name="oe" unicode="&#x153;" horiz-adv-x="765" 
d="M442 366q-17 48 -53.5 73t-84.5 25q-58 0 -107.5 -27.5t-86 -71.5t-57 -99t-20.5 -109q0 -41 12 -72.5t33 -52.5t49 -32t60 -11q59 0 106.5 27.5t82.5 71.5q17 -48 55.5 -73.5t95.5 -25.5q63 0 108.5 29t71.5 70l-19 14q-28 -25 -57 -38.5t-64 -13.5t-59.5 12t-39 33.5
t-19 51t-0.5 65.5q139 -6 216.5 33t77.5 119q0 44 -33 72t-91 28q-55 0 -99.5 -27.5t-77.5 -70.5zM453 245q8 40 23 74.5t34.5 59.5t43 39t49.5 14q28 0 45 -17.5t17 -46.5q0 -68 -56 -101t-156 -22zM222 35q-47 0 -74 38.5t-27 104.5q0 40 10.5 83t29.5 77.5t46.5 57
t62.5 22.5q47 0 74 -38.5t27 -104.5q0 -41 -10.5 -83.5t-29.5 -77t-47 -57t-62 -22.5z" />
    <glyph glyph-name="Ydieresis" unicode="&#x178;" horiz-adv-x="659" 
d="M534 730q26 0 43 18.5t17 42.5t-15 40t-39 16q-26 0 -43.5 -18.5t-17.5 -42.5t15.5 -40t39.5 -16zM346 730q26 0 43.5 18.5t17.5 42.5t-15.5 40t-39.5 16q-26 0 -43 -18.5t-17 -42.5t15 -40t39 -16zM106 0h326l6 32l-111 20l51 240l247 284l94 29l7 32h-233l-7 -32
l77 -26l-205 -250l-104 258l100 18l8 32h-294l-8 -32l89 -23l132 -299l-48 -231l-120 -20z" />
    <glyph glyph-name="exclamdown" unicode="&#xa1;" horiz-adv-x="278" 
d="M149 277q26 0 44.5 18.5t18.5 43.5q0 26 -18 44t-44 18t-44 -18t-18 -44t18 -44t43 -18zM37 -266q20 0 36 13.5t22 44.5q4 20 8.5 60.5t9.5 94.5t10 117.5t11 128.5l-26 3l-42.5 -124.5l-39 -116.5t-29 -95t-12.5 -59q-3 -34 11.5 -50.5t40.5 -16.5z" />
    <glyph glyph-name="cent" unicode="&#xa2;" horiz-adv-x="458" 
d="M183 -113l20 105q55 4 97.5 30t71.5 64l-22 16q-26 -23 -56 -38t-63 -15h-17l31 165l41 198q11 1 22 0t22 -5q-3 -44 12.5 -66.5t42.5 -22.5q18 0 31 13t13 36q0 38 -35 60t-95 23h-4l18 85l-40 4l-18 -93q-45 -9 -86 -36.5t-72 -66t-49.5 -85.5t-18.5 -96
q0 -36 10.5 -66t28.5 -51.5t43 -35t55 -16.5l-22 -103zM179 57q-32 12 -49.5 42t-17.5 81q0 39 10 75t28 66t43 52t55 32l-35 -187z" />
    <glyph glyph-name="sterling" unicode="&#xa3;" horiz-adv-x="539" 
d="M182 331h-116l-9 -44h131q1 -8 1 -15v-15q0 -47 -23 -83t-64 -77q-66 -4 -97.5 -25t-31.5 -47q0 -17 11.5 -28.5t35.5 -11.5q23 0 49.5 19.5t49.5 53.5q56 -30 107.5 -51.5t86.5 -21.5q63 0 101 44.5t59 144.5l-35 4q-11 -33 -21.5 -54.5t-23 -33.5t-27 -16.5t-32.5 -4.5
q-42 0 -87 5.5t-96 8.5l-2 12q30 19 52.5 37.5t38.5 39.5t24 48t9 65v2h139l8 44h-149q-2 21 -4.5 42t-2.5 41q0 66 25 109.5t86 60.5q15 -32 35.5 -52.5t49.5 -20.5q25 0 40.5 14t15.5 38q0 26 -25 45t-76 19t-95 -16.5t-76.5 -46.5t-50.5 -71t-18 -90q0 -19 2.5 -36.5
t4.5 -35.5z" />
    <glyph glyph-name="currency" unicode="&#xa4;" horiz-adv-x="588" 
d="M323 -14q57 0 103.5 26.5t84.5 73.5l-20 19q-39 -28 -71.5 -41t-64.5 -13q-69 0 -110 42.5t-49 119.5h254l9 40h-265q2 54 13 98h271l9 40h-267q16 43 41 77.5t54 59t61 39t63 17.5q14 -33 34.5 -53.5t49.5 -20.5q24 0 40 14.5t16 39.5q0 26 -26.5 45.5t-83.5 19.5
q-53 0 -102.5 -18t-91.5 -50t-75 -75.5t-55 -94.5h-88l-10 -40h82q-14 -46 -19 -98h-82l-9 -40h90q1 -56 17.5 -98.5t45 -71t67 -43t84.5 -14.5z" />
    <glyph glyph-name="yen" unicode="&#xa5;" horiz-adv-x="622" 
d="M103 0h288l7 32l-98 20l22 108h175l8 36h-175l17 80h174l8 37h-157l212 238l85 29l6 32h-206l-8 -32l68 -24l-191 -227l-93 233l90 18l8 32h-271l-7 -32l82 -25l106 -242h-158l-7 -37h175l-17 -80h-175l-7 -36h175l-22 -108l-107 -20z" />
    <glyph glyph-name="section" unicode="&#xa7;" horiz-adv-x="525" 
d="M171 -97q54 0 103 21.5t86 60t58.5 91.5t21.5 117q0 101 -61 189.5t-193 154.5q23 46 59.5 72.5t85.5 26.5q29 0 51.5 -8t33.5 -19q-12 -19 -13.5 -36t5 -30.5t20 -21.5t33.5 -8q24 0 39.5 16t15.5 42q0 20 -12 38t-34 31.5t-51.5 21.5t-65.5 8q-54 0 -103 -21.5t-86 -60
t-58.5 -91.5t-21.5 -117q0 -101 61 -189.5t193 -154.5q-22 -46 -59 -72.5t-85 -26.5q-29 0 -51.5 8t-34.5 19q12 19 13.5 36t-5 30.5t-20.5 21.5t-33 8q-24 0 -39.5 -16t-15.5 -42q0 -20 12 -38t34 -31.5t52 -21.5t65 -8zM350 66q-91 74 -141.5 156.5t-50.5 179.5
q0 58 16 105q91 -74 141.5 -156.5t50.5 -179.5q0 -58 -16 -105z" />
    <glyph glyph-name="dieresis" unicode="&#xa8;" horiz-adv-x="330" 
d="M317 544q26 0 43 18.5t17 42.5t-15 40t-39 16q-26 0 -43.5 -18.5t-17.5 -42.5t15.5 -40t39.5 -16zM129 544q26 0 43.5 18.5t17.5 42.5t-15.5 40t-39.5 16q-26 0 -43 -18.5t-17 -42.5t15 -40t39 -16z" />
    <glyph glyph-name="copyright" unicode="&#xa9;" horiz-adv-x="788" 
d="M393 -32q73 0 137 27.5t111.5 75t75 111.5t27.5 137q0 72 -27.5 136t-75 111.5t-111.5 75t-137 27.5q-72 0 -136 -27.5t-111.5 -75t-75 -111.5t-27.5 -136q0 -73 27.5 -137t75 -111.5t111.5 -75t136 -27.5zM393 -3q-66 0 -124 25t-101.5 68.5t-68.5 102.5t-25 126
q0 66 25 124.5t68.5 102t101.5 69t124 25.5q67 0 125 -25.5t101.5 -69t68.5 -102t25 -124.5q0 -67 -25 -126t-68.5 -102.5t-101.5 -68.5t-125 -25zM404 131q38 0 64 6.5t54 20.5l12 90l-18 5l-62 -81q-11 -5 -34 -5q-55 0 -91.5 38.5t-36.5 118.5q0 41 8.5 69.5t22.5 46
t31.5 25t35.5 7.5q38 0 64.5 -23t50.5 -76l22 2l-7 136h-20l-14 -23q-16 8 -37.5 12.5t-42.5 4.5q-42 0 -77.5 -15t-61.5 -41.5t-40.5 -61t-14.5 -73.5q0 -42 14 -75.5t39 -57.5t60.5 -37t78.5 -13z" />
    <glyph glyph-name="ordfeminine" unicode="&#xaa;" horiz-adv-x="412" 
d="M157 319q29 0 55 17t57 49l11 -2q-8 -35 3 -49.5t36 -14.5q20 0 40 8.5t42 20.5v17q-26 -1 -40.5 0.5t-21 6t-7 11t1.5 16.5l64 267l-16 4l-39 -38q-12 8 -25 13.5t-37 5.5q-35 0 -72.5 -21.5t-68.5 -56t-51 -76.5t-20 -84q0 -45 25 -69.5t63 -24.5zM186 369
q-23 0 -37 16t-14 50q0 33 10 64t27 55.5t39 39t47 14.5q18 0 31.5 -6t26.5 -19l-36 -155q-34 -33 -53.5 -46t-40.5 -13z" />
    <glyph glyph-name="guillemotleft" unicode="&#xab;" 
d="M381 27l31 17l-78 180l152 177l-24 20l-226 -187l-2 -18zM178 27l31 17l-78 180l152 177l-24 20l-225 -187l-2 -18z" />
    <glyph glyph-name="logicalnot" unicode="&#xac;" horiz-adv-x="520" 
d="M461 278l12 57h-411l-12 -57h411z" />
    <glyph glyph-name="registered" unicode="&#xae;" horiz-adv-x="418" 
d="M251 289q40 0 74 14t59 39t39.5 59t14.5 74t-14.5 74t-39.5 59t-59 39.5t-74 14.5t-74 -14.5t-59 -39.5t-39.5 -59t-14.5 -74t14.5 -74t39.5 -59t59 -39t74 -14zM251 309q-36 0 -66 12.5t-52 35t-34.5 52.5t-12.5 66t12.5 66.5t34.5 53t52 35t66 12.5t66 -12.5t52 -35
t34.5 -53t12.5 -66.5t-12.5 -66t-34.5 -52.5t-52 -35t-66 -12.5zM333 526q0 20 -17.5 34.5t-51.5 14.5h-109v-14l33 -7v-149l-33 -8v-14h105v14l-32 8v60h12q13 0 19.5 -4t11.5 -15l13 -30q8 -18 14 -25.5t24 -7.5h43v14q-11 1 -17 3t-11 7q-5 6 -10 14t-10 22
q-5 13 -13.5 19t-28.5 8v7q58 10 58 49zM291 522q0 -19 -11 -29t-28 -10h-24v74h21q19 0 30.5 -8.5t11.5 -26.5z" />
    <glyph glyph-name="macron" unicode="&#xaf;" horiz-adv-x="329" 
d="M97 557h244l13 61h-244z" />
    <glyph glyph-name="macron" unicode="&#x2c9;" horiz-adv-x="329" 
d="M97 557h244l13 61h-244z" />
    <glyph glyph-name="degree" unicode="&#xb0;" horiz-adv-x="394" 
d="M206 353q40 0 72.5 17t55 44t34.5 59.5t12 63.5q0 55 -32 85t-87 30q-40 0 -72.5 -17t-55 -44t-34.5 -59.5t-12 -63.5q0 -55 32 -85t87 -30zM218 384q-32 0 -48 22t-16 62q0 22 6 48.5t17.5 49.5t29.5 39t42 16q32 0 47.5 -22t15.5 -61q0 -22 -5.5 -48.5t-17.5 -50
t-29.5 -39.5t-41.5 -16z" />
    <glyph glyph-name="plusminus" unicode="&#xb1;" 
d="M25 -200h450v1000h-450v-1000z" />
    <glyph glyph-name="acute" unicode="&#xb4;" horiz-adv-x="246" 
d="M113 530l44.5 34.5l44.5 34l38.5 31t26.5 26.5q35 43 4 68q-16 13 -35 8t-36 -23q-11 -12 -23.5 -30.5l-26.5 -40.5l-28.5 -46.5l-28.5 -47.5z" />
    <glyph glyph-name="mu" unicode="&#xb5;" horiz-adv-x="520" 
d="M298 301l172 135l-33 40l-167 -134l-107 150l-44 -33l109 -150l-172 -135l33 -41l167 135l107 -151l45 33z" />
    <glyph glyph-name="mu" unicode="&#x3bc;" horiz-adv-x="520" 
d="M298 301l172 135l-33 40l-167 -134l-107 150l-44 -33l109 -150l-172 -135l33 -41l167 135l107 -151l45 33z" />
    <glyph glyph-name="paragraph" unicode="&#xb6;" horiz-adv-x="627" 
d="M686 617h-302q-65 0 -120 -15.5t-95 -44.5t-62.5 -71.5t-22.5 -97.5q0 -45 17 -77.5t46.5 -55t69 -35.5t84.5 -19l-65 -301h51l143 671h85l-142 -671h51l142 668l113 20zM310 245q-55 10 -90.5 44t-35.5 99q0 84 52 134t143 50z" />
    <glyph glyph-name="periodcentered" unicode="&#xb7;" horiz-adv-x="231" 
d="M116 256q26 0 44 18t18 44t-18 44t-44 18t-44.5 -18t-18.5 -44t18.5 -44t44.5 -18z" />
    <glyph glyph-name="cedilla" unicode="&#xb8;" horiz-adv-x="290" 
d="M3 -255q48 0 79 27.5t32 67.5q0 34 -23 56.5t-55 27.5l125 99l-13 23l-191 -150l11 -18q8 2 15 3.5t16 1.5q23 0 41 -16.5t19 -42.5t-15.5 -40.5t-38.5 -14.5q-8 0 -12 1.5l-9 3.5q6 7 6 18q0 12 -7 21t-21 9t-22.5 -9.5t-8.5 -23.5q0 -16 19.5 -30t52.5 -14z" />
    <glyph glyph-name="ordmasculine" unicode="&#xba;" horiz-adv-x="420" 
d="M212 316q36 0 69.5 17t59.5 45.5t41.5 67t15.5 80.5q0 63 -35 94.5t-92 31.5q-36 0 -69.5 -17t-59.5 -45.5t-41.5 -67t-15.5 -80.5q0 -63 35 -94.5t92 -31.5zM218 347q-29 0 -46 21.5t-17 69.5q0 32 8.5 64.5t23.5 59t35 43t43 16.5q29 0 46 -21.5t17 -69.5
q0 -32 -8.5 -64.5t-23.5 -59t-35 -43t-43 -16.5z" />
    <glyph glyph-name="guillemotright" unicode="&#xbb;" 
d="M238 27l229 189l2 18l-150 187l-31 -16l80 -179l-154 -177zM35 27l229 189l2 18l-150 187l-31 -16l80 -179l-153 -177z" />
    <glyph glyph-name="questiondown" unicode="&#xbf;" horiz-adv-x="394" 
d="M237 401q-26 0 -44 -18t-18 -44t18 -44t44 -18t44 18t18 44t-18 44t-44 18zM172 195q-22 0 -42.5 -6t-32.5 -14l8 -23q103 15 103 -40q0 -11 -3.5 -19t-14.5 -16t-30.5 -16.5t-52.5 -19.5q-77 -26 -116.5 -62.5t-39.5 -97.5q0 -32 13 -58.5t37 -46.5t57.5 -31t74.5 -11
q63 0 99 25.5t36 60.5q0 28 -15.5 42t-38.5 14t-40 -17.5t-17 -50.5q0 -8 0.5 -15t4.5 -16q-17 -9 -42 -9q-43 0 -72 24t-29 64q0 43 26 68t88 45q42 13 70 27t45 30t24 34.5t7 41.5q0 45 -31 69t-76 24z" />
    <glyph glyph-name="Agrave" unicode="&#xc0;" horiz-adv-x="688" 
d="M426 716l23 10l-21 96.5t-21 68.5q-8 17 -22.5 23t-31.5 -2t-23.5 -24.5t1.5 -35.5q4 -11 14 -26.5l22.5 -33.5t28 -37.5zM-67 0h221l6 32l-71 29l89 160h227l23 -170l-108 -19l-7 -32h304l7 32l-96 25l-91 586h-67l-337 -582l-93 -29zM204 267l150 271h9l36 -271h-195z
" />
    <glyph glyph-name="Aacute" unicode="&#xc1;" horiz-adv-x="688" 
d="M405 716l44.5 34.5l44.5 34l38.5 31t26.5 26.5q35 43 4 68q-16 13 -35 8t-36 -23q-11 -12 -23.5 -30.5l-26.5 -40.5l-28.5 -46.5l-28.5 -47.5zM-67 0h221l6 32l-71 29l89 160h227l23 -170l-108 -19l-7 -32h304l7 32l-96 25l-91 586h-67l-337 -582l-93 -29zM204 267
l150 271h9l36 -271h-195z" />
    <glyph glyph-name="Acircumflex" unicode="&#xc2;" horiz-adv-x="688" 
d="M306 700l130 108l86 -108l24 19l-76 177h-30l-153 -177zM-67 0h221l6 32l-71 29l89 160h227l23 -170l-108 -19l-7 -32h304l7 32l-96 25l-91 586h-67l-337 -582l-93 -29zM204 267l150 271h9l36 -271h-195z" />
    <glyph glyph-name="Atilde" unicode="&#xc3;" horiz-adv-x="688" 
d="M289 719q20 34 30.5 47.5t24.5 13.5q12 0 27 -7.5l32.5 -16.5t36 -16.5t37.5 -7.5q37 0 61 29t44 92l-28 7q-20 -34 -31 -47.5t-25 -13.5q-12 0 -27.5 7.5l-32.5 16.5t-35.5 16.5t-37.5 7.5q-37 0 -61 -29t-44 -92zM-67 0h221l6 32l-71 29l89 160h227l23 -170l-108 -19
l-7 -32h304l7 32l-96 25l-91 586h-67l-337 -582l-93 -29zM204 267l150 271h9l36 -271h-195z" />
    <glyph glyph-name="Adieresis" unicode="&#xc4;" horiz-adv-x="688" 
d="M521 730q26 0 43 18.5t17 42.5t-15 40t-39 16q-26 0 -43.5 -18.5t-17.5 -42.5t15.5 -40t39.5 -16zM333 730q26 0 43.5 18.5t17.5 42.5t-15.5 40t-39.5 16q-26 0 -43 -18.5t-17 -42.5t15 -40t39 -16zM-67 0h221l6 32l-71 29l89 160h227l23 -170l-108 -19l-7 -32h304l7 32
l-96 25l-91 586h-67l-337 -582l-93 -29zM204 267l150 271h9l36 -271h-195z" />
    <glyph glyph-name="Aring" unicode="&#xc5;" horiz-adv-x="688" 
d="M-67 0h221l6 32l-71 29l89 160h227l23 -170l-108 -19l-7 -32h304l7 32l-96 25l-88 571q35 12 55 43t20 65q0 37 -23.5 61.5t-62.5 24.5q-26 0 -47 -10t-35.5 -26.5t-22.5 -36.5t-8 -41q0 -27 12 -47.5t35 -30.5l-330 -569l-93 -29zM407 644q-18 0 -32 15.5t-14 49.5
q0 12 4 27.5t12 29.5t20 23.5t27 9.5q18 0 32 -15t14 -49q0 -12 -4 -28t-12 -30t-20 -23.5t-27 -9.5zM204 267l150 271h9l36 -271h-195z" />
    <glyph glyph-name="AE" unicode="&#xc6;" horiz-adv-x="911" 
d="M-67 0h220l6 32l-82 26l142 193h197l-41 -199l-116 -20l-7 -32h529l59 195l-18 4l-92 -105q-12 -14 -22.5 -23t-22.5 -14t-27.5 -7t-37.5 -2h-153l51 252h48q22 0 37.5 -4t25 -14t14.5 -27t7 -43l3 -31h25l59 281h-25l-15 -33q-12 -27 -24 -44t-26 -26.5t-31.5 -13
t-39.5 -3.5h-49l52 248h120q24 0 39.5 -2t26 -8t18.5 -16t17 -26l43 -79l22 7l12 171h-562l-6 -32l105 -15l-393 -529l-82 -29zM253 295l218 297h16l-62 -297h-172z" />
    <glyph glyph-name="Ccedilla" unicode="&#xc7;" horiz-adv-x="661" 
d="M234 -255q48 0 79 27.5t32 67.5q0 34 -23 56.5t-55 27.5l77 62q50 0 92.5 10t88.5 31l39 145l-20 7l-121 -138q-20 -7 -38 -9.5t-40 -2.5q-43 0 -78.5 15t-61 44t-39.5 71t-14 96q0 78 21.5 143.5t57 113.5t81.5 75t94 27q67 0 110 -43t65 -135l30 1l42 214h-29l-47 -43
q-31 18 -72.5 31t-94.5 13q-74 0 -140 -32t-115.5 -86t-78.5 -125t-29 -150q0 -61 19 -110t52.5 -83.5t80.5 -55t104 -24.5l-115 -90l11 -18q8 2 15 3.5t16 1.5q23 0 41 -16.5t19 -42.5t-15.5 -40.5t-38.5 -14.5q-8 0 -12 1.5l-9 3.5q6 7 6 18q0 12 -7 21t-21 9t-22.5 -9.5
t-8.5 -23.5q0 -16 19.5 -30t52.5 -14z" />
    <glyph glyph-name="Egrave" unicode="&#xc8;" horiz-adv-x="628" 
d="M408 716l23 10l-21 96.5t-21 68.5q-8 17 -22.5 23t-31.5 -2t-23.5 -24.5t1.5 -35.5q4 -11 14 -26.5l22.5 -33.5t28 -37.5zM-32 0h530l59 195l-18 4l-92 -105q-12 -14 -22.5 -23t-22.5 -14t-27.5 -7t-37.5 -2h-153l51 252h48q22 0 37.5 -4t25 -14t14.5 -27t7 -43l3 -31h25
l59 281h-25l-15 -33q-12 -27 -24 -44t-26 -26.5t-31.5 -13t-39.5 -3.5h-49l52 248h120q24 0 39.5 -2t26 -8t18.5 -16t17 -26l43 -79l22 7l12 171h-493l-7 -32l107 -20l-110 -533l-116 -20z" />
    <glyph glyph-name="Eacute" unicode="&#xc9;" horiz-adv-x="628" 
d="M371 716l44.5 34.5l44.5 34l38.5 31t26.5 26.5q35 43 4 68q-16 13 -35 8t-36 -23q-11 -12 -23.5 -30.5l-26.5 -40.5l-28.5 -46.5l-28.5 -47.5zM-32 0h530l59 195l-18 4l-92 -105q-12 -14 -22.5 -23t-22.5 -14t-27.5 -7t-37.5 -2h-153l51 252h48q22 0 37.5 -4t25 -14
t14.5 -27t7 -43l3 -31h25l59 281h-25l-15 -33q-12 -27 -24 -44t-26 -26.5t-31.5 -13t-39.5 -3.5h-49l52 248h120q24 0 39.5 -2t26 -8t18.5 -16t17 -26l43 -79l22 7l12 171h-493l-7 -32l107 -20l-110 -533l-116 -20z" />
    <glyph glyph-name="Ecircumflex" unicode="&#xca;" horiz-adv-x="628" 
d="M291 710l130 108l86 -108l24 19l-76 177h-30l-153 -177zM-32 0h530l59 195l-18 4l-92 -105q-12 -14 -22.5 -23t-22.5 -14t-27.5 -7t-37.5 -2h-153l51 252h48q22 0 37.5 -4t25 -14t14.5 -27t7 -43l3 -31h25l59 281h-25l-15 -33q-12 -27 -24 -44t-26 -26.5t-31.5 -13
t-39.5 -3.5h-49l52 248h120q24 0 39.5 -2t26 -8t18.5 -16t17 -26l43 -79l22 7l12 171h-493l-7 -32l107 -20l-110 -533l-116 -20z" />
    <glyph glyph-name="Edieresis" unicode="&#xcb;" horiz-adv-x="628" 
d="M499 725q26 0 43 18.5t17 42.5t-15 40t-39 16q-26 0 -43.5 -18.5t-17.5 -42.5t15.5 -40t39.5 -16zM311 725q26 0 43.5 18.5t17.5 42.5t-15.5 40t-39.5 16q-26 0 -43 -18.5t-17 -42.5t15 -40t39 -16zM-32 0h530l59 195l-18 4l-92 -105q-12 -14 -22.5 -23t-22.5 -14
t-27.5 -7t-37.5 -2h-153l51 252h48q22 0 37.5 -4t25 -14t14.5 -27t7 -43l3 -31h25l59 281h-25l-15 -33q-12 -27 -24 -44t-26 -26.5t-31.5 -13t-39.5 -3.5h-49l52 248h120q24 0 39.5 -2t26 -8t18.5 -16t17 -26l43 -79l22 7l12 171h-493l-7 -32l107 -20l-110 -533l-116 -20z
" />
    <glyph glyph-name="Igrave" unicode="&#xcc;" horiz-adv-x="416" 
d="M278 716l23 10l-21 96.5t-21 68.5q-8 17 -22.5 23t-31.5 -2t-23.5 -24.5t1.5 -35.5q4 -11 14 -26.5l22.5 -33.5t28 -37.5zM-22 0h324l7 32l-109 20l110 533l118 20l9 32h-325l-7 -32l110 -20l-111 -533l-119 -20z" />
    <glyph glyph-name="Iacute" unicode="&#xcd;" horiz-adv-x="416" 
d="M265 716l44.5 34.5l44.5 34l38.5 31t26.5 26.5q35 43 4 68q-16 13 -35 8t-36 -23q-11 -12 -23.5 -30.5l-26.5 -40.5l-28.5 -46.5l-28.5 -47.5zM-22 0h324l7 32l-109 20l110 533l118 20l9 32h-325l-7 -32l110 -20l-111 -533l-119 -20z" />
    <glyph glyph-name="Icircumflex" unicode="&#xce;" horiz-adv-x="416" 
d="M179 710l130 108l86 -108l24 19l-76 177h-30l-153 -177zM-22 0h324l7 32l-109 20l110 533l118 20l9 32h-325l-7 -32l110 -20l-111 -533l-119 -20z" />
    <glyph glyph-name="Idieresis" unicode="&#xcf;" horiz-adv-x="416" 
d="M393 730q26 0 43 18.5t17 42.5t-15 40t-39 16q-26 0 -43.5 -18.5t-17.5 -42.5t15.5 -40t39.5 -16zM205 730q26 0 43.5 18.5t17.5 42.5t-15.5 40t-39.5 16q-26 0 -43 -18.5t-17 -42.5t15 -40t39 -16zM-22 0h324l7 32l-109 20l110 533l118 20l9 32h-325l-7 -32l110 -20
l-111 -533l-119 -20z" />
    <glyph glyph-name="Ntilde" unicode="&#xd1;" horiz-adv-x="759" 
d="M342 719q20 34 30.5 47.5t24.5 13.5q12 0 27 -7.5l32.5 -16.5t36 -16.5t37.5 -7.5q37 0 61 29t44 92l-28 7q-20 -34 -31 -47.5t-25 -13.5q-12 0 -27.5 7.5l-32.5 16.5t-35.5 16.5t-37.5 7.5q-37 0 -61 -29t-44 -92zM514 -6h49l119 582l95 29l7 32h-230l-7 -32l84 -29
l-83 -402h-12l-175 361l-46 102h-197l-7 -32l83 -28l-106 -516l-95 -29l-7 -32h230l7 32l-83 29l97 472h11l220 -437z" />
    <glyph glyph-name="Ograve" unicode="&#xd2;" horiz-adv-x="704" 
d="M450 716l23 10l-21 96.5t-21 68.5q-8 17 -22.5 23t-31.5 -2t-23.5 -24.5t1.5 -35.5q4 -11 14 -26.5l22.5 -33.5t28 -37.5zM305 -14q77 0 141 34t110.5 88.5t72.5 124t26 141.5q0 62 -17.5 113t-51 87.5t-81 56.5t-107.5 20q-77 0 -141 -34t-110.5 -88.5t-72.5 -124
t-26 -141.5q0 -62 17.5 -113t51 -87.5t81 -56.5t107.5 -20zM301 24q-39 0 -67 16.5t-46 45t-27 67t-9 82.5q0 79 21 148t55.5 120t79.5 80.5t94 29.5q38 0 66 -16.5t46.5 -45t27.5 -67t9 -82.5q0 -80 -21 -149t-55.5 -120t-79.5 -80t-94 -29z" />
    <glyph glyph-name="Oacute" unicode="&#xd3;" horiz-adv-x="704" 
d="M425 716l44.5 34.5l44.5 34l38.5 31t26.5 26.5q35 43 4 68q-16 13 -35 8t-36 -23q-11 -12 -23.5 -30.5l-26.5 -40.5l-28.5 -46.5l-28.5 -47.5zM305 -14q77 0 141 34t110.5 88.5t72.5 124t26 141.5q0 62 -17.5 113t-51 87.5t-81 56.5t-107.5 20q-77 0 -141 -34
t-110.5 -88.5t-72.5 -124t-26 -141.5q0 -62 17.5 -113t51 -87.5t81 -56.5t107.5 -20zM301 24q-39 0 -67 16.5t-46 45t-27 67t-9 82.5q0 79 21 148t55.5 120t79.5 80.5t94 29.5q38 0 66 -16.5t46.5 -45t27.5 -67t9 -82.5q0 -80 -21 -149t-55.5 -120t-79.5 -80t-94 -29z" />
    <glyph glyph-name="Ocircumflex" unicode="&#xd4;" horiz-adv-x="704" 
d="M336 710l130 108l86 -108l24 19l-76 177h-30l-153 -177zM305 -14q77 0 141 34t110.5 88.5t72.5 124t26 141.5q0 62 -17.5 113t-51 87.5t-81 56.5t-107.5 20q-77 0 -141 -34t-110.5 -88.5t-72.5 -124t-26 -141.5q0 -62 17.5 -113t51 -87.5t81 -56.5t107.5 -20zM301 24
q-39 0 -67 16.5t-46 45t-27 67t-9 82.5q0 79 21 148t55.5 120t79.5 80.5t94 29.5q38 0 66 -16.5t46.5 -45t27.5 -67t9 -82.5q0 -80 -21 -149t-55.5 -120t-79.5 -80t-94 -29z" />
    <glyph glyph-name="Otilde" unicode="&#xd5;" horiz-adv-x="704" 
d="M315 719q20 34 30.5 47.5t24.5 13.5q12 0 27 -7.5l32.5 -16.5t36 -16.5t37.5 -7.5q37 0 61 29t44 92l-28 7q-20 -34 -31 -47.5t-25 -13.5q-12 0 -27.5 7.5l-32.5 16.5t-35.5 16.5t-37.5 7.5q-37 0 -61 -29t-44 -92zM305 -14q77 0 141 34t110.5 88.5t72.5 124t26 141.5
q0 62 -17.5 113t-51 87.5t-81 56.5t-107.5 20q-77 0 -141 -34t-110.5 -88.5t-72.5 -124t-26 -141.5q0 -62 17.5 -113t51 -87.5t81 -56.5t107.5 -20zM301 24q-39 0 -67 16.5t-46 45t-27 67t-9 82.5q0 79 21 148t55.5 120t79.5 80.5t94 29.5q38 0 66 -16.5t46.5 -45t27.5 -67
t9 -82.5q0 -80 -21 -149t-55.5 -120t-79.5 -80t-94 -29z" />
    <glyph glyph-name="Odieresis" unicode="&#xd6;" horiz-adv-x="704" 
d="M536 730q26 0 43 18.5t17 42.5t-15 40t-39 16q-26 0 -43.5 -18.5t-17.5 -42.5t15.5 -40t39.5 -16zM348 730q26 0 43.5 18.5t17.5 42.5t-15.5 40t-39.5 16q-26 0 -43 -18.5t-17 -42.5t15 -40t39 -16zM305 -14q77 0 141 34t110.5 88.5t72.5 124t26 141.5q0 62 -17.5 113
t-51 87.5t-81 56.5t-107.5 20q-77 0 -141 -34t-110.5 -88.5t-72.5 -124t-26 -141.5q0 -62 17.5 -113t51 -87.5t81 -56.5t107.5 -20zM301 24q-39 0 -67 16.5t-46 45t-27 67t-9 82.5q0 79 21 148t55.5 120t79.5 80.5t94 29.5q38 0 66 -16.5t46.5 -45t27.5 -67t9 -82.5
q0 -80 -21 -149t-55.5 -120t-79.5 -80t-94 -29z" />
    <glyph glyph-name="Oslash" unicode="&#xd8;" horiz-adv-x="704" 
d="M65 -29l70 78q32 -30 75.5 -46.5t94.5 -16.5q77 0 141.5 34t111 88.5t72 124t25.5 141.5q0 58 -16.5 106t-46.5 83l73 81l-27 24l-71 -79q-68 62 -169 62q-77 0 -141 -34t-110.5 -88.5t-72.5 -124t-26 -141.5q0 -57 16 -104.5t45 -84.5l-71 -80zM164 136q-12 43 -12 99
q0 79 21 148t55.5 120t79.5 80.5t94 29.5q44 0 74 -19.5t47 -54.5zM301 24q-44 0 -74 20t-48 55l359 403q13 -42 13 -100q0 -80 -21 -149t-55.5 -120t-79.5 -80t-94 -29z" />
    <glyph glyph-name="Ugrave" unicode="&#xd9;" horiz-adv-x="733" 
d="M483 716l23 10l-21 96.5t-21 68.5q-8 17 -22.5 23t-31.5 -2t-23.5 -24.5t1.5 -35.5q4 -11 14 -26.5l22.5 -33.5t28 -37.5zM338 -16q109 0 173 56t86 161l80 375l94 29l7 32h-229l-8 -32l84 -29l-76 -359q-17 -81 -61.5 -124.5t-124.5 -43.5q-94 0 -127.5 54.5
t-13.5 149.5l70 332l117 20l6 32h-320l-8 -32l108 -20l-70 -334q-27 -129 31 -198t182 -69z" />
    <glyph glyph-name="Uacute" unicode="&#xda;" horiz-adv-x="733" 
d="M464 716l44.5 34.5l44.5 34l38.5 31t26.5 26.5q35 43 4 68q-16 13 -35 8t-36 -23q-11 -12 -23.5 -30.5l-26.5 -40.5l-28.5 -46.5l-28.5 -47.5zM338 -16q109 0 173 56t86 161l80 375l94 29l7 32h-229l-8 -32l84 -29l-76 -359q-17 -81 -61.5 -124.5t-124.5 -43.5
q-94 0 -127.5 54.5t-13.5 149.5l70 332l117 20l6 32h-320l-8 -32l108 -20l-70 -334q-27 -129 31 -198t182 -69z" />
    <glyph glyph-name="Ucircumflex" unicode="&#xdb;" horiz-adv-x="733" 
d="M380 710l130 108l86 -108l24 19l-76 177h-30l-153 -177zM338 -16q109 0 173 56t86 161l80 375l94 29l7 32h-229l-8 -32l84 -29l-76 -359q-17 -81 -61.5 -124.5t-124.5 -43.5q-94 0 -127.5 54.5t-13.5 149.5l70 332l117 20l6 32h-320l-8 -32l108 -20l-70 -334
q-27 -129 31 -198t182 -69z" />
    <glyph glyph-name="Udieresis" unicode="&#xdc;" horiz-adv-x="733" 
d="M576 730q26 0 43 18.5t17 42.5t-15 40t-39 16q-26 0 -43.5 -18.5t-17.5 -42.5t15.5 -40t39.5 -16zM388 730q26 0 43.5 18.5t17.5 42.5t-15.5 40t-39.5 16q-26 0 -43 -18.5t-17 -42.5t15 -40t39 -16zM338 -16q109 0 173 56t86 161l80 375l94 29l7 32h-229l-8 -32l84 -29
l-76 -359q-17 -81 -61.5 -124.5t-124.5 -43.5q-94 0 -127.5 54.5t-13.5 149.5l70 332l117 20l6 32h-320l-8 -32l108 -20l-70 -334q-27 -129 31 -198t182 -69z" />
    <glyph glyph-name="germandbls" unicode="&#xdf;" horiz-adv-x="526" 
d="M-76 -219q57 0 107 48q23 22 39 44.5t28 51.5t21.5 67.5t19.5 94.5l69 395q19 107 59 163.5t91 56.5q35 0 55 -23t20 -66q0 -66 -41.5 -132t-129.5 -131l-1 -13q80 -72 112.5 -125.5t32.5 -100.5q0 -40 -22 -62t-51 -22q-10 0 -16.5 2l-16.5 5q4 41 -8.5 61.5t-34.5 20.5
q-20 0 -33.5 -14.5t-13.5 -34.5q0 -18 9.5 -32.5t25.5 -24.5t37 -15.5t44 -5.5q33 0 60.5 10t47.5 29.5t31.5 48t11.5 64.5q0 50 -33 110t-103 121q42 30 75 58t56 56.5t35.5 58.5t12.5 65q0 26 -9 50t-27 42t-44.5 28.5t-61.5 10.5q-70 0 -123 -41q-54 -42 -84.5 -99
t-45.5 -143l-84 -475q-11 -56 -23.5 -92.5t-32.5 -58.5q-15 22 -33.5 35.5t-42.5 13.5q-25 0 -40 -13t-15 -33t17.5 -37t52.5 -17z" />
    <glyph glyph-name="agrave" unicode="&#xe0;" horiz-adv-x="509" 
d="M343 530l23 10l-21 96.5t-21 68.5q-8 17 -22.5 23t-31.5 -2t-23.5 -24.5t1.5 -35.5q4 -11 14 -26.5l22.5 -33.5t28 -37.5zM145 -10q45 0 78.5 26.5t74.5 70.5l10 -3q-10 -45 2 -70t47 -25q26 0 56 12t60 30l-2 17q-34 -1 -53.5 0.5t-28.5 6.5t-10 14t2 22l87 394l-22 8
l-48 -58q-16 12 -35.5 20.5t-49.5 8.5q-49 0 -100 -31t-93 -79.5t-68.5 -109t-26.5 -119.5q0 -65 33 -100t87 -35zM185 56q-31 0 -52.5 22.5t-21.5 73.5t14 97.5t38 82.5t55 57.5t65 21.5q25 0 45 -12.5t36 -31.5l-50 -228q-23 -23 -41 -39t-33 -25.5t-28 -14t-27 -4.5z" />
    <glyph glyph-name="aacute" unicode="&#xe1;" horiz-adv-x="509" 
d="M310 530l44.5 34.5l44.5 34l38.5 31t26.5 26.5q35 43 4 68q-16 13 -35 8t-36 -23q-11 -12 -23.5 -30.5l-26.5 -40.5l-28.5 -46.5l-28.5 -47.5zM145 -10q45 0 78.5 26.5t74.5 70.5l10 -3q-10 -45 2 -70t47 -25q26 0 56 12t60 30l-2 17q-34 -1 -53.5 0.5t-28.5 6.5t-10 14
t2 22l87 394l-22 8l-48 -58q-16 12 -35.5 20.5t-49.5 8.5q-49 0 -100 -31t-93 -79.5t-68.5 -109t-26.5 -119.5q0 -65 33 -100t87 -35zM185 56q-31 0 -52.5 22.5t-21.5 73.5t14 97.5t38 82.5t55 57.5t65 21.5q25 0 45 -12.5t36 -31.5l-50 -228q-23 -23 -41 -39t-33 -25.5
t-28 -14t-27 -4.5z" />
    <glyph glyph-name="acircumflex" unicode="&#xe2;" horiz-adv-x="509" 
d="M240 524l130 108l86 -108l24 19l-76 177h-30l-153 -177zM145 -10q45 0 78.5 26.5t74.5 70.5l10 -3q-10 -45 2 -70t47 -25q26 0 56 12t60 30l-2 17q-34 -1 -53.5 0.5t-28.5 6.5t-10 14t2 22l87 394l-22 8l-48 -58q-16 12 -35.5 20.5t-49.5 8.5q-49 0 -100 -31t-93 -79.5
t-68.5 -109t-26.5 -119.5q0 -65 33 -100t87 -35zM185 56q-31 0 -52.5 22.5t-21.5 73.5t14 97.5t38 82.5t55 57.5t65 21.5q25 0 45 -12.5t36 -31.5l-50 -228q-23 -23 -41 -39t-33 -25.5t-28 -14t-27 -4.5z" />
    <glyph glyph-name="atilde" unicode="&#xe3;" horiz-adv-x="509" 
d="M215 533q20 34 30.5 47.5t24.5 13.5q12 0 27 -7.5l32.5 -16.5t36 -16.5t37.5 -7.5q37 0 61 29t44 92l-28 7q-20 -34 -31 -47.5t-25 -13.5q-12 0 -27.5 7.5l-32.5 16.5t-35.5 16.5t-37.5 7.5q-37 0 -61 -29t-44 -92zM145 -10q45 0 78.5 26.5t74.5 70.5l10 -3
q-10 -45 2 -70t47 -25q26 0 56 12t60 30l-2 17q-34 -1 -53.5 0.5t-28.5 6.5t-10 14t2 22l87 394l-22 8l-48 -58q-16 12 -35.5 20.5t-49.5 8.5q-49 0 -100 -31t-93 -79.5t-68.5 -109t-26.5 -119.5q0 -65 33 -100t87 -35zM185 56q-31 0 -52.5 22.5t-21.5 73.5t14 97.5t38 82.5
t55 57.5t65 21.5q25 0 45 -12.5t36 -31.5l-50 -228q-23 -23 -41 -39t-33 -25.5t-28 -14t-27 -4.5z" />
    <glyph glyph-name="adieresis" unicode="&#xe4;" horiz-adv-x="509" 
d="M442 544q26 0 43 18.5t17 42.5t-15 40t-39 16q-26 0 -43.5 -18.5t-17.5 -42.5t15.5 -40t39.5 -16zM254 544q26 0 43.5 18.5t17.5 42.5t-15.5 40t-39.5 16q-26 0 -43 -18.5t-17 -42.5t15 -40t39 -16zM145 -10q45 0 78.5 26.5t74.5 70.5l10 -3q-10 -45 2 -70t47 -25
q26 0 56 12t60 30l-2 17q-34 -1 -53.5 0.5t-28.5 6.5t-10 14t2 22l87 394l-22 8l-48 -58q-16 12 -35.5 20.5t-49.5 8.5q-49 0 -100 -31t-93 -79.5t-68.5 -109t-26.5 -119.5q0 -65 33 -100t87 -35zM185 56q-31 0 -52.5 22.5t-21.5 73.5t14 97.5t38 82.5t55 57.5t65 21.5
q25 0 45 -12.5t36 -31.5l-50 -228q-23 -23 -41 -39t-33 -25.5t-28 -14t-27 -4.5z" />
    <glyph glyph-name="aring" unicode="&#xe5;" horiz-adv-x="509" 
d="M332 542q26 0 47 10t35.5 26t22.5 36.5t8 41.5q0 38 -23.5 62t-62.5 24q-26 0 -47 -10t-35.5 -26t-22.5 -36.5t-8 -41.5q0 -38 23.5 -62t62.5 -24zM145 -10q45 0 78.5 26.5t74.5 70.5l10 -3q-10 -45 2 -70t47 -25q26 0 56 12t60 30l-2 17q-34 -1 -53.5 0.5t-28.5 6.5
t-10 14t2 22l87 394l-22 8l-48 -58q-16 12 -35.5 20.5t-49.5 8.5q-49 0 -100 -31t-93 -79.5t-68.5 -109t-26.5 -119.5q0 -65 33 -100t87 -35zM337 564q-18 0 -32 15.5t-14 49.5q0 12 4 27.5t12 30t20 24t27 9.5q18 0 32 -15.5t14 -49.5q0 -12 -4 -27.5t-12 -30t-20 -24
t-27 -9.5zM185 56q-31 0 -52.5 22.5t-21.5 73.5t14 97.5t38 82.5t55 57.5t65 21.5q25 0 45 -12.5t36 -31.5l-50 -228q-23 -23 -41 -39t-33 -25.5t-28 -14t-27 -4.5z" />
    <glyph glyph-name="ae" unicode="&#xe6;" horiz-adv-x="688" 
d="M297 78q19 -42 58 -65.5t93 -23.5q64 0 110 29t72 70l-19 14q-28 -25 -57 -38.5t-64 -13.5t-59.5 12t-39 33.5t-19 51t-0.5 65.5q139 -6 216.5 33t77.5 119q0 44 -33.5 72t-91.5 28q-34 0 -64.5 -11t-57.5 -30q-16 13 -40 27t-65 14q-32 0 -65.5 -14t-65.5 -39t-60.5 -58
t-50 -70.5t-34 -78.5t-12.5 -80q0 -66 33 -100.5t86 -34.5q43 0 76.5 24t73.5 65h2zM376 245q8 40 23 74.5t34.5 59.5t43 39t49.5 14q28 0 45 -17.5t17 -46.5q0 -68 -56 -101t-156 -22zM361 369q-38 -47 -59 -103.5t-21 -109.5q0 -22 5 -45q-35 -32 -55.5 -45t-43.5 -13
q-32 0 -53 24.5t-21 76.5q0 51 14 97t37 81t54 55.5t64 20.5q24 0 43.5 -11t35.5 -28z" />
    <glyph glyph-name="ccedilla" unicode="&#xe7;" horiz-adv-x="429" 
d="M125 -255q48 0 79 27.5t32 67.5q0 34 -23 56.5t-55 27.5l91 72q42 11 74.5 36t54.5 57l-21 16q-28 -24 -56.5 -38.5t-60.5 -14.5q-23 0 -44.5 7.5t-38 23.5t-26 41.5t-9.5 61.5q0 42 13 85.5t38 78t60 56.5t79 22q-8 -24 -8 -47q0 -29 14 -44.5t38 -15.5q22 0 37 18.5
t15 42.5q0 30 -26 56t-77 26q-55 0 -104.5 -26.5t-86.5 -69t-58.5 -96.5t-21.5 -108q0 -38 12 -69.5t34 -54.5t51 -36t64 -14h4l-120 -94l11 -18q8 2 15 3.5t16 1.5q23 0 41 -16.5t19 -42.5t-15.5 -40.5t-38.5 -14.5q-8 0 -12 1.5l-9 3.5q6 7 6 18q0 12 -7 21t-21 9
t-22.5 -9.5t-8.5 -23.5q0 -16 19.5 -30t52.5 -14z" />
    <glyph glyph-name="egrave" unicode="&#xe8;" horiz-adv-x="438" 
d="M305 530l23 10l-21 96.5t-21 68.5q-8 17 -22.5 23t-31.5 -2t-23.5 -24.5t1.5 -35.5q4 -11 14 -26.5l22.5 -33.5t28 -37.5zM122 212q139 -6 216.5 33t77.5 119q0 44 -33.5 72t-91.5 28q-57 0 -104.5 -29.5t-82 -74.5t-54 -99.5t-19.5 -104.5q0 -78 46 -122.5t121 -44.5
q64 0 110 29t72 70l-19 14q-28 -25 -57 -38.5t-64 -13.5t-59.5 12t-39 33.5t-19 51t-0.5 65.5zM126 245q8 40 23 74.5t34.5 59.5t43 39t49.5 14q28 0 45 -17.5t17 -46.5q0 -68 -56 -101t-156 -22z" />
    <glyph glyph-name="eacute" unicode="&#xe9;" horiz-adv-x="438" 
d="M276 530l44.5 34.5l44.5 34l38.5 31t26.5 26.5q35 43 4 68q-16 13 -35 8t-36 -23q-11 -12 -23.5 -30.5l-26.5 -40.5l-28.5 -46.5l-28.5 -47.5zM122 212q139 -6 216.5 33t77.5 119q0 44 -33.5 72t-91.5 28q-57 0 -104.5 -29.5t-82 -74.5t-54 -99.5t-19.5 -104.5
q0 -78 46 -122.5t121 -44.5q64 0 110 29t72 70l-19 14q-28 -25 -57 -38.5t-64 -13.5t-59.5 12t-39 33.5t-19 51t-0.5 65.5zM126 245q8 40 23 74.5t34.5 59.5t43 39t49.5 14q28 0 45 -17.5t17 -46.5q0 -68 -56 -101t-156 -22z" />
    <glyph glyph-name="ecircumflex" unicode="&#xea;" horiz-adv-x="438" 
d="M200 524l130 108l86 -108l24 19l-76 177h-30l-153 -177zM122 212q139 -6 216.5 33t77.5 119q0 44 -33.5 72t-91.5 28q-57 0 -104.5 -29.5t-82 -74.5t-54 -99.5t-19.5 -104.5q0 -78 46 -122.5t121 -44.5q64 0 110 29t72 70l-19 14q-28 -25 -57 -38.5t-64 -13.5t-59.5 12
t-39 33.5t-19 51t-0.5 65.5zM126 245q8 40 23 74.5t34.5 59.5t43 39t49.5 14q28 0 45 -17.5t17 -46.5q0 -68 -56 -101t-156 -22z" />
    <glyph glyph-name="edieresis" unicode="&#xeb;" horiz-adv-x="438" 
d="M400 544q26 0 43 18.5t17 42.5t-15 40t-39 16q-26 0 -43.5 -18.5t-17.5 -42.5t15.5 -40t39.5 -16zM212 544q26 0 43.5 18.5t17.5 42.5t-15.5 40t-39.5 16q-26 0 -43 -18.5t-17 -42.5t15 -40t39 -16zM122 212q139 -6 216.5 33t77.5 119q0 44 -33.5 72t-91.5 28
q-57 0 -104.5 -29.5t-82 -74.5t-54 -99.5t-19.5 -104.5q0 -78 46 -122.5t121 -44.5q64 0 110 29t72 70l-19 14q-28 -25 -57 -38.5t-64 -13.5t-59.5 12t-39 33.5t-19 51t-0.5 65.5zM126 245q8 40 23 74.5t34.5 59.5t43 39t49.5 14q28 0 45 -17.5t17 -46.5q0 -68 -56 -101
t-156 -22z" />
    <glyph glyph-name="igrave" unicode="&#xec;" horiz-adv-x="284" 
d="M207 530l23 10l-21 96.5t-21 68.5q-8 17 -22.5 23t-31.5 -2t-23.5 -24.5t1.5 -35.5q4 -11 14 -26.5l22.5 -33.5t28 -37.5zM107 -11q26 0 61 12t65 30l-2 17q-32 0 -50.5 1.5t-28.5 5.5t-11.5 12t1.5 21l85 374l-8 8l-170 -52l-2 -24l82 -22l-70 -312q-6 -27 5 -49t43 -22
z" />
    <glyph glyph-name="iacute" unicode="&#xed;" horiz-adv-x="284" 
d="M160 530l44.5 34.5l44.5 34l38.5 31t26.5 26.5q35 43 4 68q-16 13 -35 8t-36 -23q-11 -12 -23.5 -30.5l-26.5 -40.5l-28.5 -46.5l-28.5 -47.5zM107 -11q26 0 61 12t65 30l-2 17q-32 0 -50.5 1.5t-28.5 5.5t-11.5 12t1.5 21l85 374l-8 8l-170 -52l-2 -24l82 -22l-70 -312
q-6 -27 5 -49t43 -22z" />
    <glyph glyph-name="icircumflex" unicode="&#xee;" horiz-adv-x="284" 
d="M86 524l130 108l86 -108l24 19l-76 177h-30l-153 -177zM107 -11q26 0 61 12t65 30l-2 17q-32 0 -50.5 1.5t-28.5 5.5t-11.5 12t1.5 21l85 374l-8 8l-170 -52l-2 -24l82 -22l-70 -312q-6 -27 5 -49t43 -22z" />
    <glyph glyph-name="idieresis" unicode="&#xef;" horiz-adv-x="284" 
d="M298 544q26 0 43 18.5t17 42.5t-15 40t-39 16q-26 0 -43.5 -18.5t-17.5 -42.5t15.5 -40t39.5 -16zM110 544q26 0 43.5 18.5t17.5 42.5t-15.5 40t-39.5 16q-26 0 -43 -18.5t-17 -42.5t15 -40t39 -16zM107 -11q26 0 61 12t65 30l-2 17q-32 0 -50.5 1.5t-28.5 5.5t-11.5 12
t1.5 21l85 374l-8 8l-170 -52l-2 -24l82 -22l-70 -312q-6 -27 5 -49t43 -22z" />
    <glyph glyph-name="ntilde" unicode="&#xf1;" horiz-adv-x="542" 
d="M197 533q20 34 30.5 47.5t24.5 13.5q12 0 27 -7.5l32.5 -16.5t36 -16.5t37.5 -7.5q37 0 61 29t44 92l-28 7q-20 -34 -31 -47.5t-25 -13.5q-12 0 -27.5 7.5l-32.5 16.5t-35.5 16.5t-37.5 7.5q-37 0 -61 -29t-44 -92zM390 -11q26 0 60 12t64 30l-2 17q-33 0 -52.5 1.5
t-29 6t-11 12.5t1.5 20l53 221q17 74 -7 114.5t-85 40.5q-39 0 -82.5 -29.5t-94.5 -77.5l-10 2l27 103l-8 8l-169 -52l-2 -24l82 -22l-83 -372h79l69 314q53 42 86 60.5t61 18.5q37 0 52.5 -24.5t3.5 -76.5l-47 -200q-3 -12 -5.5 -27t-3.5 -26q0 -20 11.5 -35t41.5 -15z" />
    <glyph glyph-name="ograve" unicode="&#xf2;" horiz-adv-x="492" 
d="M308 530l23 10l-21 96.5t-21 68.5q-8 17 -22.5 23t-31.5 -2t-23.5 -24.5t1.5 -35.5q4 -11 14 -26.5l22.5 -33.5t28 -37.5zM187 -11q59 0 109 27.5t86 71.5t56.5 99t20.5 109q0 41 -12.5 72.5t-33.5 52.5t-49 32t-59 11q-59 0 -109 -27.5t-86 -71.5t-56.5 -99t-20.5 -109
q0 -41 12 -72.5t33 -52.5t49 -32t60 -11zM222 35q-47 0 -74 38.5t-27 104.5q0 40 10.5 83t29.5 77.5t46.5 57t62.5 22.5q47 0 74 -38.5t27 -104.5q0 -41 -10.5 -83.5t-29.5 -77t-47 -57t-62 -22.5z" />
    <glyph glyph-name="oacute" unicode="&#xf3;" horiz-adv-x="492" 
d="M287 530l44.5 34.5l44.5 34l38.5 31t26.5 26.5q35 43 4 68q-16 13 -35 8t-36 -23q-11 -12 -23.5 -30.5l-26.5 -40.5l-28.5 -46.5l-28.5 -47.5zM187 -11q59 0 109 27.5t86 71.5t56.5 99t20.5 109q0 41 -12.5 72.5t-33.5 52.5t-49 32t-59 11q-59 0 -109 -27.5t-86 -71.5
t-56.5 -99t-20.5 -109q0 -41 12 -72.5t33 -52.5t49 -32t60 -11zM222 35q-47 0 -74 38.5t-27 104.5q0 40 10.5 83t29.5 77.5t46.5 57t62.5 22.5q47 0 74 -38.5t27 -104.5q0 -41 -10.5 -83.5t-29.5 -77t-47 -57t-62 -22.5z" />
    <glyph glyph-name="ocircumflex" unicode="&#xf4;" horiz-adv-x="492" 
d="M199 524l130 108l86 -108l24 19l-76 177h-30l-153 -177zM187 -11q59 0 109 27.5t86 71.5t56.5 99t20.5 109q0 41 -12.5 72.5t-33.5 52.5t-49 32t-59 11q-59 0 -109 -27.5t-86 -71.5t-56.5 -99t-20.5 -109q0 -41 12 -72.5t33 -52.5t49 -32t60 -11zM222 35q-47 0 -74 38.5
t-27 104.5q0 40 10.5 83t29.5 77.5t46.5 57t62.5 22.5q47 0 74 -38.5t27 -104.5q0 -41 -10.5 -83.5t-29.5 -77t-47 -57t-62 -22.5z" />
    <glyph glyph-name="otilde" unicode="&#xf5;" horiz-adv-x="492" 
d="M188 533q20 34 30.5 47.5t24.5 13.5q12 0 27 -7.5l32.5 -16.5t36 -16.5t37.5 -7.5q37 0 61 29t44 92l-28 7q-20 -34 -31 -47.5t-25 -13.5q-12 0 -27.5 7.5l-32.5 16.5t-35.5 16.5t-37.5 7.5q-37 0 -61 -29t-44 -92zM187 -11q59 0 109 27.5t86 71.5t56.5 99t20.5 109
q0 41 -12.5 72.5t-33.5 52.5t-49 32t-59 11q-59 0 -109 -27.5t-86 -71.5t-56.5 -99t-20.5 -109q0 -41 12 -72.5t33 -52.5t49 -32t60 -11zM222 35q-47 0 -74 38.5t-27 104.5q0 40 10.5 83t29.5 77.5t46.5 57t62.5 22.5q47 0 74 -38.5t27 -104.5q0 -41 -10.5 -83.5t-29.5 -77
t-47 -57t-62 -22.5z" />
    <glyph glyph-name="odieresis" unicode="&#xf6;" horiz-adv-x="492" 
d="M419 544q26 0 43 18.5t17 42.5t-15 40t-39 16q-26 0 -43.5 -18.5t-17.5 -42.5t15.5 -40t39.5 -16zM231 544q26 0 43.5 18.5t17.5 42.5t-15.5 40t-39.5 16q-26 0 -43 -18.5t-17 -42.5t15 -40t39 -16zM187 -11q59 0 109 27.5t86 71.5t56.5 99t20.5 109q0 41 -12.5 72.5
t-33.5 52.5t-49 32t-59 11q-59 0 -109 -27.5t-86 -71.5t-56.5 -99t-20.5 -109q0 -41 12 -72.5t33 -52.5t49 -32t60 -11zM222 35q-47 0 -74 38.5t-27 104.5q0 40 10.5 83t29.5 77.5t46.5 57t62.5 22.5q47 0 74 -38.5t27 -104.5q0 -41 -10.5 -83.5t-29.5 -77t-47 -57
t-62 -22.5z" />
    <glyph glyph-name="divide" unicode="&#xf7;" horiz-adv-x="520" 
d="M296 401q24 0 41 17t17 41t-17 41t-41 17t-41 -17t-17 -41t17 -41t41 -17zM471 281l11 51h-426l-11 -51h426zM231 96q24 0 41 17t17 41t-17 41t-41 17t-41 -17t-17 -41t17 -41t41 -17z" />
    <glyph glyph-name="oslash" unicode="&#xf8;" horiz-adv-x="492" 
d="M55 -29l40 48q37 -30 92 -30q59 0 109 27.5t86 71.5t56.5 99t20.5 109q0 35 -9.5 64t-26.5 49l42 50l-25 23l-41 -49q-40 31 -94 31q-59 0 -109 -27.5t-86 -71.5t-56.5 -99t-20.5 -109q0 -37 10 -65.5t28 -50.5l-41 -48zM128 111q-8 29 -8 67q0 40 10.5 83t30 78t47 57.5
t62.5 22.5q26 0 46.5 -11t33.5 -34zM222 34q-52 0 -79 42l222 263q7 -25 7 -64q0 -41 -10.5 -83.5t-30 -77.5t-47.5 -57.5t-62 -22.5z" />
    <glyph glyph-name="ugrave" unicode="&#xf9;" horiz-adv-x="542" 
d="M319 530l23 10l-21 96.5t-21 68.5q-8 17 -22.5 23t-31.5 -2t-23.5 -24.5t1.5 -35.5q4 -11 14 -26.5l22.5 -33.5t28 -37.5zM156 -11q39 0 83 30t95 77l10 -2q-5 -20 -7 -39t2.5 -33.5t16.5 -23.5t34 -9q26 0 56.5 12t60.5 30l-2 17q-33 0 -52.5 1.5t-29 6t-11 12t1.5 19.5
l82 375l-8 8l-170 -52l-2 -24l82 -23l-50 -232q-53 -42 -86 -60.5t-61 -18.5q-37 0 -52.5 24.5t-3.5 76.5l69 301l-8 8l-170 -52l-1 -24l83 -23l-54 -227q-18 -74 6.5 -114.5t85.5 -40.5z" />
    <glyph glyph-name="uacute" unicode="&#xfa;" horiz-adv-x="542" 
d="M298 530l44.5 34.5l44.5 34l38.5 31t26.5 26.5q35 43 4 68q-16 13 -35 8t-36 -23q-11 -12 -23.5 -30.5l-26.5 -40.5l-28.5 -46.5l-28.5 -47.5zM156 -11q39 0 83 30t95 77l10 -2q-5 -20 -7 -39t2.5 -33.5t16.5 -23.5t34 -9q26 0 56.5 12t60.5 30l-2 17q-33 0 -52.5 1.5
t-29 6t-11 12t1.5 19.5l82 375l-8 8l-170 -52l-2 -24l82 -23l-50 -232q-53 -42 -86 -60.5t-61 -18.5q-37 0 -52.5 24.5t-3.5 76.5l69 301l-8 8l-170 -52l-1 -24l83 -23l-54 -227q-18 -74 6.5 -114.5t85.5 -40.5z" />
    <glyph glyph-name="ucircumflex" unicode="&#xfb;" horiz-adv-x="542" 
d="M216 524l130 108l86 -108l24 19l-76 177h-30l-153 -177zM156 -11q39 0 83 30t95 77l10 -2q-5 -20 -7 -39t2.5 -33.5t16.5 -23.5t34 -9q26 0 56.5 12t60.5 30l-2 17q-33 0 -52.5 1.5t-29 6t-11 12t1.5 19.5l82 375l-8 8l-170 -52l-2 -24l82 -23l-50 -232
q-53 -42 -86 -60.5t-61 -18.5q-37 0 -52.5 24.5t-3.5 76.5l69 301l-8 8l-170 -52l-1 -24l83 -23l-54 -227q-18 -74 6.5 -114.5t85.5 -40.5z" />
    <glyph glyph-name="udieresis" unicode="&#xfc;" horiz-adv-x="542" 
d="M420 544q26 0 43 18.5t17 42.5t-15 40t-39 16q-26 0 -43.5 -18.5t-17.5 -42.5t15.5 -40t39.5 -16zM232 544q26 0 43.5 18.5t17.5 42.5t-15.5 40t-39.5 16q-26 0 -43 -18.5t-17 -42.5t15 -40t39 -16zM156 -11q39 0 83 30t95 77l10 -2q-5 -20 -7 -39t2.5 -33.5t16.5 -23.5
t34 -9q26 0 56.5 12t60.5 30l-2 17q-33 0 -52.5 1.5t-29 6t-11 12t1.5 19.5l82 375l-8 8l-170 -52l-2 -24l82 -23l-50 -232q-53 -42 -86 -60.5t-61 -18.5q-37 0 -52.5 24.5t-3.5 76.5l69 301l-8 8l-170 -52l-1 -24l83 -23l-54 -227q-18 -74 6.5 -114.5t85.5 -40.5z" />
    <glyph glyph-name="ydieresis" unicode="&#xff;" horiz-adv-x="482" 
d="M398 544q26 0 43 18.5t17 42.5t-15 40t-39 16q-26 0 -43.5 -18.5t-17.5 -42.5t15.5 -40t39.5 -16zM210 544q26 0 43.5 18.5t17.5 42.5t-15.5 40t-39.5 16q-26 0 -43 -18.5t-17 -42.5t15 -40t39 -16zM27 -219q29 0 53.5 15t50.5 38q45 38 90.5 108.5t89 154.5l85 171.5
l79.5 161.5l-80 40h-4l-21.5 -74.5t-28.5 -93.5l-34.5 -103t-37.5 -102h-10q-8 89 -21 161.5t-31 135.5q-11 40 -28.5 55t-46.5 15q-13 0 -27.5 -5.5t-29 -15t-28 -22t-25.5 -27.5l8 -17q17 5 28.5 8t20.5 3q19 0 30.5 -10t22.5 -43q9 -27 19 -67.5t19.5 -88t17.5 -99.5
t13 -103q-29 -51 -64.5 -90t-78.5 -62q2 38 -11.5 63.5t-39.5 25.5q-23 0 -37.5 -17.5t-14.5 -43.5q0 -29 18.5 -50.5t53.5 -21.5z" />
    <glyph glyph-name="dotaccent" unicode="&#x2d9;" horiz-adv-x="172" 
d="M144 541q28 0 46.5 19.5t17.5 44.5q1 25 -15 42t-42 17q-27 0 -45 -19.5t-19 -44.5q0 -25 16 -42t41 -17z" />
    <glyph glyph-name="apple" unicode="&#xf8ff;" horiz-adv-x="694" 
d="M644 -200v921h-101l-29 79h-334l-30 -79h-100v-554q14 0 23 -9.5t9 -22.5q0 -14 -9 -23t-23 -9v-303h207l8 14h163l8 -14h208zM400 563h58v-14h-43v-66h38v-14h-38v-78h-15v172zM184 563h15v-79h47v79h15v-172h-15v79h-47v-79h-15v172zM460 394v16q4 -2 10 -4t10 -2
q16 0 16 22v137h16v-137q0 -36 -31 -36q-5 0 -11.5 1t-9.5 3zM349 438l4.5 15l4.5 15l13 -3q-2 -11 -5.5 -20.5t-7.5 -18.5l16 -30l-11 -8l-12 24h-1q-4 -9 -10.5 -16.5t-16.5 -7.5q-14 0 -22.5 11t-8.5 28q0 27 23 45q-6 11 -10 19.5t-4 19.5t7.5 21t20.5 10q14 0 20.5 -10
t6.5 -21q0 -12 -6.5 -22.5t-16.5 -19.5zM523 323h8v-24l21 24h10l-18 -20l19 -26h-9l-16 20l-7 -7v-13h-8v46zM488 292h-12v-15h-8v46h21q8 0 12 -4.5t4 -9.5q0 -12 -10 -15l12 -17h-9zM426 276q-11 0 -17 7t-6 17q0 9 6 16.5t17 7.5t17.5 -7.5t6.5 -16.5q0 -10 -6.5 -17
t-17.5 -7zM370 301l13 22h9l-18 -29v-17h-8v17l-18 29h9zM193 323h33v-7h-25v-12h22v-7h-22v-13h25v-7h-33v46zM132 323h7l25 -32v32h8v-46h-7l-25 32v-32h-8v46zM241 323h8l10 -35h1l11 35h8l10 -35h1l10 35h8l-14 -47h-8l-11 34h-1l-10 -34h-8zM327 479q15 16 15 32
q0 8 -3.5 13.5t-9.5 5.5t-10 -5.5t-4 -13.5t3.5 -15zM342 423l-20 39q-15 -15 -15 -33q0 -11 4.5 -19t12.5 -8q5 0 10.5 6.5t7.5 14.5zM488 299q9 0 9 9q0 8 -10 8h-11v-17h12zM426 283q7 0 11.5 5t4.5 12q0 6 -4.5 11.5t-11.5 5.5t-11 -5.5t-4 -11.5q0 -7 4 -12t11 -5z" />
    <glyph glyph-name="approxequal" unicode="&#x2248;" horiz-adv-x="855" 
d="M432 392l-72 -409q-11 -56 -23.5 -92.5t-32.5 -58.5q-15 22 -33.5 35.5t-42.5 13.5q-25 0 -40 -13t-15 -33t17.5 -37t52.5 -17q57 0 107 48q23 22 39 44.5t28 51.5t21.5 68t19.5 94l53 305h194l-75 -332q-6 -27 5 -49t43 -22q26 0 61 12t65 30l-2 17q-32 0 -50.5 1.5
t-28.5 5.5t-11.5 12t1.5 21l85 374l-8 8l-88 -27h-182l12 69q18 99 60 142.5t101 44.5q19 -85 80 -85q23 0 37.5 15t14.5 37q0 27 -28.5 51t-83.5 24q-41 0 -76.5 -9.5t-64.5 -29.5q-13 -8 -23 -17l-20 -18q-8 23 -35.5 40.5t-73.5 17.5q-41 0 -76.5 -9.5t-64.5 -29.5
q-28 -19 -48 -41t-35 -49.5t-25.5 -62t-17.5 -77.5l-1 -8l-110 -28l-6 -28h105l-71 -409q-11 -56 -23.5 -92.5t-32.5 -58.5q-15 22 -33.5 35.5t-42.5 13.5q-25 0 -40 -13t-15 -33t17.5 -37t52.5 -17q57 0 107 48q23 22 39 44.5t28 51.5t21.5 68t19.5 94l53 305h211zM482 598
q-12 -26 -20.5 -57t-15.5 -69l-5 -29h-211l9 53q18 99 60 142.5t101 44.5q9 -42 29.5 -64.5t52.5 -20.5z" />
    <glyph glyph-name="greaterequal" unicode="&#x2265;" 
d="M25 -200h450v1000h-450v-1000z" />
    <glyph glyph-name="infinity" unicode="&#x221e;" 
d="M25 -200h450v1000h-450v-1000z" />
    <glyph glyph-name="integral" unicode="&#x222b;" 
d="M25 -200h450v1000h-450v-1000z" />
    <glyph glyph-name="lessequal" unicode="&#x2264;" 
d="M25 -200h450v1000h-450v-1000z" />
    <glyph glyph-name="lozenge" unicode="&#x25ca;" horiz-adv-x="780" 
d="M329 433q0 22 -7.5 36.5t-20 24.5t-29.5 16.5t-35 11.5q-32 10 -54 21t-22 37q0 18 13 29.5t32 11.5q18 0 38.5 -14.5t54.5 -59.5l16 2l-6 101h-16l-15 -22q-16 8 -32.5 12t-36.5 4q-19 0 -36 -6.5t-30.5 -18.5t-21.5 -28t-8 -34q0 -21 8 -35.5t21 -24.5t30.5 -16.5
t35.5 -12.5q32 -10 52.5 -21.5t20.5 -35.5q0 -23 -16.5 -34.5t-39.5 -11.5q-26 0 -50 18.5t-54 66.5l-16 -2l4 -110h17l14 22q17 -8 38.5 -13t44.5 -5q21 0 40 6.5t34 18.5t23.5 28.5t8.5 37.5zM751 608l44 13v16h-129l-15 -47l-60 -160h-6l-61 157l-17 50h-127v-16l38 -15
v-224l-38 -17v-15h104v15l-34 17v220h11l99 -252h27l97 252h9v-223l-36 -14v-15h138v15l-44 14v229z" />
    <glyph glyph-name="nonbreakingspace" unicode="&#xa0;" horiz-adv-x="110" 
 />
    <glyph glyph-name="notequal" unicode="&#x2260;" 
d="M25 -200h450v1000h-450v-1000z" />
    <glyph glyph-name="partialdiff" unicode="&#x2202;" 
d="M25 -200h450v1000h-450v-1000z" />
    <glyph glyph-name="pi" unicode="&#x3c0;" horiz-adv-x="788" 
d="M394 -32q72 0 136 27.5t112 75t75.5 111.5t27.5 137q0 72 -27.5 136t-75.5 111.5t-112 75t-136 27.5t-136 -27.5t-112 -75t-75.5 -111.5t-27.5 -136q0 -73 27.5 -137t75.5 -111.5t112 -75t136 -27.5zM394 -4q-66 0 -124.5 25t-101.5 69t-68 102.5t-25 126.5
q0 66 25 124.5t68 102t101.5 68.5t124.5 25t124.5 -25t101.5 -68.5t68 -102t25 -124.5q0 -68 -25 -126.5t-68 -102.5t-101.5 -69t-124.5 -25zM249 135h176v24l-55 12v117q14 -2 30.5 -3t29.5 -1q30 0 53.5 9.5t39.5 25t24.5 35.5t8.5 40q0 21 -8.5 40t-25.5 33.5t-42.5 23
t-60.5 8.5h-170v-22l53 -12v-294l-53 -12v-24zM412 311h-23q-15 0 -19 1v158q2 0 7.5 0.5t11.5 0.5h12h9q35 -1 54 -20.5t19 -56.5q0 -80 -71 -83z" />
    <glyph glyph-name="product" unicode="&#x220f;" 
d="M25 -200h450v1000h-450v-1000z" />
    <glyph glyph-name="radical" unicode="&#x221a;" horiz-adv-x="855" 
d="M432 392l-72 -409q-11 -56 -23.5 -92.5t-32.5 -58.5q-15 22 -33.5 35.5t-42.5 13.5q-25 0 -40 -13t-15 -33t17.5 -37t52.5 -17q57 0 107 48q23 22 39 44.5t28 51.5t21.5 68t19.5 94l53 305h192l-73 -332q-6 -28 5 -49.5t43 -21.5q26 0 61.5 12t64.5 30l-2 17
q-32 0 -50.5 1.5t-28.5 5.5t-11.5 12t1.5 21l143 643l-7 9l-61 -18q-29 19 -75 19q-41 0 -76.5 -9.5t-64.5 -29.5q-13 -8 -23 -17l-20 -18q-8 23 -35.5 40.5t-73.5 17.5q-41 0 -76.5 -9.5t-64.5 -29.5q-28 -19 -48 -41t-35 -49.5t-25.5 -62t-17.5 -77.5l-1 -8l-110 -28
l-6 -28h105l-71 -409q-11 -56 -23.5 -92.5t-32.5 -58.5q-15 22 -33.5 35.5t-42.5 13.5q-25 0 -40 -13t-15 -33t17.5 -37t52.5 -17q57 0 107 48q23 22 39 44.5t28 51.5t21.5 68t19.5 94l53 305h211zM520 443l12 69q18 99 60 142.5t101 44.5q8 -34 22.5 -55t37.5 -27l-39 -174
h-194zM482 598q-12 -26 -20.5 -57t-15.5 -69l-5 -29h-211l9 53q18 99 60 142.5t101 44.5q9 -42 29.5 -64.5t52.5 -20.5z" />
    <glyph glyph-name="summation" unicode="&#x2211;" 
d="M25 -200h450v1000h-450v-1000z" />
    <glyph glyph-name="breve" unicode="&#x2d8;" horiz-adv-x="344" 
d="M217 540q60 0 100 39.5t58 109.5l-28 8q-26 -46 -51 -67.5t-65 -21.5q-42 0 -64 21.5t-31 67.5l-28 -8q-7 -70 20.5 -109.5t88.5 -39.5z" />
    <glyph glyph-name="fraction" unicode="&#x2215;" horiz-adv-x="568" 
d="M78 -32l226 330l229 315l-41 30l-226 -330l-232 -316z" />
    <glyph glyph-name="Lslash" unicode="&#x141;" horiz-adv-x="607" 
d="M-27 0h524l59 195l-19 4l-92 -105q-14 -15 -24.5 -24t-22.5 -13.5t-27 -6t-37 -1.5h-145l51 248l143 37l-3 46l-129 -32l49 237l112 20l8 32h-314l-7 -32l108 -20l-54 -262l-97 -24l3 -48l83 22l-45 -221l-117 -20z" />
    <glyph glyph-name="lslash" unicode="&#x142;" horiz-adv-x="314" 
d="M118 -11q26 0 61.5 12t64.5 30l-2 17q-32 0 -50.5 1.5t-28.5 5.5t-11.5 12t1.5 21l57 256l112 29l-3 45l-98 -25l75 338l-7 9l-179 -52l-2 -24l90 -22l-59 -269l-106 -27l3 -46l92 23l-58 -263q-6 -28 5 -49.5t43 -21.5z" />
    <glyph glyph-name="Zcaron" unicode="&#x17d;" horiz-adv-x="645" 
d="M382 727h32l152 177l-19 19l-132 -112l-83 112l-25 -19zM-8 0h506l64 185l-20 4l-92 -102q-12 -14 -22 -22t-22 -13t-26.5 -6.5t-35.5 -1.5h-221l515 573l1 20h-477l-57 -163l20 -7l75 75q16 16 29.5 26t27 16t29 8t35.5 2h185l-514 -574v-20z" />
    <glyph glyph-name="zcaron" unicode="&#x17e;" horiz-adv-x="462" 
d="M268 541h32l152 177l-19 19l-132 -112l-83 112l-25 -19zM319 -11q12 0 23 6t21.5 21.5t22.5 42.5t27 68l-17 8q-23 -25 -38.5 -40t-29.5 -21.5t-30 -7t-40 3.5l-127 19l347 368l-26 20l-69 -48l-71 19q-28 7 -60 11.5t-59 4.5q-34 0 -52 -8t-36 -25q-29 -27 -39.5 -46
t-10.5 -39q0 -22 14.5 -39.5t34.5 -17.5t32 12.5t12 31.5q0 31 -38 52v6q5 3 15 5t27 2q37 0 83.5 -3.5t113.5 -11.5l-352 -373l26 -20l64 48l128 -33q32 -8 56.5 -12t47.5 -4z" />
    <glyph glyph-name="Scaron" unicode="&#x160;" horiz-adv-x="527" 
d="M330 727h32l152 177l-19 19l-132 -112l-83 112l-25 -19zM-2 -7l31 -1l35 31q28 -14 70.5 -25t93.5 -11q39 0 78 12.5t69.5 37t49.5 61.5t19 85q0 30 -8 55t-24.5 47t-41.5 42.5t-59 41.5q-31 19 -52.5 34.5t-35 31.5t-20 33.5t-6.5 40.5q0 46 27.5 76.5t78.5 30.5
q46 0 79.5 -37.5t51.5 -125.5l33 1l31 191l-31 1l-34 -31q-20 14 -53.5 24t-71.5 10q-44 0 -80 -13.5t-62.5 -37.5t-41 -57t-14.5 -72q0 -58 34 -97.5t95 -77.5q32 -20 54 -37.5t36 -35.5t20.5 -37t6.5 -43q0 -52 -31 -87t-84 -35q-33 0 -60 10t-48 32.5t-36 59.5t-23 91
l-33 -1z" />
    <glyph glyph-name="scaron" unicode="&#x161;" horiz-adv-x="398" 
d="M247 541h32l152 177l-19 19l-132 -112l-83 112l-25 -19zM172 -10q33 0 63.5 10.5t54 30t37.5 46t14 58.5q0 41 -21 68t-72 56l-27 16q-38 22 -54 38.5t-16 41.5q0 28 24 48.5t59 20.5q8 0 16.5 -2l17.5 -4q5 -44 21.5 -61t38.5 -17q20 0 32 14t12 34q0 13 -7.5 26
t-22.5 24t-38.5 18t-56.5 7q-34 0 -64 -11.5t-52.5 -31t-36 -44.5t-13.5 -52q0 -45 24.5 -70.5t66.5 -48.5l27 -16q40 -23 55 -42t15 -45q0 -33 -27 -53t-65 -20q-25 0 -45 5.5t-35 14.5q17 43 7 70.5t-42 27.5q-20 0 -36 -17.5t-16 -46.5q0 -39 43.5 -66t118.5 -27z" />
    <glyph glyph-name="brokenbar" unicode="&#xa6;" horiz-adv-x="294" 
d="M176 299l-5 201l5 201h-58l5 -201l-5 -201h58zM176 -241l-5 201l5 201h-58l5 -201l-5 -201h58z" />
    <glyph glyph-name="minus" unicode="&#x2212;" horiz-adv-x="520" 
d="M460 288l11 51h-410l-11 -51h410z" />
    <glyph glyph-name="twosuperior" unicode="&#xb2;" horiz-adv-x="390" 
d="M11 230l11 -57h282l45 142l-17 5l-63 -82h-180l-2 10q82 50 136.5 89t86.5 72t45 63t13 62q0 46 -32.5 78.5t-89.5 32.5q-61 0 -103.5 -36t-65.5 -99l25 -11q25 41 51 63t63 22q33 0 50.5 -19.5t17.5 -51.5q0 -17 -5 -33t-17 -34t-31.5 -39t-48.5 -46q-29 -26 -73 -58.5z
" />
    <glyph glyph-name="threesuperior" unicode="&#xb3;" horiz-adv-x="390" 
d="M135 422l-8 -38q80 -10 112.5 -37t32.5 -65q0 -43 -28 -65.5t-73 -22.5q-21 0 -35.5 3t-26.5 10q7 16 8 31.5t-4 28t-15.5 20t-26.5 7.5q-22 0 -35 -15t-13 -35q0 -39 39.5 -62.5t104.5 -23.5q41 0 74.5 12t57.5 32t37 46.5t13 55.5q0 43 -25.5 69.5t-79.5 42.5l3 14
q66 14 97 46.5t31 74.5t-30.5 68t-88.5 26q-57 0 -100 -29.5t-68 -72.5l20 -15q29 29 58.5 45t64.5 16q31 0 49 -15t18 -41q0 -17 -8 -33t-27 -30t-50.5 -26t-77.5 -22z" />
    <glyph glyph-name="onesuperior" unicode="&#xb9;" horiz-adv-x="390" 
d="M229 223l88 418l-9 8l-178 -23l-4 -18l98 -34l-75 -350l-117 -32l-4 -19h301l4 19z" />
    <glyph glyph-name="onequarter" unicode="&#xbc;" horiz-adv-x="1040" 
d="M229 223l88 418l-9 8l-178 -23l-4 -18l98 -34l-75 -350l-117 -32l-4 -19h301l4 19zM904 636l-35 35l-335 -381l-339 -373l36 -35l334 381zM616 107l11 -45h188l-19 -91l-85 -25l-6 -23h221l5 21l-62 26l19 91h74l12 53h-75l59 274l-82 7zM828 112h-156l186 218h16z" />
    <glyph glyph-name="onehalf" unicode="&#xbd;" horiz-adv-x="1040" 
d="M229 223l88 418l-9 8l-178 -23l-4 -18l98 -34l-75 -350l-117 -32l-4 -19h301l4 19zM887 636l-35 35l-335 -381l-339 -373l36 -35l334 381zM608 -20l11 -57h282l45 142l-17 5l-63 -82h-180l-2 10q82 50 136.5 89t86.5 72t45 63t13 62q0 46 -32.5 78.5t-89.5 32.5
q-61 0 -103.5 -36t-65.5 -99l25 -11q25 41 51 63t63 22q33 0 50.5 -19.5t17.5 -51.5q0 -17 -5 -33t-17 -34t-31.5 -39t-48.5 -46q-29 -26 -73 -58.5z" />
    <glyph glyph-name="threequarters" unicode="&#xbe;" horiz-adv-x="1040" 
d="M145 422l-8 -38q80 -10 112.5 -37t32.5 -65q0 -43 -28 -65.5t-73 -22.5q-21 0 -35.5 3t-26.5 10q7 16 8 31.5t-4 28t-15.5 20t-26.5 7.5q-22 0 -35 -15t-13 -35q0 -39 39.5 -62.5t104.5 -23.5q41 0 74.5 12t57.5 32t37 46.5t13 55.5q0 43 -25.5 69.5t-79.5 42.5l3 14
q66 14 97 46.5t31 74.5t-30.5 68t-88.5 26q-57 0 -100 -29.5t-68 -72.5l20 -15q29 29 58.5 45t64.5 16q31 0 49 -15t18 -41q0 -17 -8 -33t-27 -30t-50.5 -26t-77.5 -22zM902 636l-35 35l-335 -381l-339 -373l36 -35l334 381zM606 107l11 -45h188l-19 -91l-85 -25l-6 -23h221
l5 21l-62 26l19 91h74l12 53h-75l59 274l-82 7zM818 112h-156l186 218h16z" />
    <glyph glyph-name="Eth" unicode="&#xd0;" horiz-adv-x="715" 
d="M-27 0h283q100 0 178.5 30.5t133 83t83.5 121.5t29 146q0 63 -21.5 111t-60.5 80t-93.5 48.5t-121.5 16.5h-277l-7 -32l108 -20l-47 -231h-98l-10 -47h97l-52 -255l-117 -20zM188 45l53 262h130l10 47h-129l49 238h69q103 0 154.5 -54t51.5 -151q0 -71 -20.5 -133
t-60 -108.5t-97.5 -73.5t-132 -27h-78z" />
    <glyph glyph-name="multiply" unicode="&#xd7;" horiz-adv-x="520" 
d="M267 349l-106 150l-45 -33l109 -150l-171 -135l33 -41l167 135l107 -151l44 33l-109 151l171 135l-33 40z" />
    <glyph glyph-name="Yacute" unicode="&#xdd;" horiz-adv-x="659" 
d="M425 716l44.5 34.5l44.5 34l38.5 31t26.5 26.5q35 43 4 68q-16 13 -35 8t-36 -23q-11 -12 -23.5 -30.5l-26.5 -40.5l-28.5 -46.5l-28.5 -47.5zM106 0h326l6 32l-111 20l51 240l247 284l94 29l7 32h-233l-7 -32l77 -26l-205 -250l-104 258l100 18l8 32h-294l-8 -32l89 -23
l132 -299l-48 -231l-120 -20z" />
    <glyph glyph-name="Thorn" unicode="&#xde;" horiz-adv-x="608" 
d="M-32 0h324l7 32l-114 20l19 91q20 -4 46 -7.5t52 -3.5q56 0 103 16t80.5 44.5t52.5 66.5t19 83q0 78 -56.5 119t-165.5 41q-17 0 -31.5 -1t-25.5 -3l18 87l111 20l8 32h-314l-7 -32l107 -20l-110 -533l-116 -20zM279 177q-20 0 -36 1.5t-30 3.5l57 274l25 4t30 2
q59 0 93.5 -30t34.5 -88q0 -36 -10 -66.5t-31 -53t-54 -35t-79 -12.5z" />
    <glyph glyph-name="eth" unicode="&#xf0;" horiz-adv-x="480" 
d="M161 -11q54 0 103.5 27.5t91.5 73.5q45 51 70.5 117t25.5 144q0 85 -36 152.5t-96 116.5l96 64l-23 36l-109 -73q-35 25 -75 43.5t-82 30.5l-14 -26q69 -38 120 -81l-76 -50l23 -37l86 57q62 -60 83 -129q-64 7 -122 -17t-101.5 -68t-69.5 -102.5t-26 -119.5
q0 -39 11 -68.5t29.5 -50t42 -30.5t48.5 -10zM208 48q-41 0 -67 34t-26 91q0 50 14.5 92.5t38 74t53.5 49t61 17.5q44 0 65.5 -31.5t21.5 -87.5q0 -51 -14 -95t-37 -76t-52 -50t-58 -18z" />
    <glyph glyph-name="yacute" unicode="&#xfd;" horiz-adv-x="482" 
d="M287 530l44.5 34.5l44.5 34l38.5 31t26.5 26.5q35 43 4 68q-16 13 -35 8t-36 -23q-11 -12 -23.5 -30.5l-26.5 -40.5l-28.5 -46.5l-28.5 -47.5zM27 -219q29 0 53.5 15t50.5 38q45 38 90.5 108.5t89 154.5l85 171.5l79.5 161.5l-80 40h-4l-21.5 -74.5t-28.5 -93.5
l-34.5 -103t-37.5 -102h-10q-8 89 -21 161.5t-31 135.5q-11 40 -28.5 55t-46.5 15q-13 0 -27.5 -5.5t-29 -15t-28 -22t-25.5 -27.5l8 -17q17 5 28.5 8t20.5 3q19 0 30.5 -10t22.5 -43q9 -27 19 -67.5t19.5 -88t17.5 -99.5t13 -103q-29 -51 -64.5 -90t-78.5 -62
q2 38 -11.5 63.5t-39.5 25.5q-23 0 -37.5 -17.5t-14.5 -43.5q0 -29 18.5 -50.5t53.5 -21.5z" />
    <glyph glyph-name="thorn" unicode="&#xfe;" horiz-adv-x="507" 
d="M-87 -210h238l6 27l-81 25l34 155q12 -4 32.5 -6t37.5 -2q52 0 105 28.5t95.5 74.5t69 104t26.5 117q0 36 -10 64t-27 47.5t-40 29.5t-49 10q-41 0 -76 -22.5t-70 -57.5l-10 3l77 344l-7 9l-180 -52l-2 -24l91 -22l-176 -800l-77 -22zM222 42q-28 0 -52 8.5t-43 20.5
l55 255q36 37 65.5 56t57.5 19q36 0 60.5 -29t24.5 -89q0 -50 -14.5 -93.5t-38 -76.5t-54 -52t-61.5 -19z" />
    <glyph glyph-name="Delta" unicode="&#x394;" 
d="M25 -200h450v1000h-450v-1000z" />
    <glyph glyph-name="Omega" unicode="&#x3a9;" horiz-adv-x="600" 
d="M529 667q-8 23 -35.5 40.5t-73.5 17.5q-41 0 -76.5 -9.5t-64.5 -29.5q-28 -19 -48 -41t-35 -49.5t-25.5 -62t-17.5 -77.5l-1 -8l-110 -28l-6 -28h105l-71 -409q-11 -56 -23.5 -92.5t-32.5 -58.5q-15 22 -33.5 35.5t-42.5 13.5q-25 0 -40 -13t-15 -33t17.5 -37t52.5 -17
q57 0 107 48q23 22 39 44.5t28 51.5t21.5 68t19.5 94l53 305h211l-72 -409q-11 -56 -23.5 -93t-32.5 -58q-14 22 -31 35.5t-40 13.5t-38 -14t-15 -34t17 -36t49 -16q54 0 104 48q23 22 39 44.5t28 51.5t21.5 68t19.5 94l53 305h112l10 51h-113l9 50q18 100 50 152.5t80 54.5
q8 -39 27.5 -59t46.5 -20q25 0 39 14.5t14 34.5q0 13 -6 25.5t-18.5 22.5t-31 16.5t-43.5 6.5q-68 0 -123 -42q-10 -8 -18.5 -15.5t-16.5 -16.5zM441 443h-211l9 53q18 99 60 142.5t101 44.5q9 -42 29 -64t53 -21q-23 -47 -35 -119z" />
    </font>
</defs>
</svg>
