<svg xmlns="http://www.w3.org/2000/svg" width="223" height="130" viewBox="0 0 85.04 49.62"><defs><style>.cls-1{fill:#fff;}</style></defs><title>logo-sg-pool-white</title><g id="Layer_2" data-name="Layer 2"><g id="Isolation_Mode" data-name="Isolation Mode"><path class="cls-1" d="M42.29,16.45l-.1.24s1.16,2.15,2.17,4.29c0,0,.19-.3.54-.89.51-.83,1-1.7,1.51-2.64,1-2,3.2-6.41,5.09-8.32a22,22,0,0,1,2.83-2.5A10.46,10.46,0,0,1,58.79,5l.09,0a21.84,21.84,0,0,0-3.39.32c-.41.06-.82.13-1.24.22C47.23,6.92,44.24,11.68,42.29,16.45Z"/><path class="cls-1" d="M60,29.29a24.43,24.43,0,0,1-11.31-3.42,28.64,28.64,0,0,1-2.59-1.69,22.05,22.05,0,0,0,3.66,5.24l.05.07c.22.2.44.39.66.57l0,0a12.34,12.34,0,0,0,7.22,3.19,15,15,0,0,0,5.18-.61c5.41-2,6.71-5.59,7-7A12,12,0,0,1,60,29.29Z"/><path class="cls-1" d="M41.67,17.2c-1.74-2.52-4.05-5.1-6.94-6.29A9.82,9.82,0,0,0,25,12.34c.95-2,2.51-5.18,3.15-6.59C29.09,3.65,29.65,3,30.7,3c2.2-.07,5.41,2.44,11.12,3.3,6.55,1,6.59-4.91,6.59-4.91-1,.4-5.31,1.06-10.32-.68-5.74-2-9.34.86-10.46,3.35-1.45,3.23-3.18,6.6-4.07,8.31-.35.63-.73,1.28-1,1.8a5,5,0,0,1-2.12,2c-.12.06-.36.11-.36.25s.05.18.36.25a3.88,3.88,0,0,0,2.34-.32c3.34-1.4,9.24-2.9,14.62.32a19.7,19.7,0,0,1,3.74,3c-.1.29-.18.56-.29.89-.16.53-.41,1.23-.71,2.09a27.3,27.3,0,0,1-3.6,6.69l0,.06c.18-.14.59-.46,1.11-.89a30.28,30.28,0,0,0,2.5-2.23c.31-.3.6-.61.88-.92a32.63,32.63,0,0,0,2.5-3.08c1.48,1.75,2.87,3.56,4.3,5.17l-.08-.2C44.9,23.57,43.73,20.31,41.67,17.2Z"/><path class="cls-1" d="M38,26.23a14.77,14.77,0,0,1-2.64,2.3,14.5,14.5,0,0,1-8.49,2.77,15.6,15.6,0,0,1-7.22-1.64A21.25,21.25,0,0,1,13.6,25.6a4.74,4.74,0,0,1-1.34-3.71c.14-1.88,1.07-3,.62-2.86a4.07,4.07,0,0,0-1.22,1.79A22.35,22.35,0,0,0,11,23c-1.86,6.5,5,14,15.41,11.68a16.69,16.69,0,0,0,8.42-4.22h0A24,24,0,0,0,38,26.35Z"/><path class="cls-1" d="M72.38,23.61l0,0A23.93,23.93,0,0,0,74,18.84C75.72,11.45,71.61,5,61.64,4.94a14.79,14.79,0,0,0-4.31.77l-.09.08a10.12,10.12,0,0,1,5.21.63,12.41,12.41,0,0,1,1.41.6c4.45,2.21,7.83,8.68,7.84,14A13.85,13.85,0,0,1,69,28.56l0,.15a8.08,8.08,0,0,0,.61-.62h0l0,0a17.77,17.77,0,0,0,2.74-4.24Z"/><path class="cls-1" d="M55.23,21.95H55l0-.05c.15-.29.25-.51.35-.71.18-.4.27-.63.27-.63h0l.11-.24.23-.53L58,14.89h-.65l-1.1,2.58a15.85,15.85,0,0,1-.84,1.42,10.82,10.82,0,0,1-.74,1,4.86,4.86,0,0,1-.63.63,3.2,3.2,0,0,1-.51.34,1.61,1.61,0,0,1-.38.15L53,21a.19.19,0,0,1-.22-.22,1.45,1.45,0,0,1,0-.31c0-.13.07-.27.11-.42s.1-.32.17-.49.13-.34.2-.52l1.22-2.84q.09-.21.17-.43c.05-.14.1-.29.15-.43a4,4,0,0,0,.17-1,1.72,1.72,0,0,0-.16-.71,1.62,1.62,0,0,0-.62-.69,2,2,0,0,0-1-.27,2.92,2.92,0,0,0-1.16.24,4.21,4.21,0,0,0-1.07.66,5.71,5.71,0,0,0-.47.45,5.52,5.52,0,0,0-.41.5,3.78,3.78,0,0,0-.6,1.17,2.48,2.48,0,0,0,0,1.29A1.85,1.85,0,0,0,50,18a1.44,1.44,0,0,0,1,.32,1.57,1.57,0,0,0,.83-.3,2.39,2.39,0,0,0,.48-.48,3,3,0,0,0,.23-.37l.07-.14h-.17l0,.07a2.27,2.27,0,0,1-.21.36,2,2,0,0,1-.45.45,1.42,1.42,0,0,1-.76.26,1.27,1.27,0,0,1-.87-.32,1.38,1.38,0,0,1-.47-.92,2.37,2.37,0,0,1,.19-1.1,5,5,0,0,1,.55-1c.1-.16.25-.33.36-.49a5.44,5.44,0,0,1,.4-.44,3.69,3.69,0,0,1,.94-.67,2.5,2.5,0,0,1,1-.26,1.72,1.72,0,0,1,.9.24,1.22,1.22,0,0,1,.4.4c.25.49-.14,1.41-.2,1.58s-.13.33-.21.51l-.23.54-1.21,2.84-.16.39q-.08.2-.14.41a3.89,3.89,0,0,0-.1.39,1.86,1.86,0,0,0,0,.34.75.75,0,0,0,.16.49.59.59,0,0,0,.49.2,1.71,1.71,0,0,0,.54-.1,2.44,2.44,0,0,0,.65-.36,5.3,5.3,0,0,0,.75-.69,8.6,8.6,0,0,0,.68-.86c.05-.08.07,0,.05,0s-.2.48-.2.48l-.27.63-.21.45-.28.59-.08.17-.09.16h0l-.08.13h0l0,0c-.5,0-1,.05-1.6.12a9.65,9.65,0,0,0-1.43.28,4.53,4.53,0,0,0-.71.27,2,2,0,0,0-.63.46.71.71,0,0,0-.18.39.54.54,0,0,0,.15.42,1.31,1.31,0,0,0,.73.33,4.15,4.15,0,0,0,1.49-.09,4.52,4.52,0,0,0,1.3-.53,4.76,4.76,0,0,0,1-.8,3.56,3.56,0,0,0,.46-.62l.37,0c.74,0,1.36.11,1.79.17l.58.07.14-.34L57,22C56.61,22,56,22,55.23,21.95Zm-1.29.47a4.24,4.24,0,0,1-.81.8,3.83,3.83,0,0,1-1.14.59,3.35,3.35,0,0,1-1.37.16,1.09,1.09,0,0,1-.61-.23.37.37,0,0,1,0-.53,2.72,2.72,0,0,1,1.24-.68,7.71,7.71,0,0,1,1.4-.28,12.4,12.4,0,0,1,1.44-.08Z"/><path class="cls-1" d="M68.74,18.47c-.52-.67-.69-1-.68-1.34.2-.22.59-.59.39-.81s-.83-.08-.83.94v0l-.36.49-1.44,1.81a1.1,1.1,0,0,1-.21.21.32.32,0,0,1-.17.07l-.07,0a.09.09,0,0,1,0-.08.27.27,0,0,1,0-.08l0-.1.77-1.86c0-.07.05-.15.08-.24a.78.78,0,0,0,0-.23.25.25,0,0,0-.05-.16A.24.24,0,0,0,66,17h-.47l-.15,0a1.48,1.48,0,0,0,.22-.33.58.58,0,0,0,.06-.22.2.2,0,0,0-.09-.18.34.34,0,0,0-.19-.06.36.36,0,0,0-.22.07.65.65,0,0,0-.16.17.8.8,0,0,0-.1.2.55.55,0,0,0,0,.16A.34.34,0,0,0,65,17a.54.54,0,0,0,.19.14c-.13.19-.29.41-.48.65l-1.4,1.77a1.1,1.1,0,0,1-.21.21.31.31,0,0,1-.17.07l-.07,0a.1.1,0,0,1,0-.08.32.32,0,0,1,0-.09l0-.09.1-.25.17-.42.21-.51.2-.5.16-.4.09-.21a.73.73,0,0,0,0-.13.58.58,0,0,0,0-.14.23.23,0,0,0,0-.14.17.17,0,0,0-.15-.06.4.4,0,0,0-.19,0,.77.77,0,0,0-.19.16l-.25.31-.37.5-.31.42-.34.44-.34.41-.31.35a2.76,2.76,0,0,1-.25.24.31.31,0,0,1-.16.09.08.08,0,0,1-.08-.06.36.36,0,0,1,0-.15,1.4,1.4,0,0,1,.08-.41,3.13,3.13,0,0,1,.22-.52,5,5,0,0,1,.35-.55A4.27,4.27,0,0,1,62,17.6a3.49,3.49,0,0,1,.53-.43,2.15,2.15,0,0,1,.59-.28v-.09a2.18,2.18,0,0,0-.73.21,3.75,3.75,0,0,0-.69.42,4.51,4.51,0,0,0-.61.57c-.15.17-1,1.16-1.2,1.4a4.07,4.07,0,0,1-.65.56,2.32,2.32,0,0,1-.53.29,1.24,1.24,0,0,1-.43.08.4.4,0,0,1-.28-.11.52.52,0,0,1-.11-.39,1.52,1.52,0,0,1,0-.33,3.54,3.54,0,0,1,.11-.38,2,2,0,0,0,.5-.07,3.18,3.18,0,0,0,1-.47,2.53,2.53,0,0,0,.42-.37,1.83,1.83,0,0,0,.29-.42,1,1,0,0,0,.11-.46.68.68,0,0,0-.13-.43.5.5,0,0,0-.42-.17,1.3,1.3,0,0,0-.47.11,3,3,0,0,0-.56.3,4.07,4.07,0,0,0-.56.46,3.85,3.85,0,0,0-.49.6,3.16,3.16,0,0,0-.35.7,2.25,2.25,0,0,0-.13.77.88.88,0,0,0,.1.44.78.78,0,0,0,.24.27.88.88,0,0,0,.31.13,1.34,1.34,0,0,0,.3,0h.21a1.29,1.29,0,0,0,.29-.07,2.42,2.42,0,0,0,.38-.18,3.51,3.51,0,0,0,.47-.33q.2-.16.43-.39l.2-.2.07-.08.05-.05,0,.07a1.67,1.67,0,0,0-.12.58.88.88,0,0,0,0,.29.46.46,0,0,0,.1.18.36.36,0,0,0,.14.09l.13,0a.62.62,0,0,0,.37-.14,4,4,0,0,0,.43-.38l.23-.26.29-.37.3-.41.28-.39.22-.31.12-.17s.07-.07.1-.07,0,0,0,.05a.48.48,0,0,1,0,.1l-.08.21-.12.28-.13.31-.12.29-.1.22c-.07.16-.13.29-.17.4a.92.92,0,0,0-.06.31.29.29,0,0,0,.1.22.37.37,0,0,0,.25.09l.19,0a.72.72,0,0,0,.19-.08,1.27,1.27,0,0,0,.2-.16,2.51,2.51,0,0,0,.23-.25l1.33-1.67.32-.42.25-.34.2-.27.15,0h.18a0,0,0,0,1,0,0,.29.29,0,0,1,0,.07l0,.11,0,.12-.05.13-.7,1.68c-.07.16-.13.3-.17.42a.9.9,0,0,0-.06.3.3.3,0,0,0,.09.22.34.34,0,0,0,.24.09l.19,0a.69.69,0,0,0,.18-.08,1.26,1.26,0,0,0,.19-.16,2.82,2.82,0,0,0,.22-.25s1.46-1.81,1.64-2.05l.25-.34c.11.7.64,1.21.72,1.61.19,1-.39,1.46-.87,1.48l-.14,0c.42-.57.51-1.17.27-1.4a.59.59,0,0,0-.82.1A.82.82,0,0,0,67,20.59c-.17.17-.35.33-.35.33h.43a2.27,2.27,0,0,0,.21-.22A1.59,1.59,0,0,0,69,20,1.4,1.4,0,0,0,68.74,18.47Zm-10.34-.22a5.88,5.88,0,0,1,.43-.65,3.27,3.27,0,0,1,.43-.47.6.6,0,0,1,.36-.18.17.17,0,0,1,.13.05.28.28,0,0,1,0,.19,1.35,1.35,0,0,1-.12.53,2,2,0,0,1-.35.54,2.33,2.33,0,0,1-.55.45,2,2,0,0,1-.71.26A5,5,0,0,1,58.41,18.25Zm8.52,1.68c0-.37.32-.77.54-.67s.06.64-.13.92a2.45,2.45,0,0,1-.23.28A.8.8,0,0,1,66.93,19.93Z"/><path class="cls-1" d="M1.28,40.8h.83c.42,0,.52-.11.52-.52h.24V41.7H2.64c0-.34-.1-.5-.41-.5H1.28v1.14c0,.51.08.62.4.62H1.8v.28H0V43H.1c.26,0,.35-.1.35-.4V39.68c0-.45-.11-.59-.37-.59H0v-.27H3v1H2.82c0-.47-.11-.61-.38-.61H1.28Z"/><path class="cls-1" d="M5.95,38.68a2.11,2.11,0,0,1,2.14,2.25,2.24,2.24,0,0,1-2.26,2.39,2.13,2.13,0,0,1-2.19-2.23A2.27,2.27,0,0,1,5.95,38.68ZM6,43c.83,0,1.22-.85,1.22-1.83,0-1.14-.48-2.2-1.39-2.2s-1.26.69-1.26,1.77C4.54,42.11,5.13,43,6,43Z"/><path class="cls-1" d="M9.91,42.43c0,.36.13.52.47.52h.18v.28H8.46V43h.1c.37,0,.52-.11.52-.52v-2.8c0-.34-.08-.54-.48-.54H8.48v-.28l.77-.06c.34,0,.77,0,1,0,.88,0,1.36.13,1.66.49a1.21,1.21,0,0,1,.29.81,1.18,1.18,0,0,1-.89,1.14c.4.39.61.95,1,1.45a1,1,0,0,0,.79.42v.28h-.37c-.74,0-1.05-.13-1.33-.46s-.65-1.1-1-1.49H9.91Zm0-1.38h.23c.73,0,1.15-.26,1.15-1a1,1,0,0,0-1.07-1H9.91Z"/><path class="cls-1" d="M19.25,42a6.29,6.29,0,0,1-.34,1.29,1,1,0,0,0-.35,0c-.28,0-.58.13-1,.13A2.21,2.21,0,0,1,15.34,41a2.29,2.29,0,0,1,2.3-2.32,3.49,3.49,0,0,1,1.15.29.14.14,0,0,0,.12-.07h.15l.05,1.24h-.23c-.19-.7-.62-1.1-1.19-1.1-.86,0-1.45.77-1.45,1.89s.66,2,1.52,2A1.38,1.38,0,0,0,19,42Z"/><path class="cls-1" d="M22.09,38.68a2.11,2.11,0,0,1,2.14,2.25A2.24,2.24,0,0,1,22,43.33a2.13,2.13,0,0,1-2.19-2.23A2.27,2.27,0,0,1,22.09,38.68Zm0,4.34c.83,0,1.22-.85,1.22-1.83,0-1.14-.48-2.2-1.39-2.2-.76,0-1.26.69-1.26,1.77C20.68,42.11,21.26,43,22.11,43Z"/><path class="cls-1" d="M25.65,39.73h0l-.13,2.52c0,.47,0,.69.49.7v.28H24.66V43c.47,0,.48-.16.51-.75l.13-2.57c0-.36,0-.52-.4-.54v-.28h1.27l1.17,3,1.12-3h1.29v.28c-.43,0-.46,0-.43.54l.14,2.62c0,.6,0,.66.53.7v.28H28.1V43h.1c.25,0,.46,0,.46-.46,0-.11,0-.23,0-.33l-.14-2.52h0l-1.34,3.59H27Z"/><path class="cls-1" d="M31.21,39.73h0l-.13,2.52c0,.47,0,.69.49.7v.28H30.23V43c.47,0,.48-.16.51-.75l.13-2.57c0-.36,0-.52-.4-.54v-.28h1.27l1.17,3,1.12-3h1.29v.28c-.43,0-.46,0-.43.54L35,42.25c0,.6,0,.66.53.7v.28H33.67V43h.1c.25,0,.46,0,.46-.46,0-.11,0-.23,0-.33l-.14-2.52h0l-1.34,3.59h-.14Z"/><path class="cls-1" d="M38.72,38.82h1.56v.28h0c-.48,0-.55.25-.55.59v1.77c0,1.58-1,1.88-1.69,1.88a1.55,1.55,0,0,1-1.77-1.64V39.58c0-.35-.08-.48-.42-.48h-.1v-.28h1.88v.28h-.1c-.25,0-.43.13-.43.48v2.11a1,1,0,0,0,1.09,1.16c.79,0,1.18-.52,1.18-1.3V39.83c0-.5-.12-.73-.49-.73h-.11Z"/><path class="cls-1" d="M41.3,42.38c0,.43.11.57.59.57v.28H40.45V43h0c.37,0,.46-.16.46-.45V39.25a.74.74,0,0,0-.48-.16v-.28h1.24l2.45,3V39.7c0-.51-.09-.6-.57-.6h-.06v-.28h1.55v.28H45c-.37,0-.49.09-.49.36v3.79h-.33L41.3,39.7Z"/><path class="cls-1" d="M45.32,38.82h1.91v.28h-.1c-.32,0-.46.16-.46.53v2.81c0,.35.1.52.47.52h.09v.28H45.32V43h.08c.32,0,.44-.18.44-.49V39.63c0-.37-.11-.53-.44-.53h-.08Z"/><path class="cls-1" d="M50,42.42c0,.37.1.53.52.53h.14v.28H48.48V43h.2c.33,0,.46-.16.46-.53V39.19h-.71c-.46,0-.53.09-.65.84h-.25l.11-1.33h.19a.4.4,0,0,0,.11.1.51.51,0,0,0,.17,0H51a.29.29,0,0,0,.29-.12h.19L51.58,40h-.25c-.11-.74-.19-.84-.65-.84H50Z"/><path class="cls-1" d="M54.51,42.43c0,.34.09.52.52.52h.09v.28h-2V43h.15c.36,0,.46-.19.46-.51v-1l-1.29-2c-.17-.27-.25-.33-.55-.33h0v-.28h2v.28h-.07c-.35,0-.4.17-.27.36l1,1.5.7-1.29c.16-.29.2-.57-.22-.57h-.07v-.28H56.2v.28c-.35,0-.45.11-.67.5l-1,1.86Z"/><path class="cls-1" d="M59,39.72c0-.55-.07-.62-.52-.62h-.15v-.28l.76-.06c.36,0,.71,0,1,0a2.09,2.09,0,0,1,1.65.5,1,1,0,0,1,.23.64c0,.43-.24.7-.74.83h0a1.21,1.21,0,0,1,.95,1.19,1.38,1.38,0,0,1-1.55,1.33H58.31V43c.59,0,.73-.18.73-.6Zm.83.86h.46a.67.67,0,0,0,.75-.74.79.79,0,0,0-.89-.86l-.32,0Zm0,1.69c0,.52.16.64.55.64.67,0,.84-.51.84-1a.93.93,0,0,0-.95-1.06l-.44,0Z"/><path class="cls-1" d="M65.29,39.21H64V40.8h1c.33,0,.45-.13.45-.51h.24V41.7H65.4c0-.38-.08-.51-.54-.51H64v1.28c0,.3,0,.37.22.37h1c.39,0,.58-.13.69-.72h.23L66,43.23H62.43V43h.25c.35,0,.47-.16.47-.51V39.61c0-.38-.11-.52-.52-.52h-.06v-.28h3.31l.06,1H65.7C65.64,39.37,65.56,39.21,65.29,39.21Z"/><path class="cls-1" d="M67.32,42.38c0,.43.11.57.59.57v.28H66.46V43h0c.37,0,.46-.16.46-.45V39.25a.74.74,0,0,0-.48-.16v-.28h1.24l2.45,3V39.7c0-.51-.09-.6-.57-.6h-.06v-.28h1.55v.28H71c-.37,0-.49.09-.49.36v3.79H70.2L67.32,39.7Z"/><path class="cls-1" d="M74,39.21H72.73V40.8h1c.33,0,.45-.13.45-.51h.24V41.7h-.24c0-.38-.08-.51-.54-.51h-.88v1.28c0,.3,0,.37.22.37h1c.39,0,.58-.13.69-.72h.23l-.07,1.11H71.19V43h.25c.35,0,.47-.16.47-.51V39.61c0-.38-.11-.52-.52-.52h-.06v-.28h3.31l.06,1h-.23C74.4,39.37,74.32,39.21,74,39.21Z"/><path class="cls-1" d="M76.59,40.8h.83c.42,0,.52-.11.52-.52h.24V41.7h-.24c0-.34-.1-.5-.41-.5h-.94v1.14c0,.51.08.62.4.62h.11v.28h-1.8V43h.1c.26,0,.35-.1.35-.4V39.68c0-.45-.11-.59-.37-.59h-.08v-.27h3v1h-.22c0-.47-.11-.61-.38-.61H76.59Z"/><path class="cls-1" d="M78.78,38.82h1.91v.28h-.1c-.32,0-.46.16-.46.53v2.81c0,.35.1.52.47.52h.09v.28H78.78V43h.08c.32,0,.44-.18.44-.49V39.63c0-.37-.11-.53-.44-.53h-.08Z"/><path class="cls-1" d="M83.44,42.42c0,.37.1.53.52.53h.14v.28H81.94V43h.2c.33,0,.46-.16.46-.53V39.19H81.9c-.46,0-.53.09-.65.84H81l.11-1.33h.19a.39.39,0,0,0,.11.1.51.51,0,0,0,.17,0h2.86a.29.29,0,0,0,.29-.12h.19L85,40h-.25c-.11-.74-.19-.84-.65-.84h-.71Z"/><path class="cls-1" d="M28.58,49c0,.18.06.28.23.28h.4v.21h-2v-.21h.38c.16,0,.22-.1.22-.26V46.3a3,3,0,0,1-.74.33L27,46.45a3.85,3.85,0,0,0,1.24-.93h.35Z"/><path class="cls-1" d="M30.59,49.41A2,2,0,0,0,32,47.81a1.13,1.13,0,0,1-.65.21,1.09,1.09,0,0,1-1.08-1.19,1.26,1.26,0,0,1,1.27-1.32c.81,0,1.36.62,1.36,1.68a2.5,2.5,0,0,1-2.15,2.42Zm.92-1.68a1,1,0,0,0,.52-.2c0-.19,0-.44,0-.66,0-.47-.08-1.13-.54-1.13s-.47.49-.47,1S31.06,47.73,31.51,47.73Z"/><path class="cls-1" d="M36,45.7a2,2,0,0,0-1.37,1.61,1.07,1.07,0,0,1,1.72,1,1.24,1.24,0,0,1-1.25,1.33c-.81,0-1.36-.66-1.36-1.65a2.49,2.49,0,0,1,2.15-2.46Zm-.93,1.69a.79.79,0,0,0-.5.21,4.06,4.06,0,0,0,0,.6c0,.44,0,1.18.52,1.18s.48-.57.48-1S35.53,47.39,35.08,47.39Z"/><path class="cls-1" d="M39,47.33a1.27,1.27,0,0,1,.83,1.12,1.24,1.24,0,0,1-1.3,1.17,1.18,1.18,0,0,1-1.27-1.05c0-.42.25-.71.76-.93a1.29,1.29,0,0,1-.69-1.06,1.12,1.12,0,0,1,1.2-1.06,1.1,1.1,0,0,1,1.2.94C39.69,46.83,39.47,47.1,39,47.33Zm-.74.45a.86.86,0,0,0-.33.77c0,.52.24.84.64.84a.62.62,0,0,0,.64-.63C39.16,48.3,38.86,48.13,38.21,47.78Zm.25-2a.52.52,0,0,0-.56.54c0,.35.24.6.86.91a.86.86,0,0,0,.31-.73C39.08,46,38.86,45.75,38.47,45.75Z"/><path class="cls-1" d="M44.17,47.23v.48H40.81v-.48Z"/><path class="cls-1" d="M45.11,49.3c1.27-1.4,1.66-1.76,1.66-2.46,0-.5-.25-.81-.64-.81a.78.78,0,0,0-.72.7h-.25a1.3,1.3,0,0,1,1.25-1.22,1.09,1.09,0,0,1,1.11,1.12c0,.9-.79,1.2-1.69,2.23H47c.33,0,.41-.17.45-.48h.21l-.13,1.14H45.11Z"/><path class="cls-1" d="M49.94,45.51c.64,0,1.3.62,1.3,2.05s-.74,2-1.3,2-1.31-.67-1.31-2S49.25,45.51,49.94,45.51Zm-.5,2.82c0,.69.11,1,.5,1s.5-.35.5-1.15V46.84c0-.94-.26-1.1-.49-1.1s-.51.3-.51,1Z"/><path class="cls-1" d="M53.87,49c0,.18.06.28.23.28h.4v.21h-2v-.21h.38c.16,0,.22-.1.22-.26V46.3a3,3,0,0,1-.74.33l-.08-.19a3.85,3.85,0,0,0,1.24-.93h.35Z"/><path class="cls-1" d="M57.32,47.33a1.27,1.27,0,0,1,.83,1.12,1.24,1.24,0,0,1-1.3,1.17,1.18,1.18,0,0,1-1.27-1.05c0-.42.25-.71.76-.93a1.29,1.29,0,0,1-.69-1.06,1.12,1.12,0,0,1,1.2-1.06,1.1,1.1,0,0,1,1.2.94C58.06,46.83,57.83,47.1,57.32,47.33Zm-.74.45a.86.86,0,0,0-.33.77c0,.52.24.84.64.84a.62.62,0,0,0,.64-.63C57.52,48.3,57.22,48.13,56.58,47.78Zm.25-2a.52.52,0,0,0-.56.54c0,.35.24.6.86.91a.86.86,0,0,0,.31-.73C57.44,46,57.22,45.75,56.83,45.75Z"/></g></g></svg>