<svg xmlns="http://www.w3.org/2000/svg" viewBox="0 0 281.81 99.44"><defs><style>.a{fill:#af996e;}.b{fill:#005eb8;}.c{fill:#63666a;}</style></defs><title>Logo</title><path class="a" d="M237.18,20.16a29.18,29.18,0,0,0-8.86,5.91c-3.76,3.86-8.12,12.67-10.2,16.68a68.77,68.77,0,0,1-6,9.67c-6,8-9.43,10.18-19,17.89-7.12,5.75-19.71,1.28-12,.36,12.45-1.49,20.39-7,25.6-21.66,4.12-11.62,8.82-26.5,27-30.27s29.82,3.15,33,11.05-3.09-4.46-11.22-7.77S244.26,18.13,237.18,20.16Z" transform="translate(-13.75 -7.8)"/><path class="a" d="M148.58,49.81c.27-.94,1.19-3.28,2.3-3.84s-.58,2.76-1.17,5.71c-.8,4-.27,5.47.23,7.14C149.94,58.82,147.25,54.48,148.58,49.81Z" transform="translate(-13.75 -7.8)"/><path class="a" d="M211.56,47c5.81,9.87,17.54,17,30.59,19.09s24-4.12,26.65-13.77,2.56-4,2.56-4-4.84,27.15-30.62,26c-10.07-.46-17.67-9.09-20.86-12.93a136.26,136.26,0,0,1-8.15-12Z" transform="translate(-13.75 -7.8)"/><path class="b" d="M228.33,26.07c2.74-2.77,12-10.62,24.79-4.26,10.58,5.26,18.21,22.59,15,33.71a28,28,0,0,1-11,14.84s12-6.06,16.39-24.87c3.62-15.66-5.78-29.17-28.31-27.75C233.2,18.5,228.33,26.07,228.33,26.07Z" transform="translate(-13.75 -7.8)"/><path class="b" d="M201.13,59.1c-4.73,5.78-17.92,17-36.62,8.18A46.67,46.67,0,0,1,151.18,58a9.45,9.45,0,0,1-2.38-8.26c.22-.93,1.15-3.14,2.2-3.78-.54,0-2,1.53-2.73,3.69-.42,1.25-.57,2.17-1.2,4.35-3.73,13,10.11,28.15,30.87,23.4a33.46,33.46,0,0,0,17.45-9,46.3,46.3,0,0,0,11.31-19A34.13,34.13,0,0,1,201.13,59.1Z" transform="translate(-13.75 -7.8)"/><path class="b" d="M215.4,53.88C213,49.62,206,34.34,194.73,29.67c-9.59-4-17.4,1.22-19.53,2.87,1.91-3.93,5-10.39,6.31-13.22,1.91-4.21,3-5.51,5.13-5.58,4.41-.15,10.84,4.89,22.29,6.59,13.13,2,13.21-9.84,13.21-9.84-2,.8-10.64,2.13-20.67-1.35-11.5-4-18.72,1.74-21,6.73-3,6.63-6.54,13.57-8.29,16.91-.67,1.18-1.37,2.39-2,3.37-.29.5-.77,1.35-1,1.64h0a9.36,9.36,0,0,1-1.37,1.61,4.81,4.81,0,0,1-1.8,1.2,2,2,0,0,1-.8.13c-.14,0,.07.31.69.44a7.77,7.77,0,0,0,4.69-.64c6.68-2.81,18.52-5.83,29.3.61S217.63,61,226.35,68A59.17,59.17,0,0,1,215.4,53.88Z" transform="translate(-13.75 -7.8)"/><path class="c" d="M18.71,11.68a3.79,3.79,0,0,1,1.11.41,2.56,2.56,0,0,1,.7.6,2,2,0,0,1,.37.71,2.72,2.72,0,0,1,.11.79,2.46,2.46,0,0,1-.92,2A4.08,4.08,0,0,1,17.4,17a5.65,5.65,0,0,1-1.6-.2,3.68,3.68,0,0,1-1.15-.53A2.42,2.42,0,0,1,14,15.5a1.5,1.5,0,0,1-.22-.76.79.79,0,0,1,.24-.59.83.83,0,0,1,.6-.23.79.79,0,0,1,.49.15,2.49,2.49,0,0,1,.43.46,4,4,0,0,0,.31.38,1.53,1.53,0,0,0,.35.29,2,2,0,0,0,.52.22,2.81,2.81,0,0,0,.72.09,1.87,1.87,0,0,0,1.17-.34,1,1,0,0,0,.43-.82.87.87,0,0,0-.19-.54,1.2,1.2,0,0,0-.66-.37l-2.25-.57a4.44,4.44,0,0,1-1.07-.42,2.13,2.13,0,0,1-.66-.57,2,2,0,0,1-.32-.66,3,3,0,0,1-.09-.74,2.32,2.32,0,0,1,.3-1.22,2.46,2.46,0,0,1,.79-.83A3.8,3.8,0,0,1,16,7.94a5.59,5.59,0,0,1,1.27-.15,5,5,0,0,1,1.17.15,4.62,4.62,0,0,1,1.12.43,2.6,2.6,0,0,1,.8.66,1.27,1.27,0,0,1,.29.8.7.7,0,0,1-.27.58,1,1,0,0,1-.64.21.71.71,0,0,1-.42-.12,2,2,0,0,1-.38-.37,3.06,3.06,0,0,0-.72-.6,2.26,2.26,0,0,0-1.09-.21,1.72,1.72,0,0,0-1.06.28.89.89,0,0,0-.38.75.64.64,0,0,0,.36.6,4.11,4.11,0,0,0,1,.35Z" transform="translate(-13.75 -7.8)"/><path class="c" d="M22.45,8.84a1,1,0,0,1,1.72-.72,1,1,0,0,1,.27.72v7.07a1,1,0,0,1-.27.72,1,1,0,0,1-.73.27.94.94,0,0,1-1-1Z" transform="translate(-13.75 -7.8)"/><path class="c" d="M26.25,9a1.14,1.14,0,0,1,.31-.89,1.37,1.37,0,0,1,.94-.28,1.08,1.08,0,0,1,1,.53L32,14h0V8.8a1,1,0,1,1,1.92,0v6.86a1.36,1.36,0,0,1-.28.92,1.14,1.14,0,0,1-.9.32,1.6,1.6,0,0,1-.68-.11,1.11,1.11,0,0,1-.41-.43L28.19,10.9h0v5a1,1,0,0,1-1.92,0Z" transform="translate(-13.75 -7.8)"/><path class="c" d="M43.85,16.24a.65.65,0,0,1-.2.48.67.67,0,0,1-.49.19.65.65,0,0,1-.58-.26,2.33,2.33,0,0,1-.27-.87,3.08,3.08,0,0,1-1.08.87,3.46,3.46,0,0,1-1.52.31,4.79,4.79,0,0,1-1.94-.36,3.5,3.5,0,0,1-1.33-1,4.23,4.23,0,0,1-.75-1.45,6.23,6.23,0,0,1-.24-1.78,5.38,5.38,0,0,1,.33-1.95A3.88,3.88,0,0,1,36.72,9a4,4,0,0,1,1.44-.89A5.54,5.54,0,0,1,40,7.8,4.49,4.49,0,0,1,41.44,8a3.55,3.55,0,0,1,1.07.53,2.6,2.6,0,0,1,.66.7,1.29,1.29,0,0,1,.23.67.78.78,0,0,1-.28.67,1.09,1.09,0,0,1-.66.2.7.7,0,0,1-.44-.12,2.58,2.58,0,0,1-.35-.38,2.83,2.83,0,0,0-.27-.34,1.38,1.38,0,0,0-.32-.25,1.72,1.72,0,0,0-.49-.2,3,3,0,0,0-.7-.07,2.26,2.26,0,0,0-1.78.76,3.46,3.46,0,0,0-.67,2.34,3.25,3.25,0,0,0,.65,2.12,2.2,2.2,0,0,0,1.83.8,2.14,2.14,0,0,0,1.41-.5A1.85,1.85,0,0,0,42,13.64h-1.3a1.12,1.12,0,0,1-.64-.17.66.66,0,0,1-.26-.59.68.68,0,0,1,.78-.76H43a.81.81,0,0,1,.62.21.88.88,0,0,1,.2.63Z" transform="translate(-13.75 -7.8)"/><path class="c" d="M47.59,8.45A.87.87,0,0,1,47.94,8a1.23,1.23,0,0,1,.62-.14H49a1.34,1.34,0,0,1,.66.16,1,1,0,0,1,.41.58l2.4,6.69c.05.14.09.28.13.42a1.19,1.19,0,0,1,.06.35.82.82,0,0,1-.27.62.94.94,0,0,1-.66.26.85.85,0,0,1-.89-.55l-.51-1.45h-3.2l-.52,1.45a.83.83,0,0,1-.89.55.93.93,0,0,1-.67-.23.83.83,0,0,1-.26-.64,1.29,1.29,0,0,1,.06-.35c0-.14.09-.28.13-.42ZM48.79,10h0l-1.18,3.51h2.33Z" transform="translate(-13.75 -7.8)"/><path class="c" d="M53.73,9.17a1.14,1.14,0,0,1,.3-.9A1.25,1.25,0,0,1,54.9,8h3a4.1,4.1,0,0,1,1.19.16,2.73,2.73,0,0,1,1,.5,2.38,2.38,0,0,1,.64.87A3.06,3.06,0,0,1,61,10.77a2.63,2.63,0,0,1-.81,2,3.07,3.07,0,0,1-2.23.77H55.73v2.37a1,1,0,0,1-.27.72,1.1,1.1,0,0,1-1.45,0,1,1,0,0,1-.28-.72Zm2,2.84h1.86a1.46,1.46,0,0,0,1-.34,1.12,1.12,0,0,0,.4-.9,1.07,1.07,0,0,0-.42-.93,2,2,0,0,0-1.18-.3H55.73Z" transform="translate(-13.75 -7.8)"/><path class="c" d="M62.19,10.48A4,4,0,0,1,63,9.06a3.7,3.7,0,0,1,1.39-.94,5.61,5.61,0,0,1,3.77,0,3.85,3.85,0,0,1,1.39.94,4.14,4.14,0,0,1,.85,1.42,5.2,5.2,0,0,1,.29,1.79,5.79,5.79,0,0,1-.27,1.79,4.22,4.22,0,0,1-.83,1.49,3.94,3.94,0,0,1-1.39,1,4.66,4.66,0,0,1-1.92.38,5.16,5.16,0,0,1-2-.35,3.62,3.62,0,0,1-1.38-1,4,4,0,0,1-.79-1.48,6.33,6.33,0,0,1-.26-1.87A5.23,5.23,0,0,1,62.19,10.48Zm1.82,3a2.94,2.94,0,0,0,.4,1,2,2,0,0,0,.75.66,2.57,2.57,0,0,0,1.15.23,2.47,2.47,0,0,0,1.12-.23,2.07,2.07,0,0,0,.76-.66,2.9,2.9,0,0,0,.42-1,5.3,5.3,0,0,0,.13-1.21,3.26,3.26,0,0,0-.62-2.08,2.48,2.48,0,0,0-3.62,0,3.26,3.26,0,0,0-.62,2.08A5.88,5.88,0,0,0,64,13.48Z" transform="translate(-13.75 -7.8)"/><path class="c" d="M72.19,9.17a1.15,1.15,0,0,1,.3-.9A1.26,1.26,0,0,1,73.36,8h3.32a4.14,4.14,0,0,1,1.44.21,2.33,2.33,0,0,1,.93.56,2,2,0,0,1,.48.77,2.67,2.67,0,0,1,.15.89,2.36,2.36,0,0,1-.41,1.34,1.75,1.75,0,0,1-1.1.76v0a1.19,1.19,0,0,1,1,.56,2.57,2.57,0,0,1,.25,1.22,4.37,4.37,0,0,0,0,.7c0,.19.08.39.13.59a2.13,2.13,0,0,1,.09.51.68.68,0,0,1-.29.56,1,1,0,0,1-.65.22,1.09,1.09,0,0,1-.62-.16,1,1,0,0,1-.37-.39,1.54,1.54,0,0,1-.16-.45,2.42,2.42,0,0,1,0-.41,3.49,3.49,0,0,0-.29-1.67,1.16,1.16,0,0,0-1.09-.48h-2v2.56a1,1,0,0,1-.27.72,1,1,0,0,1-.73.27,1,1,0,0,1-.72-.27,1,1,0,0,1-.27-.72Zm2,2.72h2a3.19,3.19,0,0,0,.58,0,1.39,1.39,0,0,0,.47-.17.87.87,0,0,0,.34-.37,1.25,1.25,0,0,0,.12-.59,1.06,1.06,0,0,0-.37-.92,1.89,1.89,0,0,0-1.08-.25H74.18Z" transform="translate(-13.75 -7.8)"/><path class="c" d="M81.24,9.17a1.16,1.16,0,0,1,.29-.9A1.26,1.26,0,0,1,82.4,8h4.68a1.35,1.35,0,0,1,.75.17.7.7,0,0,1,.26.63.7.7,0,0,1-.26.62,1.3,1.3,0,0,1-.75.18H83.23V11.5h3.38a1.2,1.2,0,0,1,.68.17.66.66,0,0,1,.25.6.66.66,0,0,1-.25.59,1.17,1.17,0,0,1-.68.17H83.23v2.11h3.95a1.34,1.34,0,0,1,.75.18.88.88,0,0,1,0,1.25,1.34,1.34,0,0,1-.75.18H82.4a1.27,1.27,0,0,1-.87-.27,1.18,1.18,0,0,1-.29-.9Z" transform="translate(-13.75 -7.8)"/><path class="c" d="M13.75,99.43a1.16,1.16,0,0,1,.3-.9,1.27,1.27,0,0,1,.87-.27H18a4.16,4.16,0,0,1,1.2.16,2.7,2.7,0,0,1,1,.5,2.23,2.23,0,0,1,.64.87A3,3,0,0,1,21,101a2.64,2.64,0,0,1-.81,2,3.09,3.09,0,0,1-2.23.77H15.75v2.38a1,1,0,0,1-.27.73,1.1,1.1,0,0,1-1.46,0,1,1,0,0,1-.27-.73Zm2,2.85h1.86a1.5,1.5,0,0,0,1-.34A1.14,1.14,0,0,0,19,101a1.07,1.07,0,0,0-.42-.94,2,2,0,0,0-1.19-.31H15.75Z" transform="translate(-13.75 -7.8)"/><path class="c" d="M30.14,100.74A4,4,0,0,1,31,99.32a3.69,3.69,0,0,1,1.39-.94,5.54,5.54,0,0,1,3.78,0,3.77,3.77,0,0,1,1.4.94,4.07,4.07,0,0,1,.86,1.43,5.31,5.31,0,0,1,.29,1.79,5.92,5.92,0,0,1-.27,1.8,4.31,4.31,0,0,1-.84,1.5,3.89,3.89,0,0,1-1.4,1,4.57,4.57,0,0,1-1.93.38,5.14,5.14,0,0,1-2-.36,3.62,3.62,0,0,1-1.39-1,3.94,3.94,0,0,1-.8-1.49,6.49,6.49,0,0,1-.26-1.88A5.2,5.2,0,0,1,30.14,100.74Zm1.82,3a3,3,0,0,0,.4,1,2,2,0,0,0,.75.66,2.58,2.58,0,0,0,1.16.23,2.48,2.48,0,0,0,1.13-.23,2,2,0,0,0,.76-.67,3,3,0,0,0,.42-1,5.13,5.13,0,0,0,.13-1.21,3.28,3.28,0,0,0-.62-2.09,2.5,2.5,0,0,0-3.64,0,3.3,3.3,0,0,0-.62,2.09A6,6,0,0,0,32,103.76Z" transform="translate(-13.75 -7.8)"/><path class="c" d="M48,100.74a4.18,4.18,0,0,1,.86-1.43,3.73,3.73,0,0,1,1.39-.94,5.54,5.54,0,0,1,3.78,0,3.74,3.74,0,0,1,1.39.94,4,4,0,0,1,.86,1.43,5.23,5.23,0,0,1,.29,1.79,5.83,5.83,0,0,1-.27,1.8,4.34,4.34,0,0,1-.84,1.5,3.85,3.85,0,0,1-1.4,1,4.57,4.57,0,0,1-1.93.38,5.17,5.17,0,0,1-2-.36,3.63,3.63,0,0,1-1.39-1,4,4,0,0,1-.8-1.49,6.42,6.42,0,0,1-.26-1.88A5.25,5.25,0,0,1,48,100.74Zm1.83,3a2.84,2.84,0,0,0,.4,1,2,2,0,0,0,.76.66,2.54,2.54,0,0,0,1.15.23,2.44,2.44,0,0,0,1.13-.23,2,2,0,0,0,.76-.67,2.72,2.72,0,0,0,.42-1,5.21,5.21,0,0,0,.13-1.21,3.31,3.31,0,0,0-.62-2.09,2.5,2.5,0,0,0-3.63,0,3.27,3.27,0,0,0-.62,2.09A5.58,5.58,0,0,0,49.82,103.76Z" transform="translate(-13.75 -7.8)"/><path class="c" d="M65.95,99.1a1,1,0,0,1,1.73-.73,1,1,0,0,1,.27.73v6.25h3.34a1.22,1.22,0,0,1,.74.22.74.74,0,0,1,.3.62.73.73,0,0,1-.3.62,1.17,1.17,0,0,1-.74.22H67.11a1.26,1.26,0,0,1-.87-.27,1.17,1.17,0,0,1-.3-.9Z" transform="translate(-13.75 -7.8)"/><path class="c" d="M85.89,101.95a3.89,3.89,0,0,1,1.11.42,2.48,2.48,0,0,1,.71.61,2.2,2.2,0,0,1,.36.71,2.84,2.84,0,0,1,.11.79,2.46,2.46,0,0,1-.93,2,4.1,4.1,0,0,1-2.68.77A6,6,0,0,1,83,107a3.62,3.62,0,0,1-1.15-.54,2.49,2.49,0,0,1-.69-.72,1.52,1.52,0,0,1-.22-.76.81.81,0,0,1,.24-.6.84.84,0,0,1,.6-.23.81.81,0,0,1,.49.15,2.66,2.66,0,0,1,.43.46c.11.15.22.28.31.38a1.69,1.69,0,0,0,.36.29,2.11,2.11,0,0,0,.51.22,2.64,2.64,0,0,0,.72.09,1.85,1.85,0,0,0,1.17-.34,1,1,0,0,0,.43-.81.86.86,0,0,0-.19-.55,1.2,1.2,0,0,0-.66-.37l-2.26-.57A4.15,4.15,0,0,1,82,102.7a2.21,2.21,0,0,1-.66-.57,1.93,1.93,0,0,1-.32-.65,3.11,3.11,0,0,1-.08-.75,2.39,2.39,0,0,1,.3-1.22,2.52,2.52,0,0,1,.8-.84,3.67,3.67,0,0,1,1.12-.47A5.28,5.28,0,0,1,84.43,98a4.8,4.8,0,0,1,1.18.15,4.54,4.54,0,0,1,1.11.43,2.65,2.65,0,0,1,.81.66,1.3,1.3,0,0,1,.3.81.7.7,0,0,1-.27.58,1,1,0,0,1-.65.21.71.71,0,0,1-.42-.12,2.34,2.34,0,0,1-.38-.37,3,3,0,0,0-.73-.6,2.23,2.23,0,0,0-1.09-.21,1.71,1.71,0,0,0-1.06.29.88.88,0,0,0-.38.74.65.65,0,0,0,.37.6,3.76,3.76,0,0,0,1,.35Z" transform="translate(-13.75 -7.8)"/><path class="b" d="M60.58,66a3.57,3.57,0,0,0-.52-7.1v0H40.46a14.63,14.63,0,1,1,0-29.25H69.09l2.51-9.39H23.3a9.55,9.55,0,0,0-9.55,9.54V85.16a9.53,9.53,0,0,0,5.73,8.74L26.95,66H60.58ZM82.46,21.07,77.19,40.72H43.56a3.57,3.57,0,0,0,.51,7.1v0H63.68a14.63,14.63,0,1,1,0,29.25H35L30.32,94.71H78.64a9.55,9.55,0,0,0,9.55-9.55V29.81A9.53,9.53,0,0,0,82.46,21.07Z" transform="translate(-13.75 -7.8)"/><path class="b" d="M235.82,51.78h-.5l.06-.1c.29-.57.51-1,.7-1.43.36-.8.55-1.26.55-1.26h0l.21-.47.45-1.06,4.17-9.81h-1.3l-2.2,5.17a32.23,32.23,0,0,1-1.68,2.85,22.4,22.4,0,0,1-1.48,2,9.86,9.86,0,0,1-1.26,1.25,6.6,6.6,0,0,1-1,.69,3.31,3.31,0,0,1-.75.3,2.47,2.47,0,0,1-.47.07.39.39,0,0,1-.43-.45,3,3,0,0,1,.09-.61c.06-.26.13-.54.23-.84s.2-.64.33-1,.26-.69.4-1l2.44-5.7c.12-.27.24-.56.35-.85s.21-.58.29-.87a8,8,0,0,0,.33-2,3.44,3.44,0,0,0-.32-1.42,3.25,3.25,0,0,0-1.25-1.38,4,4,0,0,0-2.09-.54,5.87,5.87,0,0,0-2.32.49,8.38,8.38,0,0,0-2.15,1.32,11.77,11.77,0,0,0-.94.89,11.11,11.11,0,0,0-.82,1,7.6,7.6,0,0,0-1.2,2.35,5,5,0,0,0-.05,2.58,3.72,3.72,0,0,0,1.23,2,2.88,2.88,0,0,0,2,.65,3.14,3.14,0,0,0,1.67-.59,4.86,4.86,0,0,0,1-1,6.08,6.08,0,0,0,.46-.74l.15-.27h-.33l-.08.14a4.72,4.72,0,0,1-.43.71,3.88,3.88,0,0,1-.9.9,2.85,2.85,0,0,1-1.53.53,2.53,2.53,0,0,1-1.75-.64,2.78,2.78,0,0,1-.95-1.84,4.77,4.77,0,0,1,.38-2.21,9.9,9.9,0,0,1,1.1-2.08c.2-.32.49-.67.72-1a10.58,10.58,0,0,1,.81-.88,7.41,7.41,0,0,1,1.88-1.35,5,5,0,0,1,2.07-.51,3.45,3.45,0,0,1,1.8.48,2.43,2.43,0,0,1,.8.8c.5,1-.27,2.84-.39,3.16s-.26.67-.41,1L233,40.32,230.57,46c-.11.25-.21.52-.31.79s-.19.54-.27.81a8,8,0,0,0-.19.79,3.64,3.64,0,0,0-.07.69,1.51,1.51,0,0,0,.32,1,1.18,1.18,0,0,0,1,.39,3.39,3.39,0,0,0,1.08-.2,4.94,4.94,0,0,0,1.3-.71,10.59,10.59,0,0,0,1.5-1.38,17.35,17.35,0,0,0,1.37-1.72c.11-.15.14-.06.1.05s-.41,1-.41,1c-.19.45-.37.86-.55,1.26l-.43.9-.56,1.18-.16.34-.17.33h0l-.16.27h0l0,.08c-1,0-2.08.1-3.2.23a19.38,19.38,0,0,0-2.87.56,8.94,8.94,0,0,0-1.42.54,3.88,3.88,0,0,0-1.27.92,1.44,1.44,0,0,0-.37.78,1.08,1.08,0,0,0,.31.85,2.61,2.61,0,0,0,1.47.66,8.35,8.35,0,0,0,3-.18,9.05,9.05,0,0,0,2.61-1.06,9.47,9.47,0,0,0,2-1.6,7,7,0,0,0,.92-1.24l.75,0c1.49.08,2.73.23,3.59.33l1.16.13.29-.68s-.5-.06-1.38-.13S237.32,51.8,235.82,51.78Zm-2.58,1a8.48,8.48,0,0,1-1.62,1.6,7.72,7.72,0,0,1-2.27,1.19,6.73,6.73,0,0,1-2.74.32,2.2,2.2,0,0,1-1.22-.47.74.74,0,0,1,0-1.06,5.46,5.46,0,0,1,2.49-1.36,15.37,15.37,0,0,1,2.8-.56,25.35,25.35,0,0,1,2.9-.15C233.5,52.39,233.38,52.56,233.24,52.73Z" transform="translate(-13.75 -7.8)"/><path class="b" d="M262.9,44.81c-1.05-1.33-1.37-2-1.36-2.69.41-.43,1.19-1.19.77-1.63s-1.65-.16-1.66,1.88a.39.39,0,0,0,0,0c-.22.3-.46.63-.73,1S257,47,257,47a2.12,2.12,0,0,1-.42.41.64.64,0,0,1-.34.14.23.23,0,0,1-.14,0,.18.18,0,0,1-.06-.16.54.54,0,0,1,0-.16c0-.06,0-.13.07-.19l1.55-3.72c.05-.13.11-.29.16-.48a1.55,1.55,0,0,0,.09-.46.5.5,0,0,0-.11-.32.47.47,0,0,0-.39-.14l-.3,0h-.64a.76.76,0,0,1-.29-.08,2.89,2.89,0,0,0,.44-.66,1.15,1.15,0,0,0,.12-.44.4.4,0,0,0-.18-.36.66.66,0,0,0-.38-.12.72.72,0,0,0-.44.14,1.32,1.32,0,0,0-.32.33,1.8,1.8,0,0,0-.19.39,1.13,1.13,0,0,0-.06.31.69.69,0,0,0,.16.47,1.11,1.11,0,0,0,.39.28c-.27.38-.59.82-1,1.29S252,47,252,47a2.35,2.35,0,0,1-.42.41.63.63,0,0,1-.34.14.24.24,0,0,1-.15,0s-.05-.08-.05-.16a.63.63,0,0,1,0-.17,1,1,0,0,1,.07-.19l.2-.49.35-.85.41-1,.41-1,.33-.81c.09-.22.15-.37.18-.43a1.82,1.82,0,0,0,.09-.25,1.11,1.11,0,0,0,0-.27.45.45,0,0,0-.08-.27.34.34,0,0,0-.29-.11.81.81,0,0,0-.37.09,1.51,1.51,0,0,0-.38.33c-.14.16-.31.37-.51.63l-.73,1-.63.84-.68.88-.67.83q-.33.4-.62.71a5,5,0,0,1-.5.49.62.62,0,0,1-.33.18.17.17,0,0,1-.16-.12.74.74,0,0,1-.05-.3,2.81,2.81,0,0,1,.16-.82,6.07,6.07,0,0,1,.45-1,10.15,10.15,0,0,1,.7-1.11,8.88,8.88,0,0,1,.89-1.05,7.26,7.26,0,0,1,1.06-.87,4.36,4.36,0,0,1,1.18-.56v-.18a4.38,4.38,0,0,0-1.47.41,7.45,7.45,0,0,0-1.39.85,9.29,9.29,0,0,0-1.23,1.15c-.29.33-1.92,2.32-2.4,2.8a8.09,8.09,0,0,1-1.3,1.12,4.7,4.7,0,0,1-1.05.59,2.51,2.51,0,0,1-.86.17.8.8,0,0,1-.56-.21,1.06,1.06,0,0,1-.23-.78,3.14,3.14,0,0,1,.08-.67,7.09,7.09,0,0,1,.23-.77,3.94,3.94,0,0,0,1-.14,6.29,6.29,0,0,0,2.05-.95,5,5,0,0,0,.84-.73,3.63,3.63,0,0,0,.58-.84,2,2,0,0,0,.22-.92,1.36,1.36,0,0,0-.26-.85,1,1,0,0,0-.84-.33,2.6,2.6,0,0,0-.94.21,6,6,0,0,0-1.11.6,8.12,8.12,0,0,0-1.13.93,7.84,7.84,0,0,0-1,1.2,6.26,6.26,0,0,0-.71,1.4,4.48,4.48,0,0,0-.27,1.54,1.78,1.78,0,0,0,.19.88,1.53,1.53,0,0,0,.48.54,1.72,1.72,0,0,0,.61.27,2.74,2.74,0,0,0,.59.08l.43,0a2.68,2.68,0,0,0,.58-.15,4.84,4.84,0,0,0,.75-.35,7,7,0,0,0,1-.67,11.28,11.28,0,0,0,.86-.78l.41-.4.14-.15.1-.11-.06.14a3.35,3.35,0,0,0-.24,1.16,1.79,1.79,0,0,0,.08.58.94.94,0,0,0,.21.35.69.69,0,0,0,.27.18.77.77,0,0,0,.26.05,1.24,1.24,0,0,0,.74-.28,8.13,8.13,0,0,0,.86-.76c.13-.13.28-.3.46-.52s.37-.47.58-.74l.6-.83.57-.79.44-.62.24-.34c.07-.1.13-.15.19-.15s.07,0,.07.1a1,1,0,0,1-.07.2l-.17.43-.23.57-.26.62-.25.59c-.08.19-.14.33-.2.45-.15.32-.26.59-.34.81a1.87,1.87,0,0,0-.12.63.58.58,0,0,0,.2.45.75.75,0,0,0,.51.18,1.45,1.45,0,0,0,.38,0,1.59,1.59,0,0,0,.38-.17,2.59,2.59,0,0,0,.4-.32,4.84,4.84,0,0,0,.46-.51l2.67-3.34.64-.84.51-.68.39-.54a1.51,1.51,0,0,0,.3.05h.28a.14.14,0,0,1,.09,0,.08.08,0,0,1,0,.07.54.54,0,0,1,0,.15,2.17,2.17,0,0,1-.06.22l-.09.25-.1.25-1.41,3.37c-.14.33-.25.61-.33.84a1.84,1.84,0,0,0-.12.6.6.6,0,0,0,.19.45.7.7,0,0,0,.49.18,1.4,1.4,0,0,0,.37,0,1.42,1.42,0,0,0,.36-.17,2.57,2.57,0,0,0,.39-.32,6,6,0,0,0,.45-.51s2.92-3.63,3.29-4.11l.51-.68c.23,1.4,1.28,2.43,1.43,3.23.39,2-.77,2.93-1.74,3a.9.9,0,0,1-.29,0c.84-1.15,1-2.34.54-2.8a1.19,1.19,0,0,0-1.64.21,1.65,1.65,0,0,0,.37,2.58c-.34.34-.69.65-.69.65h.86a4.84,4.84,0,0,0,.42-.45,3.19,3.19,0,0,0,3.47-1.47A2.81,2.81,0,0,0,262.9,44.81Zm-20.72-.44a11.79,11.79,0,0,1,.86-1.3,6.41,6.41,0,0,1,.86-1,1.19,1.19,0,0,1,.71-.37.33.33,0,0,1,.25.1.56.56,0,0,1,.1.39,2.69,2.69,0,0,1-.25,1.05,4,4,0,0,1-.7,1.09,4.68,4.68,0,0,1-1.1.9,3.9,3.9,0,0,1-1.42.51A9.87,9.87,0,0,1,242.18,44.37Zm17.08,3.36c0-.75.64-1.54,1.09-1.35.62.27.13,1.27-.26,1.85a5.12,5.12,0,0,1-.45.55A1.61,1.61,0,0,1,259.26,47.73Z" transform="translate(-13.75 -7.8)"/><path class="c" d="M127.69,89.57h1.67c.84,0,1-.23,1-1h.48v2.83h-.48c0-.68-.19-1-.83-1h-1.89v2.29c0,1,.16,1.23.81,1.23h.23v.55h-3.6v-.55h.19c.52,0,.71-.2.71-.81V87.31c0-.91-.22-1.18-.75-1.18h-.16v-.54h6.08v2h-.43c0-.94-.22-1.22-.76-1.22h-2.32Z" transform="translate(-13.75 -7.8)"/><path class="c" d="M137,85.33a4.23,4.23,0,0,1,4.3,4.52,4.5,4.5,0,0,1-4.53,4.79,4.26,4.26,0,0,1-4.38-4.47A4.55,4.55,0,0,1,137,85.33Zm0,8.69c1.67,0,2.45-1.7,2.45-3.66,0-2.29-1-4.42-2.79-4.42-1.53,0-2.53,1.39-2.53,3.54C134.23,92.19,135.4,94,137.1,94Z" transform="translate(-13.75 -7.8)"/><path class="c" d="M145,92.84c0,.72.26,1,1,1h.36v.55h-4.21v-.55h.19c.73,0,1-.21,1-1V87.23c0-.68-.16-1.08-1-1.08h-.25v-.56l1.55-.11c.67-.06,1.54-.1,2-.1,1.77,0,2.73.27,3.33,1a2.42,2.42,0,0,1,.58,1.62,2.36,2.36,0,0,1-1.78,2.29c.8.78,1.22,1.9,2.07,2.91a2,2,0,0,0,1.59.84v.56h-.75c-1.49,0-2.11-.25-2.67-.92s-1.3-2.2-2.07-3h-1Zm0-2.76h.47c1.46,0,2.3-.52,2.3-2a1.9,1.9,0,0,0-2.14-2H145Z" transform="translate(-13.75 -7.8)"/><path class="c" d="M163.7,91.89a12.61,12.61,0,0,1-.67,2.58,2.08,2.08,0,0,0-.71-.1c-.57,0-1.17.26-2.07.26A4.43,4.43,0,0,1,155.87,90a4.59,4.59,0,0,1,4.61-4.66,7,7,0,0,1,2.31.58.29.29,0,0,0,.24-.14h.3l.11,2.49H163c-.38-1.4-1.24-2.2-2.39-2.2-1.72,0-2.91,1.54-2.91,3.78s1.32,4,3,4a2.77,2.77,0,0,0,2.51-2Z" transform="translate(-13.75 -7.8)"/><path class="c" d="M169.39,85.33a4.23,4.23,0,0,1,4.3,4.52,4.49,4.49,0,0,1-4.53,4.79,4.26,4.26,0,0,1-4.38-4.47A4.55,4.55,0,0,1,169.39,85.33Zm0,8.69c1.67,0,2.46-1.7,2.46-3.66,0-2.29-1-4.42-2.79-4.42-1.53,0-2.53,1.39-2.53,3.54C166.58,92.19,167.74,94,169.44,94Z" transform="translate(-13.75 -7.8)"/><path class="c" d="M176.52,87.41h0l-.26,5.06c0,.94,0,1.39,1,1.41v.55h-2.67v-.55c.94,0,1-.33,1-1.5l.27-5.14c0-.73,0-1-.81-1.08v-.56h2.54l2.35,6,2.25-6h2.59v.56c-.87.05-.93.05-.87,1.08l.29,5.24c.06,1.19.1,1.32,1.06,1.41v.55h-3.79v-.55h.2c.5,0,.92,0,.92-.92,0-.23,0-.46,0-.67l-.28-5h0l-2.69,7.19h-.29Z" transform="translate(-13.75 -7.8)"/><path class="c" d="M187.68,87.41h0l-.26,5.06c0,.94,0,1.39,1,1.41v.55H185.7v-.55c.94,0,1-.33,1-1.5l.26-5.14c0-.73,0-1-.81-1.08v-.56h2.54l2.35,6,2.25-6h2.59v.56c-.87.05-.93.05-.87,1.08l.29,5.24c.06,1.19.1,1.32,1.06,1.41v.55H192.6v-.55h.21c.5,0,.93,0,.93-.92,0-.23,0-.46,0-.67l-.28-5h0l-2.69,7.19h-.29Z" transform="translate(-13.75 -7.8)"/><path class="c" d="M202.72,85.59h3.12v.56h-.08c-1,0-1.11.5-1.11,1.18v3.54c0,3.17-2,3.76-3.38,3.76-2.17,0-3.54-1.11-3.54-3.28V87.11c0-.71-.17-1-.84-1h-.2v-.56h3.77v.56h-.21c-.5,0-.85.27-.85,1v4.23a2.06,2.06,0,0,0,2.18,2.33c1.58,0,2.36-1.05,2.36-2.61V87.61c0-1-.24-1.46-1-1.46h-.22Z" transform="translate(-13.75 -7.8)"/><path class="c" d="M207.9,92.73c0,.87.23,1.15,1.19,1.15v.55h-2.91v-.55h.07c.73,0,.91-.31.91-.89V86.46a1.49,1.49,0,0,0-1-.31v-.56h2.48l4.91,6.05V87.36c0-1-.18-1.21-1.14-1.21h-.12v-.56h3.1v.56h-.12c-.75,0-1,.19-1,.72v7.6h-.66l-5.76-7.12Z" transform="translate(-13.75 -7.8)"/><path class="c" d="M216,85.59h3.83v.56h-.21c-.65,0-.91.33-.91,1.07v5.63c0,.69.2,1,.94,1h.18v.55H216v-.55h.17c.64,0,.88-.35.88-1V87.22c0-.74-.22-1.07-.89-1.07H216Z" transform="translate(-13.75 -7.8)"/><path class="c" d="M225.28,92.81c0,.74.19,1.07,1,1.07h.29v.55h-4.33v-.55h.41c.66,0,.93-.31.93-1.07V86.34h-1.42c-.92,0-1.07.17-1.3,1.67h-.5l.22-2.66H221a.82.82,0,0,0,.23.2,1.05,1.05,0,0,0,.35,0h5.73a.57.57,0,0,0,.58-.24h.38l.22,2.66H228c-.23-1.49-.37-1.67-1.3-1.67h-1.42Z" transform="translate(-13.75 -7.8)"/><path class="c" d="M234.36,92.83c0,.68.18,1.05,1,1.05h.18v.55h-4.11v-.55h.3c.72,0,.92-.38.92-1v-2l-2.58-4.06c-.35-.54-.49-.67-1.1-.67h-.08v-.56h3.92v.56h-.14c-.7,0-.79.34-.54.72l1.93,3,1.39-2.58c.31-.58.41-1.13-.43-1.13h-.14v-.56h2.84v.56c-.7.05-.9.21-1.34,1l-2.06,3.74Z" transform="translate(-13.75 -7.8)"/><path class="c" d="M243.45,87.4c0-1.09-.13-1.25-1-1.25h-.3v-.56c.3,0,.88-.07,1.52-.11s1.43-.1,2-.1c1.5,0,2.66.24,3.31,1a2.06,2.06,0,0,1,.45,1.29c0,.87-.48,1.41-1.48,1.66v0a2.42,2.42,0,0,1,1.9,2.39c0,1.45-1.12,2.67-3.1,2.67H242v-.55c1.18,0,1.45-.35,1.45-1.19Zm1.66,1.73.92,0a1.34,1.34,0,0,0,1.5-1.49,1.58,1.58,0,0,0-1.79-1.73,4.19,4.19,0,0,0-.64,0Zm0,3.38c0,1,.32,1.28,1.09,1.28,1.35,0,1.69-1,1.69-2A1.87,1.87,0,0,0,246,89.7c-.23,0-.7,0-.88,0Z" transform="translate(-13.75 -7.8)"/><path class="c" d="M256,86.38h-2.64v3.2h1.95c.66,0,.91-.27.91-1h.48v2.83h-.48c0-.77-.16-1-1.09-1h-1.77v2.56c0,.61.1.74.45.74h2c.78,0,1.15-.25,1.38-1.45h.46l-.15,2.23h-7.24v-.55h.49c.7,0,.94-.33.94-1V87.19c0-.77-.22-1-1-1h-.12v-.56h6.63l.12,2.06h-.46C256.68,86.69,256.53,86.38,256,86.38Z" transform="translate(-13.75 -7.8)"/><path class="c" d="M260.05,92.73c0,.87.23,1.15,1.19,1.15v.55h-2.91v-.55h.07c.73,0,.91-.31.91-.89V86.46a1.48,1.48,0,0,0-1-.31v-.56h2.48l4.91,6.05V87.36c0-1-.18-1.21-1.14-1.21h-.12v-.56h3.1v.56h-.12c-.74,0-1,.19-1,.72v7.6h-.66l-5.76-7.12Z" transform="translate(-13.75 -7.8)"/><path class="c" d="M273.53,86.38h-2.64v3.2h2c.66,0,.9-.27.9-1h.48v2.83h-.48c0-.77-.16-1-1.08-1h-1.77v2.56c0,.61.1.74.45.74h2c.78,0,1.16-.25,1.38-1.45h.46L275,94.43H267.8v-.55h.49c.7,0,.94-.33.94-1V87.19c0-.77-.21-1-1-1h-.12v-.56h6.63l.12,2.06h-.46C274.23,86.69,274.08,86.38,273.53,86.38Z" transform="translate(-13.75 -7.8)"/><path class="c" d="M278.61,89.57h1.67c.84,0,1-.23,1-1h.48v2.83h-.48c0-.68-.19-1-.83-1h-1.89v2.29c0,1,.16,1.23.81,1.23h.23v.55h-3.6v-.55h.19c.52,0,.71-.2.71-.81V87.31c0-.91-.22-1.18-.75-1.18h-.16v-.54h6.08v2h-.43c0-.94-.22-1.22-.76-1.22h-2.32Z" transform="translate(-13.75 -7.8)"/><path class="c" d="M283,85.59h3.83v.56h-.2c-.65,0-.92.33-.92,1.07v5.63c0,.69.2,1,.94,1h.18v.55H283v-.55h.17c.64,0,.88-.35.88-1V87.22c0-.74-.22-1.07-.89-1.07H283Z" transform="translate(-13.75 -7.8)"/><path class="c" d="M292.34,92.81c0,.74.19,1.07,1,1.07h.29v.55h-4.33v-.55h.41c.66,0,.93-.31.93-1.07V86.34h-1.42c-.92,0-1.07.17-1.3,1.67h-.49l.22-2.66h.38a.83.83,0,0,0,.23.2,1,1,0,0,0,.35,0h5.73a.56.56,0,0,0,.58-.24h.39l.22,2.66h-.49c-.23-1.49-.37-1.67-1.3-1.67h-1.42Z" transform="translate(-13.75 -7.8)"/><path class="c" d="M182.41,106.05c0,.37.12.57.47.57h.81V107h-4v-.43h.76c.32,0,.44-.2.44-.52v-5.51a5.91,5.91,0,0,1-1.49.67l-.16-.38A7.77,7.77,0,0,0,181.7,99h.7Z" transform="translate(-13.75 -7.8)"/><path class="c" d="M186.43,106.82a4,4,0,0,0,2.79-3.2,2.26,2.26,0,0,1-1.3.43,2.19,2.19,0,0,1-2.16-2.38A2.53,2.53,0,0,1,188.3,99c1.62,0,2.73,1.24,2.73,3.37a5,5,0,0,1-4.3,4.86Zm1.84-3.37a1.92,1.92,0,0,0,1-.39c0-.38.09-.88.09-1.32,0-.95-.15-2.26-1.09-2.26s-.95,1-.95,2S187.38,103.45,188.27,103.45Z" transform="translate(-13.75 -7.8)"/><path class="c" d="M197.28,99.39a4,4,0,0,0-2.75,3.22,2.15,2.15,0,0,1,3.45,2,2.48,2.48,0,0,1-2.51,2.66c-1.63,0-2.72-1.32-2.72-3.31A5,5,0,0,1,197,99Zm-1.86,3.38a1.59,1.59,0,0,0-1,.42,8,8,0,0,0-.08,1.21c0,.88.09,2.36,1,2.36s1-1.15,1-2S196.32,102.77,195.43,102.77Z" transform="translate(-13.75 -7.8)"/><path class="c" d="M203.19,102.65a2.54,2.54,0,0,1,1.67,2.25,2.5,2.5,0,0,1-2.6,2.35,2.36,2.36,0,0,1-2.54-2.11c0-.83.49-1.43,1.53-1.86a2.59,2.59,0,0,1-1.39-2.13A2.24,2.24,0,0,1,202.27,99a2.21,2.21,0,0,1,2.41,1.89C204.68,101.65,204.22,102.19,203.19,102.65Zm-1.48.91a1.72,1.72,0,0,0-.67,1.54c0,1,.48,1.68,1.27,1.68a1.23,1.23,0,0,0,1.29-1.26C203.61,104.6,203,104.25,201.71,103.55Zm.5-4.08a1,1,0,0,0-1.12,1.09c0,.7.48,1.2,1.72,1.82a1.72,1.72,0,0,0,.63-1.46C203.44,100,203,99.48,202.22,99.48Z" transform="translate(-13.75 -7.8)"/><path class="c" d="M213.65,102.46v1h-6.74v-1Z" transform="translate(-13.75 -7.8)"/><path class="c" d="M215.53,106.61c2.55-2.82,3.33-3.53,3.33-4.92,0-1-.49-1.63-1.27-1.63a1.57,1.57,0,0,0-1.44,1.4h-.49A2.6,2.6,0,0,1,218.17,99a2.18,2.18,0,0,1,2.22,2.25c0,1.8-1.59,2.41-3.39,4.48h2.39c.67,0,.82-.34.91-1h.42l-.25,2.28h-4.92Z" transform="translate(-13.75 -7.8)"/><path class="c" d="M225.22,99c1.29,0,2.61,1.25,2.61,4.12,0,3.05-1.48,4.1-2.61,4.1-1.36,0-2.63-1.34-2.63-4.1S223.83,99,225.22,99Zm-1,5.66c0,1.39.23,2.09,1,2.09s1-.69,1-2.3v-2.79c0-1.88-.52-2.2-1-2.2-.75,0-1,.59-1,1.91Z" transform="translate(-13.75 -7.8)"/><path class="c" d="M233.09,106.05c0,.37.11.57.47.57h.81V107h-4v-.43h.76c.32,0,.44-.2.44-.52v-5.51a5.94,5.94,0,0,1-1.49.67l-.16-.38A7.71,7.71,0,0,0,232.39,99h.71Z" transform="translate(-13.75 -7.8)"/><path class="c" d="M240,102.65a2.54,2.54,0,0,1,1.67,2.25,2.5,2.5,0,0,1-2.6,2.35,2.36,2.36,0,0,1-2.53-2.11c0-.83.49-1.43,1.53-1.86a2.59,2.59,0,0,1-1.39-2.13A2.24,2.24,0,0,1,239.07,99a2.21,2.21,0,0,1,2.41,1.89C241.48,101.65,241,102.19,240,102.65Zm-1.47.91a1.72,1.72,0,0,0-.67,1.54c0,1,.48,1.68,1.27,1.68a1.23,1.23,0,0,0,1.29-1.26C240.41,104.6,239.81,104.25,238.52,103.55Zm.5-4.08a1,1,0,0,0-1.12,1.09c0,.7.48,1.2,1.72,1.82a1.72,1.72,0,0,0,.63-1.46C240.25,100,239.81,99.48,239,99.48Z" transform="translate(-13.75 -7.8)"/></svg>